{
.appVersion = "1095";
copyright = "Copyright © 2017 by David van Gemeren. All rights reserved.";
date = "2017-11-26 16:26:29 +0000";
designer = "David van Gemeren";
designerURL = "https://www.burodepeper.nl";
familyName = Fifteen;
fontMaster = (
{
ascender = 1100;
capHeight = 1000;
customParameters = (
{
name = hheaAscender;
value = 1100;
},
{
name = hheaDescender;
value = -400;
},
{
name = hheaLineGap;
value = 0;
},
{
name = typoAscender;
value = 1100;
},
{
name = typoDescender;
value = -400;
},
{
name = typoLineGap;
value = 0;
},
{
name = underlineThickness;
value = 50;
},
{
name = underlinePosition;
value = -150;
}
);
descender = -400;
horizontalStems = (
50
);
id = "833FD172-3601-4257-8297-A103CE2A393F";
userData = {
GSOffsetHorizontal = -50;
GSOffsetVertical = -50;
};
verticalStems = (
50
);
visible = 1;
weight = Light;
weightValue = 50;
xHeight = 700;
},
{
ascender = 1100;
capHeight = 1000;
customParameters = (
{
name = hheaAscender;
value = 1100;
},
{
name = hheaDescender;
value = -400;
},
{
name = hheaLineGap;
value = 0;
},
{
name = typoAscender;
value = 1100;
},
{
name = typoDescender;
value = -400;
},
{
name = typoLineGap;
value = 0;
},
{
name = underlineThickness;
value = 100;
},
{
name = underlinePosition;
value = -150;
}
);
descender = -400;
horizontalStems = (
100
);
id = "926D8932-2CBE-4DA1-A7EC-AA50FD678EE5";
userData = {
GSCornerRadius = 375;
GSOffsetHorizontal = -100;
GSOffsetVertical = -100;
};
verticalStems = (
100
);
visible = 1;
xHeight = 700;
},
{
ascender = 1100;
capHeight = 1000;
customParameters = (
{
name = hheaAscender;
value = 1100;
},
{
name = hheaDescender;
value = -400;
},
{
name = hheaLineGap;
value = 0;
},
{
name = typoAscender;
value = 1100;
},
{
name = typoDescender;
value = -400;
},
{
name = typoLineGap;
value = 0;
},
{
name = underlineThickness;
value = 150;
},
{
name = underlinePosition;
value = -150;
}
);
descender = -400;
horizontalStems = (
150,
100
);
id = "DCFDD359-D3A1-4A9B-975E-26381AFB2AA7";
userData = {

glyphs = (
{
color = 5;
glyphname = A;
lastChange = "2017-12-08 19:17:25 +0000";
layers = (
{
anchors = (
{
name = bottom;
position = "{450, -50}";
},
{
name = ogonek;
position = "{850, -150}";
},
{
name = top;
position = "{450, 850}";
}
);
components = (
{
name = V;
transform = "{-1, 0, 0, -1, 900, 700}";
}
);
hints = (
{
horizontal = 1;
origin = "{0, 0}";
target = "{0, 3}";
}
);
layerId = "926D8932-2CBE-4DA1-A7EC-AA50FD678EE5";
paths = (
{
closed = 1;
nodes = (
"200 100 LINE",
"700 100 LINE",
"700 200 LINE",
"200 200 LINE"
);
}
);
width = 900;
},
{
anchors = (
{
name = bottom;
position = "{450, -50}";
},
{
name = ogonek;
position = "{825, -150}";
},
{
name = top;
position = "{450, 850}";
}
);
components = (
{
name = V;
transform = "{-1, 0, 0, -1, 900, 700}";
}
);
hints = (
{
horizontal = 1;
origin = "{0, 0}";
target = "{0, 3}";
}
);
layerId = "DCFDD359-D3A1-4A9B-975E-26381AFB2AA7";
paths = (
{
closed = 1;
nodes = (
"250 100 LINE",
"650 100 LINE",
"650 250 LINE",
"250 250 LINE"
);
}
);
width = 900;
},
{
anchors = (
{
name = bottom;
position = "{450, -50}";
},
{
name = ogonek;
position = "{875, -150}";
},
{
name = top;
position = "{450, 850}";
}
);
components = (
{
name = V;
transform = "{-1, 0, 0, -1, 900, 700}";
}
);
hints = (
{
horizontal = 1;
origin = "{0, 0}";
target = "{0, 3}";
}
);
layerId = "833FD172-3601-4257-8297-A103CE2A393F";
paths = (
{
closed = 1;
nodes = (
"150 100 LINE",
"750 100 LINE",
"750 150 LINE",
"150 150 LINE"
);
}
);
width = 900;
}
);
leftKerningGroup = A;
leftMetricsKey = V;
rightKerningGroup = A;
rightMetricsKey = V;
unicode = 0041;
},
{
color = 5;
glyphname = AE;
lastChange = "2017-12-09 10:04:05 +0000";
layers = (
{
anchors = (
{
name = top;
position = "{800, 850}";
}
);
layerId = "926D8932-2CBE-4DA1-A7EC-AA50FD678EE5";
paths = (
{
closed = 1;
nodes = (
"450 750 LINE",
"1050 750 LINE",
"1050 850 LINE",
"450 850 LINE"
);
},
{
closed = 1;
nodes = (
"550 -150 LINE",
"1050 -150 LINE",
"1050 -50 LINE",
"550 -50 LINE"
);
},
{
closed = 1;
nodes = (
"550 -150 LINE",
"650 -150 LINE",
"650 750 LINE",
"550 750 LINE"
);
},
{
closed = 1;
nodes = (
"255 300 LINE",
"950 300 LINE",
"950 400 LINE",
"255 400 LINE"
);
},
{
closed = 1;
nodes = (
"110 -150 LINE",
"525 850 LINE",
"415 850 LINE",
"0 -150 LINE"
);
}
);
width = 1125;
},
{
anchors = (
{
name = top;
position = "{800, 850}";
}
);
layerId = "DCFDD359-D3A1-4A9B-975E-26381AFB2AA7";
paths = (
{
closed = 1;
nodes = (
"445 700 LINE",
"1050 700 LINE",
"1050 850 LINE",
"445 850 LINE"
);
},
{
closed = 1;
nodes = (
"550 -150 LINE",
"1050 -150 LINE",
"1050 0 LINE",
"550 0 LINE"
);
},
{
closed = 1;
nodes = (
"550 -150 LINE",
"700 -150 LINE",
"700 850 LINE",
"550 850 LINE"
);
},
{
closed = 1;
nodes = (
"300 275 LINE",
"950 275 LINE",
"950 425 LINE",
"300 425 LINE"
);
},
{
closed = 1;
nodes = (
"165 -150 LINE",
"580 850 LINE",
"415 850 LINE",
"0 -150 LINE"
);
}
);
width = 1125;
},
{
anchors = (
{
name = top;
position = "{800, 850}";
}
);
layerId = "833FD172-3601-4257-8297-A103CE2A393F";
paths = (
{
closed = 1;
nodes = (
"435 800 LINE",
"1050 800 LINE",
"1050 850 LINE",
"435 850 LINE"
);
},
{
closed = 1;
nodes = (
"550 -150 LINE",
"1050 -150 LINE",
"1050 -100 LINE",
"550 -100 LINE"
);
},
{
closed = 1;
nodes = (
"550 -150 LINE",
"600 -150 LINE",
"600 850 LINE",
"550 850 LINE"
);
},
{
closed = 1;
nodes = (
"235 325 LINE",
"950 325 LINE",
"950 375 LINE",
"235 375 LINE"
);
},
{
closed = 1;
nodes = (
"55 -150 LINE",
"470 850 LINE",
"415 850 LINE",
"0 -150 LINE"
);
}
);
width = 1125;
}
);
leftKerningGroup = A;
leftMetricsKey = A;
rightKerningGroup = I;
rightMetricsKey = I;
unicode = 00C6;
},
{
color = 5;
glyphname = B;
lastChange = "2017-12-08 11:20:20 +0000";
layers = (
{
anchors = (
{
name = bottom;
position = "{425, -150}";
},
{
name = top;
position = "{425, 850}";
}
);
hints = (
{
horizontal = 1;
origin = "{3, 2}";
target = "{5, 3}";
},
{
horizontal = 1;
origin = "{1, 3}";
target = "{1, 2}";
},
{
horizontal = 1;
origin = "{4, 3}";
target = "{3, 1}";
},
{
origin = "{3, 2}";
target = "{3, 3}";
},
{
origin = "{0, 6}";
target = "{0, 13}";
},
{
origin = "{2, 6}";
target = "{2, 13}";
}
);
layerId = "926D8932-2CBE-4DA1-A7EC-AA50FD678EE5";
paths = (
{
closed = 1;
nodes = (
"825 277 OFFCURVE",
"702 400 OFFCURVE",
"555 400 CURVE",
"555 300 LINE",
"647 300 OFFCURVE",
"725 222 OFFCURVE",
"725 130 CURVE SMOOTH",
"725 28 OFFCURVE",
"647 -50 OFFCURVE",
"555 -50 CURVE",
"555 -150 LINE",
"702 -150 OFFCURVE",
"825 -27 OFFCURVE",
"825 130 CURVE SMOOTH"
);
},
{
closed = 1;
nodes = (
"555 300 LINE",
"555 400 LINE",
"125 400 LINE",
"125 300 LINE"
);
},
{
closed = 1;
nodes = (
"775 727 OFFCURVE",
"652 850 OFFCURVE",
"505 850 CURVE",
"505 750 LINE",
"597 750 OFFCURVE",
"675 672 OFFCURVE",
"675 580 CURVE SMOOTH",
"675 478 OFFCURVE",
"597 400 OFFCURVE",
"505 400 CURVE",
"505 300 LINE",
"652 300 OFFCURVE",
"775 423 OFFCURVE",
"775 580 CURVE SMOOTH"
);
},
{
closed = 1;
nodes = (
"225 850 LINE",
"125 850 LINE",
"125 -150 LINE",
"225 -150 LINE"
);
},
{
closed = 1;
nodes = (
"505 750 LINE",
"505 850 LINE",
"125 850 LINE",
"125 750 LINE"
);
},
{
closed = 1;
nodes = (
"125 -150 LINE",
"555 -150 LINE",
"555 -50 LINE",
"125 -50 LINE"
);
}
);
width = 900;
},
{
anchors = (
{
name = bottom;
position = "{425, -150}";
},
{
name = top;
position = "{425, 850}";
}
);
hints = (
{
horizontal = 1;
origin = "{3, 2}";
target = "{5, 3}";
},
{
horizontal = 1;
origin = "{1, 3}";
target = "{1, 2}";
},
{
horizontal = 1;
origin = "{4, 3}";
target = "{3, 1}";
},
{
origin = "{3, 2}";
target = "{3, 3}";
},
{
origin = "{0, 6}";
target = "{0, 13}";
},
{
origin = "{2, 6}";
target = "{2, 13}";
}
);
layerId = "DCFDD359-D3A1-4A9B-975E-26381AFB2AA7";
paths = (
{
closed = 1;
nodes = (
"825 300 OFFCURVE",
"695 430 OFFCURVE",
"535 430 CURVE",
"535 270 LINE",
"610 270 OFFCURVE",
"670 210 OFFCURVE",
"670 135 CURVE SMOOTH",
"670 60 OFFCURVE",
"610 0 OFFCURVE",
"535 0 CURVE",
"535 -150 LINE",
"695 -150 OFFCURVE",
"825 -20 OFFCURVE",
"825 140 CURVE SMOOTH"
);
},
{
closed = 1;
nodes = (
"535 270 LINE",
"535 430 LINE",
"125 430 LINE",
"125 270 LINE"
);
},
{
closed = 1;
nodes = (
"775 720 OFFCURVE",
"645 850 OFFCURVE",
"485 850 CURVE",
"485 700 LINE",
"560 700 OFFCURVE",
"620 640 OFFCURVE",
"620 565 CURVE SMOOTH",
"620 490 OFFCURVE",
"560 430 OFFCURVE",
"485 430 CURVE",
"485 270 LINE",
"645 270 OFFCURVE",
"775 400 OFFCURVE",
"775 560 CURVE SMOOTH"
);
},
{
closed = 1;
nodes = (
"275 850 LINE",
"125 850 LINE",
"125 -150 LINE",
"275 -150 LINE"
);
},
{
closed = 1;
nodes = (
"485 700 LINE",
"485 850 LINE",
"125 850 LINE",
"125 700 LINE"
);
},
{
closed = 1;
nodes = (
"125 -150 LINE",
"535 -150 LINE",
"535 0 LINE",
"125 0 LINE"
);
}
);
width = 900;
},
{
anchors = (
{
name = bottom;
position = "{425, -150}";
},
{
name = top;
position = "{425, 850}";
}
);
hints = (
{
horizontal = 1;
origin = "{3, 2}";
target = "{5, 3}";
},
{
horizontal = 1;
origin = "{1, 3}";
target = "{1, 2}";
},
{
horizontal = 1;
origin = "{4, 3}";
target = "{3, 1}";
},
{
origin = "{3, 2}";
target = "{3, 3}";
},
{
origin = "{0, 6}";
target = "{0, 13}";
},
{
origin = "{2, 6}";
target = "{0, 6}";
}
);
layerId = "833FD172-3601-4257-8297-A103CE2A393F";
paths = (
{
closed = 1;
nodes = (
"825 277 OFFCURVE",
"702 400 OFFCURVE",
"550 400 CURVE",
"550 350 LINE",
"675 350 OFFCURVE",
"775 250 OFFCURVE",
"775 125 CURVE SMOOTH",
"775 1 OFFCURVE",
"674 -100 OFFCURVE",
"550 -100 CURVE",
"550 -150 LINE",
"700 -150 OFFCURVE",
"825 -25 OFFCURVE",
"825 125 CURVE SMOOTH"
);
},
{
closed = 1;
nodes = (
"525 350 LINE",
"525 400 LINE",
"125 400 LINE",
"125 350 LINE"
);
},
{
closed = 1;
nodes = (
"775 738 OFFCURVE",
"663 850 OFFCURVE",
"525 850 CURVE",
"525 800 LINE",
"635 800 OFFCURVE",
"725 710 OFFCURVE",
"725 600 CURVE SMOOTH",
"725 490 OFFCURVE",
"636 401 OFFCURVE",
"525 400 CURVE",
"525 350 LINE",
"665 350 OFFCURVE",
"775 460 OFFCURVE",
"775 600 CURVE SMOOTH"
);
},
{
closed = 1;
nodes = (
"175 850 LINE",
"125 850 LINE",
"125 -150 LINE",
"175 -150 LINE"
);
},
{
closed = 1;
nodes = (
"525 800 LINE",
"525 850 LINE",
"125 850 LINE",
"125 800 LINE"
);
},
{
closed = 1;
nodes = (
"125 -150 LINE",
"550 -150 LINE",
"550 -100 LINE",
"125 -100 LINE"
);
}
);
width = 900;
}
);
leftKerningGroup = H;
leftMetricsKey = H;
rightKerningGroup = B;
rightMetricsKey = O;
unicode = 0042;
},
{
color = 5;
glyphname = C;
lastChange = "2017-12-08 11:20:20 +0000";
layers = (
{
anchors = (
{
name = bottom;
position = "{575, -150}";
},
{
name = top;
position = "{575, 850}";
}
);
hints = (
{
horizontal = 1;
origin = "{0, 2}";
target = "{0, 9}";
},
{
horizontal = 1;
origin = "{0, 15}";
target = "{0, 22}";
},
{
origin = "{0, 25}";
target = "{0, 12}";
}
);
layerId = "926D8932-2CBE-4DA1-A7EC-AA50FD678EE5";
paths = (
{
closed = 1;
nodes = (
"75 74 OFFCURVE",
"299 -150 OFFCURVE",
"575 -150 CURVE SMOOTH",
"713 -150 OFFCURVE",
"838 -94 OFFCURVE",
"925 0 CURVE",
"855 70 LINE",
"786 -5 OFFCURVE",
"686 -50 OFFCURVE",
"575 -50 CURVE SMOOTH",
"354 -50 OFFCURVE",
"175 129 OFFCURVE",
"175 350 CURVE SMOOTH",
"175 571 OFFCURVE",
"354 750 OFFCURVE",
"575 750 CURVE SMOOTH",
"686 750 OFFCURVE",
"786 705 OFFCURVE",
"855 630 CURVE",
"925 700 LINE",
"838 794 OFFCURVE",
"713 850 OFFCURVE",
"575 850 CURVE SMOOTH",
"299 850 OFFCURVE",
"75 626 OFFCURVE",
"75 350 CURVE SMOOTH"
);
}
);
width = 975;
},
{
anchors = (
{
name = bottom;
position = "{575, -150}";
},
{
name = top;
position = "{575, 850}";
}
);
hints = (
{
horizontal = 1;
origin = "{0, 2}";
target = "{0, 9}";
},
{
horizontal = 1;
origin = "{0, 15}";
target = "{0, 22}";
},
{
origin = "{0, 25}";
target = "{0, 12}";
}
);
layerId = "DCFDD359-D3A1-4A9B-975E-26381AFB2AA7";
paths = (
{
closed = 1;
nodes = (
"75 75 OFFCURVE",
"300 -150 OFFCURVE",
"575 -150 CURVE SMOOTH",
"715 -150 OFFCURVE",
"835 -90 OFFCURVE",
"925 0 CURVE",
"820 105 LINE",
"760 40 OFFCURVE",
"670 0 OFFCURVE",
"575 0 CURVE SMOOTH",
"380 0 OFFCURVE",
"225 155 OFFCURVE",
"225 350 CURVE SMOOTH",
"225 545 OFFCURVE",
"380 700 OFFCURVE",
"575 700 CURVE SMOOTH",
"670 700 OFFCURVE",
"760 660 OFFCURVE",
"820 595 CURVE",
"925 700 LINE",
"835 790 OFFCURVE",
"715 850 OFFCURVE",
"575 850 CURVE SMOOTH",
"300 850 OFFCURVE",
"75 625 OFFCURVE",
"75 350 CURVE SMOOTH"
);
}
);
width = 975;
},
{
anchors = (
{
name = bottom;
position = "{575, -150}";
},
{
name = top;
position = "{575, 850}";
}
);
hints = (
{
horizontal = 1;
origin = "{0, 2}";
target = "{0, 9}";
},
{
horizontal = 1;
origin = "{0, 15}";
target = "{0, 22}";
},
{
origin = "{0, 25}";
target = "{0, 12}";
}
);
layerId = "833FD172-3601-4257-8297-A103CE2A393F";
paths = (
{
closed = 1;
nodes = (
"75 75 OFFCURVE",
"300 -150 OFFCURVE",
"575 -150 CURVE SMOOTH",
"713 -150 OFFCURVE",
"833 -93 OFFCURVE",
"925 0 CURVE",
"890 35 LINE",
"810 -50 OFFCURVE",
"700 -100 OFFCURVE",
"575 -100 CURVE SMOOTH",
"330 -100 OFFCURVE",
"125 105 OFFCURVE",
"125 350 CURVE SMOOTH",
"125 600 OFFCURVE",
"330 800 OFFCURVE",
"575 800 CURVE SMOOTH",
"700 800 OFFCURVE",
"807 745 OFFCURVE",
"890 665 CURVE",
"925 700 LINE",
"830 790 OFFCURVE",
"710 850 OFFCURVE",
"575 850 CURVE SMOOTH",
"300 850 OFFCURVE",
"75 625 OFFCURVE",
"75 350 CURVE SMOOTH"
);
}
);
width = 975;
}
);
leftKerningGroup = O;
leftMetricsKey = O;
rightKerningGroup = C;
unicode = 0043;
},
{
color = 5;
glyphname = D;
lastChange = "2017-12-08 11:20:20 +0000";
layers = (
{
anchors = (
{
name = bottom;
position = "{425, -150}";
},
{
name = top;
position = "{525, 850}";
}
);
hints = (
{
horizontal = 1;
origin = "{1, 0}";
target = "{3, 3}";
},
{
horizontal = 1;
origin = "{2, 0}";
target = "{1, 3}";
},
{
origin = "{1, 0}";
target = "{1, 1}";
},
{
origin = "{0, 9}";
target = "{0, 2}";
}
);
layerId = "926D8932-2CBE-4DA1-A7EC-AA50FD678EE5";
paths = (
{
closed = 1;
nodes = (
"701 -150 OFFCURVE",
"925 74 OFFCURVE",
"925 350 CURVE SMOOTH",
"925 626 OFFCURVE",
"701 850 OFFCURVE",
"425 850 CURVE",
"425 750 LINE",
"646 750 OFFCURVE",
"825 571 OFFCURVE",
"825 350 CURVE SMOOTH",
"825 129 OFFCURVE",
"646 -50 OFFCURVE",
"425 -50 CURVE",
"425 -150 LINE"
);
},
{
closed = 1;
nodes = (
"125 -150 LINE",
"225 -150 LINE",
"225 850 LINE",
"125 850 LINE"
);
},
{
closed = 1;
nodes = (
"225 750 LINE",
"425 750 LINE",
"425 850 LINE",
"225 850 LINE"
);
},
{
closed = 1;
nodes = (
"225 -150 LINE",
"425 -150 LINE",
"425 -50 LINE",
"225 -50 LINE"
);
}
);
width = 1000;
},
{
anchors = (
{
name = bottom;
position = "{425, -150}";
},
{
name = top;
position = "{525, 850}";
}
);
hints = (
{
horizontal = 1;
origin = "{1, 0}";
target = "{3, 3}";
},
{
horizontal = 1;
origin = "{2, 0}";
target = "{1, 3}";
},
{
origin = "{1, 0}";
target = "{1, 1}";
},
{
origin = "{0, 9}";
target = "{0, 2}";
}
);
layerId = "DCFDD359-D3A1-4A9B-975E-26381AFB2AA7";
paths = (
{
closed = 1;
nodes = (
"700 -150 OFFCURVE",
"925 75 OFFCURVE",
"925 350 CURVE SMOOTH",
"925 625 OFFCURVE",
"700 850 OFFCURVE",
"425 850 CURVE",
"425 700 LINE",
"620 700 OFFCURVE",
"775 545 OFFCURVE",
"775 350 CURVE SMOOTH",
"775 155 OFFCURVE",
"620 0 OFFCURVE",
"425 0 CURVE",
"425 -150 LINE"
);
},
{
closed = 1;
nodes = (
"125 -150 LINE",
"275 -150 LINE",
"275 850 LINE",
"125 850 LINE"
);
},
{
closed = 1;
nodes = (
"125 700 LINE",
"425 700 LINE",
"425 850 LINE",
"125 850 LINE"
);
},
{
closed = 1;
nodes = (
"125 -150 LINE",
"425 -150 LINE",
"425 0 LINE",
"125 0 LINE"
);
}
);
width = 1000;
},
{
anchors = (
{
name = bottom;
position = "{425, -150}";
},
{
name = top;
position = "{525, 850}";
}
);
hints = (
{
horizontal = 1;
origin = "{1, 0}";
target = "{3, 3}";
},
{
horizontal = 1;
origin = "{2, 0}";
target = "{1, 3}";
},
{
origin = "{1, 0}";
target = "{1, 1}";
},
{
origin = "{0, 9}";
target = "{0, 2}";
}
);
layerId = "833FD172-3601-4257-8297-A103CE2A393F";
paths = (
{
closed = 1;
nodes = (
"700 -150 OFFCURVE",
"925 75 OFFCURVE",
"925 350 CURVE SMOOTH",
"925 625 OFFCURVE",
"700 850 OFFCURVE",
"425 850 CURVE",
"425 800 LINE",
"675 800 OFFCURVE",
"875 600 OFFCURVE",
"875 350 CURVE SMOOTH",
"875 105 OFFCURVE",
"675 -100 OFFCURVE",
"425 -100 CURVE",
"425 -150 LINE"
);
},
{
closed = 1;
nodes = (
"125 -150 LINE",
"175 -150 LINE",
"175 850 LINE",
"125 850 LINE"
);
},
{
closed = 1;
nodes = (
"125 800 LINE",
"425 800 LINE",
"425 850 LINE",
"125 850 LINE"
);
},
{
closed = 1;
nodes = (
"125 -150 LINE",
"425 -150 LINE",
"425 -100 LINE",
"125 -100 LINE"
);
}
);
width = 1000;
}
);
leftKerningGroup = H;
leftMetricsKey = H;
rightKerningGroup = O;
rightMetricsKey = O;
unicode = 0044;
},
{
color = 5;
glyphname = E;
lastChange = "2017-12-08 11:37:30 +0000";
layers = (
{
anchors = (
{
name = bottom;
position = "{425, -150}";
},
{
name = ogonek;
position = "{675, -150}";
},
{
name = top;
position = "{425, 850}";
},
{
name = topleft;
position = "{125, 850}";
}
);
hints = (
{
horizontal = 1;
origin = "{1, 0}";
target = "{1, 3}";
},
{
horizontal = 1;
origin = "{3, 0}";
target = "{3, 3}";
},
{
horizontal = 1;
origin = "{0, 0}";
target = "{0, 3}";
},
{
origin = "{1, 0}";
target = "{2, 1}";
}
);
layerId = "926D8932-2CBE-4DA1-A7EC-AA50FD678EE5";
paths = (
{
closed = 1;
nodes = (
"125 750 LINE",
"725 750 LINE",
"725 850 LINE",
"125 850 LINE"
);
},
{
closed = 1;
nodes = (
"125 -150 LINE",
"725 -150 LINE",
"725 -50 LINE",
"125 -50 LINE"
);
},
{
closed = 1;
nodes = (
"125 -150 LINE",
"225 -150 LINE",
"225 850 LINE",
"125 850 LINE"
);
},
{
closed = 1;
nodes = (
"125 300 LINE",
"575 300 LINE",
"575 400 LINE",
"125 400 LINE"
);
}
);
width = 800;
},
{
anchors = (
{
name = bottom;
position = "{425, -150}";
},
{
name = ogonek;
position = "{650, -150}";
},
{
name = top;
position = "{425, 850}";
},
{
name = topleft;
position = "{125, 850}";
}
);
hints = (
{
horizontal = 1;
origin = "{1, 0}";
target = "{1, 3}";
},
{
horizontal = 1;
origin = "{3, 0}";
target = "{3, 3}";
},
{
horizontal = 1;
origin = "{0, 0}";
target = "{0, 3}";
},
{
origin = "{1, 0}";
target = "{2, 1}";
}
);
layerId = "DCFDD359-D3A1-4A9B-975E-26381AFB2AA7";
paths = (
{
closed = 1;
nodes = (
"125 700 LINE",
"725 700 LINE",
"725 850 LINE",
"125 850 LINE"
);
},
{
closed = 1;
nodes = (
"125 -150 LINE",
"725 -150 LINE",
"725 0 LINE",
"125 0 LINE"
);
},
{
closed = 1;
nodes = (
"125 -150 LINE",
"275 -150 LINE",
"275 850 LINE",
"125 850 LINE"
);
},
{
closed = 1;
nodes = (
"125 275 LINE",
"575 275 LINE",
"575 425 LINE",
"125 425 LINE"
);
}
);
width = 800;
},
{
anchors = (
{
name = bottom;
position = "{425, -150}";
},
{
name = ogonek;
position = "{700, -150}";
},
{
name = top;
position = "{425, 850}";
},
{
name = topleft;
position = "{125, 850}";
}
);
hints = (
{
horizontal = 1;
origin = "{1, 0}";
target = "{1, 3}";
},
{
horizontal = 1;
origin = "{3, 0}";
target = "{3, 3}";
},
{
horizontal = 1;
origin = "{0, 0}";
target = "{0, 3}";
},
{
origin = "{1, 0}";
target = "{2, 1}";
}
);
layerId = "833FD172-3601-4257-8297-A103CE2A393F";
paths = (
{
closed = 1;
nodes = (
"125 800 LINE",
"725 800 LINE",
"725 850 LINE",
"125 850 LINE"
);
},
{
closed = 1;
nodes = (
"125 -150 LINE",
"725 -150 LINE",
"725 -100 LINE",
"125 -100 LINE"
);
},
{
closed = 1;
nodes = (
"125 -150 LINE",
"175 -150 LINE",
"175 850 LINE",
"125 850 LINE"
);
},
{
closed = 1;
nodes = (
"125 325 LINE",
"575 325 LINE",
"575 375 LINE",
"125 375 LINE"
);
}
);
width = 800;
}
);
leftKerningGroup = H;
leftMetricsKey = H;
rightKerningGroup = I;
rightMetricsKey = I;
unicode = 0045;
},
{
color = 5;
glyphname = F;
lastChange = "2017-12-08 11:37:30 +0000";
layers = (
{
anchors = (
{
name = top;
position = "{425, 850}";
}
);
hints = (
{
horizontal = 1;
origin = "{2, 0}";
target = "{2, 3}";
},
{
horizontal = 1;
origin = "{0, 0}";
target = "{0, 3}";
},
{
origin = "{1, 0}";
target = "{1, 1}";
}
);
layerId = "926D8932-2CBE-4DA1-A7EC-AA50FD678EE5";
paths = (
{
closed = 1;
nodes = (
"125 750 LINE",
"725 750 LINE",
"725 850 LINE",
"125 850 LINE"
);
},
{
closed = 1;
nodes = (
"125 -150 LINE",
"225 -150 LINE",
"225 850 LINE",
"125 850 LINE"
);
},
{
closed = 1;
nodes = (
"125 300 LINE",
"575 300 LINE",
"575 400 LINE",
"125 400 LINE"
);
}
);
width = 800;
},
{
anchors = (
{
name = top;
position = "{425, 850}";
}
);
hints = (
{
horizontal = 1;
origin = "{2, 0}";
target = "{2, 3}";
},
{
horizontal = 1;
origin = "{0, 0}";
target = "{0, 3}";
},
{
origin = "{1, 0}";
target = "{1, 1}";
}
);
layerId = "DCFDD359-D3A1-4A9B-975E-26381AFB2AA7";
paths = (
{
closed = 1;
nodes = (
"125 700 LINE",
"725 700 LINE",
"725 850 LINE",
"125 850 LINE"
);
},
{
closed = 1;
nodes = (
"125 -150 LINE",
"275 -150 LINE",
"275 850 LINE",
"125 850 LINE"
);
},
{
closed = 1;
nodes = (
"125 275 LINE",
"575 275 LINE",
"575 425 LINE",
"125 425 LINE"
);
}
);
width = 800;
},
{
anchors = (
{
name = top;
position = "{425, 850}";
}
);
hints = (
{
horizontal = 1;
origin = "{2, 0}";
target = "{2, 3}";
},
{
horizontal = 1;
origin = "{0, 0}";
target = "{0, 3}";
},
{
origin = "{1, 0}";
target = "{1, 1}";
}
);
layerId = "833FD172-3601-4257-8297-A103CE2A393F";
paths = (
{
closed = 1;
nodes = (
"125 800 LINE",
"725 800 LINE",
"725 850 LINE",
"125 850 LINE"
);
},
{
closed = 1;
nodes = (
"125 -150 LINE",
"175 -150 LINE",
"175 850 LINE",
"125 850 LINE"
);
},
{
closed = 1;
nodes = (
"125 325 LINE",
"575 325 LINE",
"575 375 LINE",
"125 375 LINE"
);
}
);
width = 800;
}
);
leftKerningGroup = H;
leftMetricsKey = H;
rightKerningGroup = F;
rightMetricsKey = I;
unicode = 0046;
},
{
color = 5;
glyphname = G;
lastChange = "2017-12-08 11:20:20 +0000";
layers = (
{
anchors = (
{
name = bottom;
position = "{575, -150}";
},
{
name = top;
position = "{575, 850}";
}
);
hints = (
{
horizontal = 1;
origin = "{0, 2}";
target = "{0, 12}";
},
{
horizontal = 1;
origin = "{0, 8}";
target = "{0, 7}";
},
{
horizontal = 1;
origin = "{0, 18}";
target = "{0, 25}";
},
{
origin = "{0, 28}";
target = "{0, 15}";
},
{
place = "{1000, 100}";
}
);
layerId = "926D8932-2CBE-4DA1-A7EC-AA50FD678EE5";
paths = (
{
closed = 1;
nodes = (
"75 75 OFFCURVE",
"300 -150 OFFCURVE",
"575 -150 CURVE SMOOTH",
"850 -150 OFFCURVE",
"1075 75 OFFCURVE",
"1075 350 CURVE SMOOTH",
"1075 400 LINE",
"575 400 LINE",
"575 300 LINE",
"970 300 LINE",
"945 105 OFFCURVE",
"780 -50 OFFCURVE",
"575 -50 CURVE SMOOTH",
"355 -50 OFFCURVE",
"175 130 OFFCURVE",
"175 350 CURVE SMOOTH",
"175 570 OFFCURVE",
"355 750 OFFCURVE",
"575 750 CURVE SMOOTH",
"685 750 OFFCURVE",
"785 705 OFFCURVE",
"855 630 CURVE",
"925 700 LINE",
"840 795 OFFCURVE",
"715 850 OFFCURVE",
"575 850 CURVE SMOOTH",
"300 850 OFFCURVE",
"75 625 OFFCURVE",
"75 350 CURVE SMOOTH"
);
}
);
width = 1150;
},
{
anchors = (
{
name = bottom;
position = "{575, -150}";
},
{
name = top;
position = "{575, 850}";
}
);
hints = (
{
horizontal = 1;
origin = "{0, 2}";
target = "{0, 12}";
},
{
horizontal = 1;
origin = "{0, 8}";
target = "{0, 7}";
},
{
horizontal = 1;
origin = "{0, 18}";
target = "{0, 25}";
},
{
origin = "{0, 28}";
target = "{0, 15}";
},
{
place = "{950, 150}";
}
);
layerId = "DCFDD359-D3A1-4A9B-975E-26381AFB2AA7";
paths = (
{
closed = 1;
nodes = (
"75 75 OFFCURVE",
"300 -150 OFFCURVE",
"575 -150 CURVE SMOOTH",
"850 -150 OFFCURVE",
"1075 75 OFFCURVE",
"1075 350 CURVE SMOOTH",
"1075 425 LINE",
"575 425 LINE",
"575 275 LINE",
"915 275 LINE",
"885 115 OFFCURVE",
"745 0 OFFCURVE",
"575 0 CURVE SMOOTH",
"380 0 OFFCURVE",
"225 155 OFFCURVE",
"225 350 CURVE SMOOTH",
"225 545 OFFCURVE",
"380 700 OFFCURVE",
"575 700 CURVE SMOOTH",
"670 700 OFFCURVE",
"760 660 OFFCURVE",
"820 600 CURVE",
"925 705 LINE",
"835 795 OFFCURVE",
"710 850 OFFCURVE",
"575 850 CURVE SMOOTH",
"300 850 OFFCURVE",
"75 625 OFFCURVE",
"75 350 CURVE SMOOTH"
);
}
);
width = 1150;
},
{
anchors = (
{
name = bottom;
position = "{575, -150}";
},
{
name = top;
position = "{575, 850}";
}
);
hints = (
{
horizontal = 1;
origin = "{0, 2}";
target = "{0, 12}";
},
{
horizontal = 1;
origin = "{0, 8}";
target = "{0, 7}";
},
{
horizontal = 1;
origin = "{0, 18}";
target = "{0, 25}";
},
{
origin = "{0, 28}";
target = "{0, 15}";
},
{
place = "{1049, 51}";
}
);
layerId = "833FD172-3601-4257-8297-A103CE2A393F";
paths = (
{
closed = 1;
nodes = (
"75 75 OFFCURVE",
"300 -150 OFFCURVE",
"575 -150 CURVE SMOOTH",
"850 -150 OFFCURVE",
"1075 75 OFFCURVE",
"1075 350 CURVE SMOOTH",
"1075 375 LINE",
"575 375 LINE",
"575 325 LINE",
"1025 325 LINE",
"1010 90 OFFCURVE",
"815 -100 OFFCURVE",
"575 -100 CURVE SMOOTH",
"330 -100 OFFCURVE",
"125 105 OFFCURVE",
"125 350 CURVE SMOOTH",
"125 600 OFFCURVE",
"330 800 OFFCURVE",
"575 800 CURVE SMOOTH",
"700 800 OFFCURVE",
"810 750 OFFCURVE",
"895 670 CURVE",
"930 705 LINE",
"835 795 OFFCURVE",
"710 850 OFFCURVE",
"575 850 CURVE SMOOTH",
"300 850 OFFCURVE",
"75 625 OFFCURVE",
"75 350 CURVE SMOOTH"
);
}
);
width = 1150;
}
);
leftKerningGroup = O;
leftMetricsKey = O;
rightKerningGroup = O;
rightMetricsKey = O;
unicode = 0047;
},
{
color = 5;
glyphname = H;
lastChange = "2017-11-26 16:43:09 +0000";
layers = (
{
anchors = (
{
name = bottom;
position = "{475, -150}";
},
{
name = center;
position = "{475, 350}";
},
{
name = top;
position = "{475, 850}";
},
{
name = topleft;
position = "{125, 850}";
}
);
hints = (
{
horizontal = 1;
origin = "{0, 0}";
target = "{0, 3}";
},
{
origin = "{1, 0}";
target = "{1, 1}";
},
{
origin = "{2, 0}";
target = "{2, 1}";
}
);
layerId = "926D8932-2CBE-4DA1-A7EC-AA50FD678EE5";
paths = (
{
closed = 1;
nodes = (
"125 300 LINE",
"825 300 LINE",
"825 400 LINE",
"125 400 LINE"
);
},
{
closed = 1;
nodes = (
"125 -150 LINE",
"225 -150 LINE",
"225 850 LINE",
"125 850 LINE"
);
},
{
closed = 1;
nodes = (
"725 -150 LINE",
"825 -150 LINE",
"825 850 LINE",
"725 850 LINE"
);
}
);
width = 950;
},
{
anchors = (
{
name = bottom;
position = "{475, -150}";
},
{
name = center;
position = "{475, 350}";
},
{
name = top;
position = "{475, 850}";
},
{
name = topleft;
position = "{125, 850}";
}
);
hints = (
{
horizontal = 1;
origin = "{0, 0}";
target = "{0, 3}";
},
{
origin = "{1, 0}";
target = "{1, 1}";
},
{
origin = "{2, 0}";
target = "{2, 1}";
}
);
layerId = "DCFDD359-D3A1-4A9B-975E-26381AFB2AA7";
paths = (
{
closed = 1;
nodes = (
"125 275 LINE",
"825 275 LINE",
"825 425 LINE",
"125 425 LINE"
);
},
{
closed = 1;
nodes = (
"125 -150 LINE",
"275 -150 LINE",
"275 850 LINE",
"125 850 LINE"
);
},
{
closed = 1;
nodes = (
"675 -150 LINE",
"825 -150 LINE",
"825 850 LINE",
"675 850 LINE"
);
}
);
width = 950;
},
{
anchors = (
{
name = bottom;
position = "{475, -150}";
},
{
name = center;
position = "{475, 350}";
},
{
name = top;
position = "{475, 850}";
},
{
name = topleft;
position = "{125, 850}";
}
);
hints = (
{
horizontal = 1;
origin = "{0, 0}";
target = "{0, 3}";
},
{
origin = "{1, 0}";
target = "{1, 1}";
},
{
origin = "{2, 0}";
target = "{2, 1}";
}
);
layerId = "833FD172-3601-4257-8297-A103CE2A393F";
paths = (
{
closed = 1;
nodes = (
"125 325 LINE",
"825 325 LINE",
"825 375 LINE",
"125 375 LINE"
);
},
{
closed = 1;
nodes = (
"125 -150 LINE",
"175 -150 LINE",
"175 850 LINE",
"125 850 LINE"
);
},
{
closed = 1;
nodes = (
"775 -150 LINE",
"825 -150 LINE",
"825 850 LINE",
"775 850 LINE"
);
}
);
width = 950;
}
);
leftKerningGroup = H;
rightKerningGroup = H;
unicode = 0048;
},
{
color = 5;
glyphname = I;
lastChange = "2017-12-08 11:37:22 +0000";
layers = (
{
anchors = (
{
name = bottom;
position = "{325, -150}";
},
{
name = ogonek;
position = "{325, -150}";
},
{
name = top;
position = "{325, 850}";
}
);
hints = (
{
horizontal = 1;
origin = "{2, 0}";
target = "{2, 3}";
},
{
horizontal = 1;
origin = "{1, 0}";
target = "{1, 3}";
},
{
origin = "{0, 0}";
target = "{0, 1}";
}
);
layerId = "926D8932-2CBE-4DA1-A7EC-AA50FD678EE5";
paths = (
{
closed = 1;
nodes = (
"275 -150 LINE",
"375 -150 LINE",
"375 850 LINE",
"275 850 LINE"
);
},
{
closed = 1;
nodes = (
"75 750 LINE",
"575 750 LINE",
"575 850 LINE",
"75 850 LINE"
);
},
{
closed = 1;
nodes = (
"75 -150 LINE",
"575 -150 LINE",
"575 -50 LINE",
"75 -50 LINE"
);
}
);
width = 650;
},
{
anchors = (
{
name = bottom;
position = "{325, -150}";
},
{
name = ogonek;
position = "{325, -150}";
},
{
name = top;
position = "{325, 850}";
}
);
hints = (
{
horizontal = 1;
origin = "{2, 0}";
target = "{2, 3}";
},
{
horizontal = 1;
origin = "{1, 0}";
target = "{1, 3}";
},
{
origin = "{0, 0}";
target = "{0, 1}";
}
);
layerId = "DCFDD359-D3A1-4A9B-975E-26381AFB2AA7";
paths = (
{
closed = 1;
nodes = (
"250 -150 LINE",
"400 -150 LINE",
"400 850 LINE",
"250 850 LINE"
);
},
{
closed = 1;
nodes = (
"75 700 LINE",
"575 700 LINE",
"575 850 LINE",
"75 850 LINE"
);
},
{
closed = 1;
nodes = (
"75 -150 LINE",
"575 -150 LINE",
"575 0 LINE",
"75 0 LINE"
);
}
);
width = 650;
},
{
anchors = (
{
name = bottom;
position = "{325, -150}";
},
{
name = ogonek;
position = "{325, -150}";
},
{
name = top;
position = "{325, 850}";
}
);
hints = (
{
horizontal = 1;
origin = "{2, 0}";
target = "{2, 3}";
},
{
horizontal = 1;
origin = "{1, 0}";
target = "{1, 3}";
},
{
origin = "{0, 0}";
target = "{0, 1}";
}
);
layerId = "833FD172-3601-4257-8297-A103CE2A393F";
paths = (
{
closed = 1;
nodes = (
"300 -150 LINE",
"350 -150 LINE",
"350 850 LINE",
"300 850 LINE"
);
},
{
closed = 1;
nodes = (
"75 800 LINE",
"575 800 LINE",
"575 850 LINE",
"75 850 LINE"
);
},
{
closed = 1;
nodes = (
"75 -150 LINE",
"575 -150 LINE",
"575 -100 LINE",
"75 -100 LINE"
);
}
);
width = 650;
}
);
leftKerningGroup = I;
rightKerningGroup = I;
unicode = 0049;
},
{
color = 5;
glyphname = J;
lastChange = "2017-12-08 11:31:16 +0000";
layers = (
{
anchors = (
{
name = top;
position = "{800, 850}";
}
);
components = (
{
name = _quartercircle_400;
transform = "{1, 0, 0, 1, 350, 0}";
},
{
name = _quartercircle_400;
transform = "{-1, 0, 0, 1, 550, 0}";
}
);
layerId = "926D8932-2CBE-4DA1-A7EC-AA50FD678EE5";
paths = (
{
closed = 1;
nodes = (
"750 250 LINE",
"850 250 LINE",
"850 850 LINE",
"750 850 LINE"
);
},
{
closed = 1;
nodes = (
"450 750 LINE",
"850 750 LINE",
"850 850 LINE",
"450 850 LINE"
);
}
);
width = 975;
},
{
anchors = (
{
name = top;
position = "{775, 850}";
}
);
components = (
{
name = _quartercircle_400;
transform = "{1, 0, 0, 1, 350, 0}";
},
{
name = _quartercircle_400;
transform = "{-1, 0, 0, 1, 550, 0}";
}
);
layerId = "DCFDD359-D3A1-4A9B-975E-26381AFB2AA7";
paths = (
{
closed = 1;
nodes = (
"700 250 LINE",
"850 250 LINE",
"850 850 LINE",
"700 850 LINE"
);
},
{
closed = 1;
nodes = (
"450 700 LINE",
"850 700 LINE",
"850 850 LINE",
"450 850 LINE"
);
}
);
width = 975;
},
{
anchors = (
{
name = top;
position = "{825, 850}";
}
);
components = (
{
name = _quartercircle_400;
transform = "{1, 0, 0, 1, 350, 0}";
},
{
name = _quartercircle_400;
transform = "{-1, 0, 0, 1, 550, 0}";
}
);
layerId = "833FD172-3601-4257-8297-A103CE2A393F";
paths = (
{
closed = 1;
nodes = (
"800 250 LINE",
"850 250 LINE",
"850 850 LINE",
"800 850 LINE"
);
},
{
closed = 1;
nodes = (
"450 800 LINE",
"850 800 LINE",
"850 850 LINE",
"450 850 LINE"
);
}
);
width = 975;
}
);
leftKerningGroup = J;
rightKerningGroup = U;
rightMetricsKey = U;
unicode = 004A;
},
{
color = 5;
glyphname = K;
lastChange = "2017-12-08 12:02:25 +0000";
layers = (
{
anchors = (
{
name = bottom;
position = "{425, -150}";
},
{
name = top;
position = "{425, 850}";
}
);
layerId = "926D8932-2CBE-4DA1-A7EC-AA50FD678EE5";
paths = (
{
closed = 1;
nodes = (
"125 -150 LINE",
"225 -150 LINE",
"225 850 LINE",
"125 850 LINE"
);
},
{
closed = 1;
nodes = (
"675 850 LINE",
"175 385 LINE",
"175 315 LINE",
"675 -150 LINE",
"825 -150 LINE",
"280 350 LINE",
"825 850 LINE"
);
}
);
width = 825;
},
{
anchors = (
{
name = bottom;
position = "{425, -150}";
},
{
name = top;
position = "{425, 850}";
}
);
layerId = "DCFDD359-D3A1-4A9B-975E-26381AFB2AA7";
paths = (
{
closed = 1;
nodes = (
"125 -150 LINE",
"275 -150 LINE",
"275 850 LINE",
"125 850 LINE"
);
},
{
closed = 1;
nodes = (
"615 850 LINE",
"175 380 LINE",
"175 320 LINE",
"615 -150 LINE",
"825 -150 LINE",
"350 350 LINE",
"825 850 LINE"
);
}
);
width = 825;
},
{
anchors = (
{
name = bottom;
position = "{425, -150}";
},
{
name = top;
position = "{425, 850}";
}
);
layerId = "833FD172-3601-4257-8297-A103CE2A393F";
paths = (
{
closed = 1;
nodes = (
"125 -150 LINE",
"175 -150 LINE",
"175 850 LINE",
"125 850 LINE"
);
},
{
closed = 1;
nodes = (
"745 850 LINE",
"150 375 LINE",
"150 325 LINE",
"745 -150 LINE",
"825 -150 LINE",
"200 350 LINE",
"825 850 LINE"
);
}
);
width = 825;
}
);
leftKerningGroup = H;
leftMetricsKey = H;
rightKerningGroup = K;
rightMetricsKey = V;
unicode = 004B;
},
{
color = 4;
glyphname = L;
lastChange = "2017-12-09 11:34:48 +0000";
layers = (
{
anchors = (
{
name = bottom;
position = "{425, -150}";
},
{
name = center;
position = "{175, 350}";
},
{
name = top;
position = "{175, 850}";
},
{
name = topright;
position = "{725, 850}";
}
);
hints = (
{
horizontal = 1;
origin = "{0, 0}";
target = "{0, 3}";
},
{
origin = "{0, 0}";
target = "{1, 1}";
}
);
layerId = "926D8932-2CBE-4DA1-A7EC-AA50FD678EE5";
paths = (
{
closed = 1;
nodes = (
"125 -150 LINE",
"725 -150 LINE",
"725 -50 LINE",
"125 -50 LINE"
);
},
{
closed = 1;
nodes = (
"125 -150 LINE",
"225 -150 LINE",
"225 850 LINE",
"125 850 LINE"
);
}
);
width = 800;
},
{
anchors = (
{
name = bottom;
position = "{425, -150}";
},
{
name = center;
position = "{200, 350}";
},
{
name = top;
position = "{200, 850}";
},
{
name = topright;
position = "{725, 850}";
}
);
hints = (
{
horizontal = 1;
origin = "{0, 0}";
target = "{0, 3}";
},
{
origin = "{0, 0}";
target = "{1, 1}";
}
);
layerId = "DCFDD359-D3A1-4A9B-975E-26381AFB2AA7";
paths = (
{
closed = 1;
nodes = (
"125 -150 LINE",
"725 -150 LINE",
"725 0 LINE",
"125 0 LINE"
);
},
{
closed = 1;
nodes = (
"125 -150 LINE",
"275 -150 LINE",
"275 850 LINE",
"125 850 LINE"
);
}
);
width = 800;
},
{
anchors = (
{
name = bottom;
position = "{425, -150}";
},
{
name = center;
position = "{150, 350}";
},
{
name = top;
position = "{150, 850}";
},
{
name = topright;
position = "{725, 850}";
}
);
hints = (
{
horizontal = 1;
origin = "{1, 0}";
target = "{0, 3}";
},
{
origin = "{1, 0}";
target = "{1, 1}";
}
);
layerId = "833FD172-3601-4257-8297-A103CE2A393F";
paths = (
{
closed = 1;
nodes = (
"125 -150 LINE",
"725 -150 LINE",
"725 -100 LINE",
"125 -100 LINE"
);
},
{
closed = 1;
nodes = (
"125 -150 LINE",
"175 -150 LINE",
"175 850 LINE",
"125 850 LINE"
);
}
);
width = 800;
}
);
leftKerningGroup = H;
leftMetricsKey = H;
rightKerningGroup = L;
rightMetricsKey = I;
unicode = 004C;
},
{
color = 5;
glyphname = Lslash;
lastChange = "2017-12-08 11:37:30 +0000";
layers = (
{
components = (
{
name = L;
}
);
layerId = "926D8932-2CBE-4DA1-A7EC-AA50FD678EE5";
paths = (
{
closed = 1;
nodes = (
"525 620 LINE",
"-25 305 LINE",
"-25 185 LINE",
"-25 185 LINE",
"525 500 LINE"
);
}
);
width = 800;
},
{
components = (
{
name = L;
}
);
layerId = "DCFDD359-D3A1-4A9B-975E-26381AFB2AA7";
paths = (
{
closed = 1;
nodes = (
"575 680 LINE",
"-25 335 LINE",
"-25 155 LINE",
"-25 155 LINE",
"575 500 LINE"
);
}
);
width = 800;
},
{
components = (
{
name = L;
}
);
layerId = "833FD172-3601-4257-8297-A103CE2A393F";
paths = (
{
closed = 1;
nodes = (
"475 560 LINE",
"-25 275 LINE",
"-25 215 LINE",
"-25 215 LINE",
"475 500 LINE"
);
}
);
width = 800;
}
);
leftKerningGroup = H;
rightKerningGroup = L;
rightMetricsKey = L;
unicode = 0141;
},
{
color = 5;
glyphname = OE;
lastChange = "2017-12-08 11:37:30 +0000";
layers = (
{
anchors = (
{
name = bottom;
position = "{875, -150}";
},
{
name = top;
position = "{875, 850}";
},
{
name = topleft;
position = "{575, 850}";
}
);
components = (
{
name = _halfcircle_1000;
transform = "{1, 0, 0, 1, -25, 0}";
}
);
hints = (
{
horizontal = 1;
place = "{-150, 100}";
},
{
horizontal = 1;
place = "{300, 100}";
},
{
horizontal = 1;
place = "{750, 100}";
},
{
horizontal = 1;
origin = "{1, 0}";
target = "{1, 3}";
},
{
horizontal = 1;
origin = "{3, 0}";
target = "{3, 3}";
},
{
horizontal = 1;
origin = "{0, 0}";
target = "{0, 3}";
},
{
origin = "{1, 0}";
target = "{2, 1}";
}
);
layerId = "926D8932-2CBE-4DA1-A7EC-AA50FD678EE5";
paths = (
{
closed = 1;
nodes = (
"575 750 LINE",
"1075 750 LINE",
"1075 850 LINE",
"575 850 LINE"
);
},
{
closed = 1;
nodes = (
"575 -150 LINE",
"1075 -150 LINE",
"1075 -50 LINE",
"575 -50 LINE"
);
},
{
closed = 1;
nodes = (
"575 -150 LINE",
"675 -150 LINE",
"675 850 LINE",
"575 850 LINE"
);
},
{
closed = 1;
nodes = (
"575 300 LINE",
"975 300 LINE",
"975 400 LINE",
"575 400 LINE"
);
}
);
width = 1150;
},
{
anchors = (
{
name = bottom;
position = "{875, -150}";
},
{
name = top;
position = "{875, 850}";
},
{
name = topleft;
position = "{575, 850}";
}
);
components = (
{
name = _halfcircle_1000;
transform = "{1, 0, 0, 1, -25, 0}";
}
);
hints = (
{
horizontal = 1;
place = "{-150, 150}";
},
{
horizontal = 1;
place = "{275, 150}";
},
{
horizontal = 1;
place = "{700, 150}";
},
{
horizontal = 1;
origin = "{1, 0}";
target = "{1, 3}";
},
{
horizontal = 1;
origin = "{3, 0}";
target = "{3, 3}";
},
{
horizontal = 1;
origin = "{0, 0}";
target = "{0, 3}";
},
{
origin = "{1, 0}";
target = "{2, 1}";
}
);
layerId = "DCFDD359-D3A1-4A9B-975E-26381AFB2AA7";
paths = (
{
closed = 1;
nodes = (
"575 700 LINE",
"1075 700 LINE",
"1075 850 LINE",
"575 850 LINE"
);
},
{
closed = 1;
nodes = (
"575 -150 LINE",
"1075 -150 LINE",
"1075 0 LINE",
"575 0 LINE"
);
},
{
closed = 1;
nodes = (
"575 -150 LINE",
"725 -150 LINE",
"725 850 LINE",
"575 850 LINE"
);
},
{
closed = 1;
nodes = (
"575 275 LINE",
"975 275 LINE",
"975 425 LINE",
"575 425 LINE"
);
}
);
width = 1150;
},
{
anchors = (
{
name = bottom;
position = "{875, -150}";
},
{
name = top;
position = "{875, 850}";
},
{
name = topleft;
position = "{575, 850}";
}
);
components = (
{
name = _halfcircle_1000;
transform = "{1, 0, 0, 1, -25, 0}";
}
);
hints = (
{
horizontal = 1;
place = "{-150, 50}";
},
{
horizontal = 1;
place = "{325, 50}";
},
{
horizontal = 1;
place = "{800, 50}";
},
{
horizontal = 1;
origin = "{1, 0}";
target = "{1, 3}";
},
{
horizontal = 1;
origin = "{3, 0}";
target = "{3, 3}";
},
{
horizontal = 1;
origin = "{0, 0}";
target = "{0, 3}";
},
{
origin = "{1, 0}";
target = "{2, 1}";
}
);
layerId = "833FD172-3601-4257-8297-A103CE2A393F";
paths = (
{
closed = 1;
nodes = (
"575 800 LINE",
"1075 800 LINE",
"1075 850 LINE",
"575 850 LINE"
);
},
{
closed = 1;
nodes = (
"575 -150 LINE",
"1075 -150 LINE",
"1075 -100 LINE",
"575 -100 LINE"
);
},
{
closed = 1;
nodes = (
"575 -150 LINE",
"625 -150 LINE",
"625 850 LINE",
"575 850 LINE"
);
},
{
closed = 1;
nodes = (
"575 325 LINE",
"975 325 LINE",
"975 375 LINE",
"575 375 LINE"
);
}
);
width = 1150;
}
);
leftKerningGroup = O;
leftMetricsKey = O;
rightKerningGroup = I;
rightMetricsKey = I;
unicode = 0152;
},
{
color = 5;
glyphname = P;
lastChange = "2017-12-08 11:20:20 +0000";
layers = (
{
anchors = (
{
name = bottom;
position = "{175, -150}";
},
{
name = top;
position = "{375, 850}";
}
);
hints = (
{
horizontal = 1;
origin = "{2, 0}";
target = "{2, 3}";
},
{
horizontal = 1;
origin = "{1, 0}";
target = "{0, 3}";
},
{
origin = "{0, 0}";
target = "{0, 1}";
},
{
origin = "{3, 13}";
target = "{3, 6}";
}
);
layerId = "926D8932-2CBE-4DA1-A7EC-AA50FD678EE5";
paths = (
{
closed = 1;
nodes = (
"125 -150 LINE",
"225 -150 LINE",
"225 850 LINE",
"125 850 LINE"
);
},
{
closed = 1;
nodes = (
"125 750 LINE",
"455 750 LINE",
"455 850 LINE",
"125 850 LINE"
);
},
{
closed = 1;
nodes = (
"125 300 LINE",
"455 300 LINE",
"455 400 LINE",
"125 400 LINE"
);
},
{
closed = 1;
nodes = (
"625 478 OFFCURVE",
"547 400 OFFCURVE",
"455 400 CURVE",
"455 300 LINE",
"602 300 OFFCURVE",
"725 423 OFFCURVE",
"725 580 CURVE SMOOTH",
"725 727 OFFCURVE",
"602 850 OFFCURVE",
"455 850 CURVE",
"455 750 LINE",
"547 750 OFFCURVE",
"625 672 OFFCURVE",
"625 580 CURVE SMOOTH"
);
}
);
width = 800;
},
{
anchors = (
{
name = bottom;
position = "{200, -150}";
},
{
name = top;
position = "{375, 850}";
}
);
hints = (
{
horizontal = 1;
origin = "{2, 0}";
target = "{2, 3}";
},
{
horizontal = 1;
origin = "{1, 0}";
target = "{0, 3}";
},
{
origin = "{0, 0}";
target = "{0, 1}";
},
{
origin = "{3, 13}";
target = "{3, 6}";
}
);
layerId = "DCFDD359-D3A1-4A9B-975E-26381AFB2AA7";
paths = (
{
closed = 1;
nodes = (
"125 -150 LINE",
"275 -150 LINE",
"275 850 LINE",
"125 850 LINE"
);
},
{
closed = 1;
nodes = (
"125 700 LINE",
"435 700 LINE",
"435 850 LINE",
"125 850 LINE"
);
},
{
closed = 1;
nodes = (
"125 270 LINE",
"435 270 LINE",
"435 430 LINE",
"125 430 LINE"
);
},
{
closed = 1;
nodes = (
"570 490 OFFCURVE",
"510 430 OFFCURVE",
"435 430 CURVE",
"435 270 LINE",
"595 270 OFFCURVE",
"725 400 OFFCURVE",
"725 560 CURVE SMOOTH",
"725 720 OFFCURVE",
"595 850 OFFCURVE",
"435 850 CURVE",
"435 700 LINE",
"510 700 OFFCURVE",
"570 640 OFFCURVE",
"570 565 CURVE SMOOTH"
);
}
);
width = 800;
},
{
anchors = (
{
name = bottom;
position = "{150, -150}";
},
{
name = top;
position = "{375, 850}";
}
);
hints = (
{
horizontal = 1;
origin = "{3, 3}";
target = "{3, 2}";
},
{
horizontal = 1;
origin = "{1, 0}";
target = "{0, 3}";
},
{
origin = "{0, 0}";
target = "{0, 1}";
},
{
origin = "{3, 13}";
target = "{3, 6}";
}
);
layerId = "833FD172-3601-4257-8297-A103CE2A393F";
paths = (
{
closed = 1;
nodes = (
"125 -150 LINE",
"175 -150 LINE",
"175 850 LINE",
"125 850 LINE"
);
},
{
closed = 1;
nodes = (
"125 800 LINE",
"460 800 LINE",
"460 850 LINE",
"125 850 LINE"
);
},
{
closed = 1;
nodes = (
"125 325 LINE",
"460 325 LINE",
"460 375 LINE",
"125 375 LINE"
);
},
{
closed = 1;
nodes = (
"675 470 OFFCURVE",
"575 375 OFFCURVE",
"460 375 CURVE",
"460 325 LINE",
"605 325 OFFCURVE",
"725 445 OFFCURVE",
"725 590 CURVE SMOOTH",
"725 729 OFFCURVE",
"608 850 OFFCURVE",
"460 850 CURVE",
"460 800 LINE",
"580 800 OFFCURVE",
"675 707 OFFCURVE",
"675 590 CURVE SMOOTH"
);
}
);
width = 800;
}
);
leftKerningGroup = H;
leftMetricsKey = H;
rightKerningGroup = P;
rightMetricsKey = O;
unicode = 0050;
},
{
color = 4;
glyphname = Thorn;
lastChange = "2017-12-08 11:20:20 +0000";
layers = (
{
layerId = "926D8932-2CBE-4DA1-A7EC-AA50FD678EE5";
paths = (
{
closed = 1;
nodes = (
"125 -150 LINE",
"225 -150 LINE",
"225 850 LINE",
"125 850 LINE"
);
},
{
closed = 1;
nodes = (
"225 550 LINE",
"425 550 LINE",
"425 650 LINE",
"225 650 LINE"
);
},
{
closed = 1;
nodes = (
"225 50 LINE",
"425 50 LINE",
"425 150 LINE",
"225 150 LINE"
);
},
{
closed = 1;
nodes = (
"425 150 LINE",
"535 150 OFFCURVE",
"625 240 OFFCURVE",
"625 350 CURVE SMOOTH",
"625 460 OFFCURVE",
"535 550 OFFCURVE",
"425 550 CURVE",
"425 650 LINE",
"592 650 OFFCURVE",
"725 516 OFFCURVE",
"725 350 CURVE SMOOTH",
"725 184 OFFCURVE",
"591 50 OFFCURVE",
"425 50 CURVE"
);
}
);
width = 800;
},
{
layerId = "DCFDD359-D3A1-4A9B-975E-26381AFB2AA7";
paths = (
{
closed = 1;
nodes = (
"125 -150 LINE",
"275 -150 LINE",
"275 850 LINE",
"125 850 LINE"
);
},
{
closed = 1;
nodes = (
"275 500 LINE",
"425 500 LINE",
"425 650 LINE",
"275 650 LINE"
);
},
{
closed = 1;
nodes = (
"275 50 LINE",
"425 50 LINE",
"425 200 LINE",
"275 200 LINE"
);
},
{
closed = 1;
nodes = (
"425 200 LINE",
"510 200 OFFCURVE",
"575 265 OFFCURVE",
"575 350 CURVE SMOOTH",
"575 435 OFFCURVE",
"510 500 OFFCURVE",
"425 500 CURVE",
"425 650 LINE",
"590 650 OFFCURVE",
"725 515 OFFCURVE",
"725 350 CURVE SMOOTH",
"725 185 OFFCURVE",
"590 50 OFFCURVE",
"425 50 CURVE"
);
}
);
width = 800;
},
{
layerId = "833FD172-3601-4257-8297-A103CE2A393F";
paths = (
{
closed = 1;
nodes = (
"125 -150 LINE",
"175 -150 LINE",
"175 850 LINE",
"125 850 LINE"
);
},
{
closed = 1;
nodes = (
"175 600 LINE",
"425 600 LINE",
"425 650 LINE",
"175 650 LINE"
);
},
{
closed = 1;
nodes = (
"175 50 LINE",
"425 50 LINE",
"425 100 LINE",
"175 100 LINE"
);
},
{
closed = 1;
nodes = (
"425 100 LINE",
"555 100 OFFCURVE",
"675 215 OFFCURVE",
"675 350 CURVE SMOOTH",
"675 485 OFFCURVE",
"556 600 OFFCURVE",
"425 600 CURVE",
"425 650 LINE",
"592 650 OFFCURVE",
"725 516 OFFCURVE",
"725 350 CURVE SMOOTH",
"725 184 OFFCURVE",
"591 50 OFFCURVE",
"425 50 CURVE"
);
}
);
width = 800;
}
);
leftKerningGroup = H;
leftMetricsKey = H;
rightKerningGroup = o;
rightMetricsKey = o;
unicode = 00DE;
},
{
color = 5;
glyphname = Q;
lastChange = "2017-12-08 11:32:02 +0000";
layers = (
{
components = (
{
name = O;
}
);
layerId = "926D8932-2CBE-4DA1-A7EC-AA50FD678EE5";
paths = (
{
closed = 1;
nodes = (
"1005 -250 LINE",
"745 200 LINE",
"625 200 LINE",
"885 -250 LINE"
);
}
);
width = 1150;
},
{
components = (
{
name = O;
}
);
layerId = "DCFDD359-D3A1-4A9B-975E-26381AFB2AA7";
paths = (
{
closed = 1;
nodes = (
"1035 -250 LINE",
"775 200 LINE",
"600 200 LINE",
"860 -250 LINE"
);
}
);
width = 1150;
},
{
components = (
{
name = O;
}
);
layerId = "833FD172-3601-4257-8297-A103CE2A393F";
paths = (
{
closed = 1;
nodes = (
"975 -250 LINE",
"715 200 LINE",
"660 200 LINE",
"920 -250 LINE"
);
}
);
width = 1150;
}
);
leftKerningGroup = O;
leftMetricsKey = O;
rightKerningGroup = Q;
rightMetricsKey = O;
unicode = 0051;
},
{
color = 5;
glyphname = R;
lastChange = "2017-12-08 19:17:25 +0000";
layers = (
{
anchors = (
{
name = bottom;
position = "{400, -150}";
},
{
name = top;
position = "{350, 850}";
}
);
components = (
{
name = P;
}
);
layerId = "926D8932-2CBE-4DA1-A7EC-AA50FD678EE5";
paths = (
{
closed = 1;
nodes = (
"750 -150 LINE",
"430 400 LINE",
"310 400 LINE",
"630 -150 LINE"
);
}
);
width = 800;
},
{
anchors = (
{
name = bottom;
position = "{400, -150}";
},
{
name = top;
position = "{350, 850}";
}
);
components = (
{
name = P;
}
);
layerId = "DCFDD359-D3A1-4A9B-975E-26381AFB2AA7";
paths = (
{
closed = 1;
nodes = (
"800 -150 LINE",
"480 400 LINE",
"300 400 LINE",
"620 -150 LINE"
);
}
);
width = 800;
},
{
anchors = (
{
name = bottom;
position = "{400, -150}";
},
{
name = top;
position = "{350, 850}";
}
);
components = (
{
name = P;
}
);
layerId = "833FD172-3601-4257-8297-A103CE2A393F";
paths = (
{
closed = 1;
nodes = (
"750 -150 LINE",
"460 350 LINE",
"400 350 LINE",
"690 -150 LINE"
);
}
);
width = 800;
}
);
leftKerningGroup = H;
leftMetricsKey = H;
rightKerningGroup = R;
unicode = 0052;
},
{
color = 5;
glyphname = S;
lastChange = "2017-12-08 11:38:38 +0000";
layers = (
{
anchors = (
{
name = bottom;
position = "{400, -150}";
},
{
name = top;
position = "{400, 850}";
}
);
hints = (
{
horizontal = 1;
origin = "{0, 25}";
target = "{0, 18}";
},
{
horizontal = 1;
origin = "{0, 10}";
target = "{0, 33}";
},
{
horizontal = 1;
origin = "{0, 39}";
target = "{0, 4}";
},
{
origin = "{0, 22}";
target = "{0, 21}";
},
{
origin = "{0, 14}";
target = "{0, 29}";
}
);
layerId = "926D8932-2CBE-4DA1-A7EC-AA50FD678EE5";
paths = (
{
closed = 1;
nodes = (
"700 600 LINE",
"685 740 OFFCURVE",
"565 850 OFFCURVE",
"425 850 CURVE SMOOTH",
"375 850 LINE SMOOTH",
"225 850 OFFCURVE",
"100 725 OFFCURVE",
"100 575 CURVE SMOOTH",
"100 425 OFFCURVE",
"225 300 OFFCURVE",
"375 300 CURVE SMOOTH",
"425 300 LINE SMOOTH",
"520 300 OFFCURVE",
"600 220 OFFCURVE",
"600 125 CURVE SMOOTH",
"600 30 OFFCURVE",
"520 -50 OFFCURVE",
"425 -50 CURVE SMOOTH",
"375 -50 LINE SMOOTH",
"290 -50 OFFCURVE",
"215 15 OFFCURVE",
"200 100 CURVE",
"100 100 LINE",
"115 -40 OFFCURVE",
"235 -150 OFFCURVE",
"375 -150 CURVE SMOOTH",
"425 -150 LINE SMOOTH",
"575 -150 OFFCURVE",
"700 -25 OFFCURVE",
"700 125 CURVE SMOOTH",
"700 275 OFFCURVE",
"575 400 OFFCURVE",
"425 400 CURVE SMOOTH",
"375 400 LINE SMOOTH",
"280 400 OFFCURVE",
"200 480 OFFCURVE",
"200 575 CURVE SMOOTH",
"200 670 OFFCURVE",
"280 750 OFFCURVE",
"375 750 CURVE SMOOTH",
"425 750 LINE SMOOTH",
"510 750 OFFCURVE",
"585 685 OFFCURVE",
"600 600 CURVE"
);
}
);
width = 800;
},
{
anchors = (
{
name = bottom;
position = "{400, -150}";
},
{
name = top;
position = "{400, 850}";
}
);
hints = (
{
horizontal = 1;
origin = "{0, 25}";
target = "{0, 18}";
},
{
horizontal = 1;
origin = "{0, 10}";
target = "{0, 33}";
},
{
horizontal = 1;
origin = "{0, 39}";
target = "{0, 4}";
},
{
origin = "{0, 7}";
target = "{0, 36}";
},
{
origin = "{0, 14}";
target = "{0, 29}";
}
);
layerId = "DCFDD359-D3A1-4A9B-975E-26381AFB2AA7";
paths = (
{
closed = 1;
nodes = (
"700 600 LINE",
"680 740 OFFCURVE",
"560 850 OFFCURVE",
"410 850 CURVE SMOOTH",
"390 850 LINE SMOOTH",
"230 850 OFFCURVE",
"100 720 OFFCURVE",
"100 565 CURVE SMOOTH",
"100 405 OFFCURVE",
"230 275 OFFCURVE",
"390 275 CURVE SMOOTH",
"410 275 LINE SMOOTH",
"490 275 OFFCURVE",
"550 215 OFFCURVE",
"550 140 CURVE SMOOTH",
"550 60 OFFCURVE",
"490 0 OFFCURVE",
"410 0 CURVE SMOOTH",
"390 0 LINE SMOOTH",
"325 0 OFFCURVE",
"270 40 OFFCURVE",
"255 100 CURVE",
"105 100 LINE",
"120 -40 OFFCURVE",
"245 -150 OFFCURVE",
"390 -150 CURVE SMOOTH",
"410 -150 LINE SMOOTH",
"570 -150 OFFCURVE",
"700 -20 OFFCURVE",
"700 140 CURVE SMOOTH",
"700 295 OFFCURVE",
"570 425 OFFCURVE",
"410 425 CURVE SMOOTH",
"390 425 LINE SMOOTH",
"310 425 OFFCURVE",
"250 485 OFFCURVE",
"250 565 CURVE SMOOTH",
"250 640 OFFCURVE",
"310 700 OFFCURVE",
"390 700 CURVE SMOOTH",
"410 700 LINE SMOOTH",
"475 700 OFFCURVE",
"530 660 OFFCURVE",
"545 600 CURVE"
);
}
);
width = 800;
},
{
anchors = (
{
name = bottom;
position = "{400, -150}";
},
{
name = top;
position = "{400, 850}";
}
);
hints = (
{
horizontal = 1;
origin = "{0, 25}";
target = "{0, 18}";
},
{
horizontal = 1;
origin = "{0, 10}";
target = "{0, 33}";
},
{
horizontal = 1;
origin = "{0, 39}";
target = "{0, 4}";
},
{
origin = "{0, 22}";
target = "{0, 21}";
},
{
origin = "{0, 14}";
target = "{0, 29}";
}
);
layerId = "833FD172-3601-4257-8297-A103CE2A393F";
paths = (
{
closed = 1;
nodes = (
"700 600 LINE",
"695 735 OFFCURVE",
"575 850 OFFCURVE",
"435 850 CURVE SMOOTH",
"365 850 LINE SMOOTH",
"220 850 OFFCURVE",
"100 730 OFFCURVE",
"100 590 CURVE SMOOTH",
"100 445 OFFCURVE",
"220 325 OFFCURVE",
"365 325 CURVE SMOOTH",
"435 325 LINE SMOOTH",
"555 325 OFFCURVE",
"650 230 OFFCURVE",
"650 115 CURVE SMOOTH",
"650 -5 OFFCURVE",
"555 -100 OFFCURVE",
"435 -100 CURVE SMOOTH",
"365 -100 LINE SMOOTH",
"250 -100 OFFCURVE",
"160 -15 OFFCURVE",
"150 100 CURVE",
"100 100 LINE",
"110 -40 OFFCURVE",
"225 -150 OFFCURVE",
"365 -150 CURVE SMOOTH",
"435 -150 LINE SMOOTH",
"580 -150 OFFCURVE",
"700 -30 OFFCURVE",
"700 115 CURVE SMOOTH",
"700 255 OFFCURVE",
"580 375 OFFCURVE",
"435 375 CURVE SMOOTH",
"365 375 LINE SMOOTH",
"245 375 OFFCURVE",
"150 470 OFFCURVE",
"150 590 CURVE SMOOTH",
"150 705 OFFCURVE",
"245 800 OFFCURVE",
"365 800 CURVE SMOOTH",
"435 800 LINE SMOOTH",
"550 800 OFFCURVE",
"645 710 OFFCURVE",
"650 600 CURVE"
);
}
);
width = 800;
}
);
leftKerningGroup = S;
rightKerningGroup = S;
unicode = 0053;
},
{
color = 5;
glyphname = T;
lastChange = "2017-12-08 11:37:30 +0000";
layers = (
{
anchors = (
{
name = bottom;
position = "{375, -150}";
},
{
name = center;
position = "{375, 350}";
},
{
name = top;
position = "{375, 850}";
}
);
hints = (
{
horizontal = 1;
origin = "{1, 0}";
target = "{1, 3}";
},
{
origin = "{0, 0}";
target = "{0, 1}";
}
);
layerId = "926D8932-2CBE-4DA1-A7EC-AA50FD678EE5";
paths = (
{
closed = 1;
nodes = (
"325 -150 LINE",
"425 -150 LINE",
"425 850 LINE",
"325 850 LINE"
);
},
{
closed = 1;
nodes = (
"75 750 LINE",
"675 750 LINE",
"675 850 LINE",
"75 850 LINE"
);
}
);
width = 750;
},
{
anchors = (
{
name = bottom;
position = "{375, -150}";
},
{
name = center;
position = "{375, 350}";
},
{
name = top;
position = "{375, 850}";
}
);
hints = (
{
horizontal = 1;
origin = "{1, 0}";
target = "{1, 3}";
},
{
origin = "{0, 0}";
target = "{0, 1}";
}
);
layerId = "DCFDD359-D3A1-4A9B-975E-26381AFB2AA7";
paths = (
{
closed = 1;
nodes = (
"300 -150 LINE",
"450 -150 LINE",
"450 850 LINE",
"300 850 LINE"
);
},
{
closed = 1;
nodes = (
"75 700 LINE",
"675 700 LINE",
"675 850 LINE",
"75 850 LINE"
);
}
);
width = 750;
},
{
anchors = (
{
name = bottom;
position = "{375, -150}";
},
{
name = center;
position = "{375, 350}";
},
{
name = top;
position = "{375, 850}";
}
);
hints = (
{
horizontal = 1;
origin = "{1, 0}";
target = "{1, 3}";
},
{
origin = "{0, 0}";
target = "{0, 1}";
}
);
layerId = "833FD172-3601-4257-8297-A103CE2A393F";
paths = (
{
closed = 1;
nodes = (
"350 -150 LINE",
"400 -150 LINE",
"400 850 LINE",
"350 850 LINE"
);
},
{
closed = 1;
nodes = (
"75 800 LINE",
"675 800 LINE",
"675 850 LINE",
"75 850 LINE"
);
}
);
width = 750;
}
);
leftKerningGroup = T;
leftMetricsKey = I;
rightKerningGroup = T;
rightMetricsKey = I;
unicode = 0054;
},
{
color = 5;
glyphname = U;
lastChange = "2017-12-08 18:36:12 +0000";
layers = (
{
anchors = (
{
name = bottom;
position = "{525, -150}";
},
{
name = ogonek;
position = "{525, -150}";
},
{
name = top;
position = "{525, 850}";
},
{
name = topright;
position = "{875, 850}";
}
);
components = (
{
name = _halfcircle_800;
transform = "{1, 0, 0, 1, 25, 0}";
}
);
layerId = "926D8932-2CBE-4DA1-A7EC-AA50FD678EE5";
paths = (
{
closed = 1;
nodes = (
"125 250 LINE",
"225 250 LINE",
"225 850 LINE",
"125 850 LINE"
);
},
{
closed = 1;
nodes = (
"825 250 LINE",
"925 250 LINE",
"925 850 LINE",
"825 850 LINE"
);
}
);
width = 1050;
},
{
anchors = (
{
name = bottom;
position = "{525, -150}";
},
{
name = ogonek;
position = "{525, -150}";
},
{
name = top;
position = "{525, 850}";
},
{
name = topright;
position = "{850, 850}";
}
);
components = (
{
name = _halfcircle_800;
transform = "{1, 0, 0, 1, 25, 0}";
}
);
layerId = "DCFDD359-D3A1-4A9B-975E-26381AFB2AA7";
paths = (
{
closed = 1;
nodes = (
"125 250 LINE",
"275 250 LINE",
"275 850 LINE",
"125 850 LINE"
);
},
{
closed = 1;
nodes = (
"775 250 LINE",
"925 250 LINE",
"925 850 LINE",
"775 850 LINE"
);
}
);
width = 1050;
},
{
anchors = (
{
name = bottom;
position = "{525, -150}";
},
{
name = ogonek;
position = "{525, -150}";
},
{
name = top;
position = "{525, 850}";
},
{
name = topright;
position = "{900, 850}";
}
);
components = (
{
name = _halfcircle_800;
transform = "{1, 0, 0, 1, 25, 0}";
}
);
layerId = "833FD172-3601-4257-8297-A103CE2A393F";
paths = (
{
closed = 1;
nodes = (
"125 250 LINE",
"175 250 LINE",
"175 850 LINE",
"125 850 LINE"
);
},
{
closed = 1;
nodes = (
"875 250 LINE",
"925 250 LINE",
"925 850 LINE",
"875 850 LINE"
);
}
);
width = 1050;
}
);
leftKerningGroup = U;
leftMetricsKey = H;
rightKerningGroup = U;
rightMetricsKey = H;
unicode = 0055;
},
{
color = 5;
glyphname = V;
lastChange = "2017-12-08 19:25:37 +0000";
layers = (
{
anchors = (
{
name = bottom;
position = "{450, -150}";
},
{
name = top;
position = "{450, 850}";
}
);
layerId = "926D8932-2CBE-4DA1-A7EC-AA50FD678EE5";
paths = (
{
closed = 1;
nodes = (
"425 -150 LINE",
"475 -150 LINE",
"900 850 LINE",
"790 850 LINE",
"450 50 LINE",
"110 850 LINE",
"0 850 LINE"
);
}
);
width = 900;
},
{
anchors = (
{
name = bottom;
position = "{450, -150}";
},
{
name = top;
position = "{450, 850}";
}
);
layerId = "DCFDD359-D3A1-4A9B-975E-26381AFB2AA7";
paths = (
{
closed = 1;
nodes = (
"425 -150 LINE",
"475 -150 LINE",
"900 850 LINE",
"740 850 LINE",
"450 170 LINE",
"160 850 LINE",
"0 850 LINE"
);
}
);
width = 900;
},
{
anchors = (
{
name = bottom;
position = "{450, -150}";
},
{
name = top;
position = "{450, 850}";
}
);
layerId = "833FD172-3601-4257-8297-A103CE2A393F";
paths = (
{
closed = 1;
nodes = (
"425 -150 LINE",
"475 -150 LINE",
"900 850 LINE",
"845 850 LINE",
"450 -80 LINE",
"55 850 LINE",
"0 850 LINE"
);
}
);
width = 900;
}
);
leftKerningGroup = V;
rightKerningGroup = V;
unicode = 0056;
},
{
color = 5;
glyphname = W;
lastChange = "2017-12-08 12:02:25 +0000";
layers = (
{
anchors = (
{
name = bottom;
position = "{625, -150}";
},
{
name = top;
position = "{625, 850}";
}
);
layerId = "926D8932-2CBE-4DA1-A7EC-AA50FD678EE5";
paths = (
{
closed = 1;
nodes = (
"325 -150 LINE",
"375 -150 LINE",
"625 620 LINE",
"875 -150 LINE",
"925 -150 LINE",
"1250 850 LINE",
"1150 850 LINE",
"900 80 LINE",
"650 850 LINE",
"600 850 LINE",
"350 80 LINE",
"100 850 LINE",
"0 850 LINE"
);
}
);
width = 1250;
},
{
anchors = (
{
name = bottom;
position = "{625, -150}";
},
{
name = top;
position = "{625, 850}";
}
);
layerId = "DCFDD359-D3A1-4A9B-975E-26381AFB2AA7";
paths = (
{
closed = 1;
nodes = (
"325 -150 LINE",
"375 -150 LINE",
"625 500 LINE",
"875 -150 LINE",
"925 -150 LINE",
"1250 850 LINE",
"1090 850 LINE",
"890 230 LINE",
"650 850 LINE",
"600 850 LINE",
"360 230 LINE",
"160 850 LINE",
"0 850 LINE"
);
}
);
width = 1250;
},
{
anchors = (
{
name = bottom;
position = "{625, -150}";
},
{
name = top;
position = "{625, 850}";
}
);
layerId = "833FD172-3601-4257-8297-A103CE2A393F";
paths = (
{
closed = 1;
nodes = (
"325 -150 LINE",
"375 -150 LINE",
"625 745 LINE",
"875 -150 LINE",
"925 -150 LINE",
"1250 850 LINE",
"1195 850 LINE",
"900 -50 LINE",
"650 850 LINE",
"600 850 LINE",
"350 -50 LINE",
"55 850 LINE",
"0 850 LINE"
);
}
);
width = 1250;
}
);
leftKerningGroup = V;
leftMetricsKey = V;
rightKerningGroup = V;
rightMetricsKey = V;
unicode = 0057;
},
{
color = 5;
glyphname = X;
lastChange = "2017-12-08 12:02:25 +0000";
layers = (
{
anchors = (
{
name = bottom;
position = "{400, -150}";
},
{
name = top;
position = "{400, 850}";
}
);
layerId = "926D8932-2CBE-4DA1-A7EC-AA50FD678EE5";
paths = (
{
closed = 1;
nodes = (
"120 -150 LINE",
"400 260 LINE",
"680 -150 LINE",
"800 -150 LINE",
"460 350 LINE",
"800 850 LINE",
"680 850 LINE",
"400 440 LINE",
"120 850 LINE",
"0 850 LINE",
"340 350 LINE",
"0 -150 LINE"
);
}
);
width = 800;
},
{
anchors = (
{
name = bottom;
position = "{400, -150}";
},
{
name = top;
position = "{400, 850}";
}
);
layerId = "DCFDD359-D3A1-4A9B-975E-26381AFB2AA7";
paths = (
{
closed = 1;
nodes = (
"175 -150 LINE",
"400 210 LINE",
"625 -150 LINE",
"800 -150 LINE",
"490 350 LINE",
"800 850 LINE",
"620 850 LINE",
"400 495 LINE",
"180 850 LINE",
"0 850 LINE",
"310 350 LINE",
"0 -150 LINE"
);
}
);
width = 800;
},
{
anchors = (
{
name = bottom;
position = "{400, -150}";
},
{
name = top;
position = "{400, 850}";
}
);
layerId = "833FD172-3601-4257-8297-A103CE2A393F";
paths = (
{
closed = 1;
nodes = (
"60 -150 LINE",
"400 310 LINE",
"740 -150 LINE",
"800 -150 LINE",
"430 350 LINE",
"800 850 LINE",
"740 850 LINE",
"400 390 LINE",
"60 850 LINE",
"0 850 LINE",
"370 350 LINE",
"0 -150 LINE"
);
}
);
width = 800;
}
);
leftKerningGroup = X;
leftMetricsKey = V;
rightKerningGroup = X;
rightMetricsKey = V;
unicode = 0058;
},
{
color = 5;
glyphname = Y;
lastChange = "2017-12-08 12:02:25 +0000";
layers = (
{
anchors = (
{
name = bottom;
position = "{400, -150}";
},
{
name = top;
position = "{400, 850}";
}
);
layerId = "926D8932-2CBE-4DA1-A7EC-AA50FD678EE5";
paths = (
{
closed = 1;
nodes = (
"0 850 LINE",
"350 335 LINE",
"350 -150 LINE",
"450 -150 LINE",
"450 335 LINE",
"800 850 LINE",
"680 850 LINE",
"400 440 LINE",
"120 850 LINE"
);
}
);
width = 800;
},
{
anchors = (
{
name = bottom;
position = "{400, -150}";
},
{
name = top;
position = "{400, 850}";
}
);
layerId = "DCFDD359-D3A1-4A9B-975E-26381AFB2AA7";
paths = (
{
closed = 1;
nodes = (
"0 850 LINE",
"325 330 LINE",
"325 -150 LINE",
"475 -150 LINE",
"475 330 LINE",
"800 850 LINE",
"620 850 LINE",
"400 495 LINE",
"180 850 LINE"
);
}
);
width = 800;
},
{
anchors = (
{
name = bottom;
position = "{400, -150}";
},
{
name = top;
position = "{400, 850}";
}
);
layerId = "833FD172-3601-4257-8297-A103CE2A393F";
paths = (
{
closed = 1;
nodes = (
"0 850 LINE",
"375 345 LINE",
"375 -150 LINE",
"425 -150 LINE",
"425 345 LINE",
"800 850 LINE",
"740 850 LINE",
"400 390 LINE",
"60 850 LINE"
);
}
);
width = 800;
}
);
leftKerningGroup = Y;
leftMetricsKey = V;
rightKerningGroup = Y;
rightMetricsKey = V;
unicode = 0059;
},
{
color = 4;
glyphname = Z;
lastChange = "2017-12-09 10:03:28 +0000";
layers = (
{
anchors = (
{
name = bottom;
position = "{425, -150}";
},
{
name = top;
position = "{425, 850}";
}
);
layerId = "926D8932-2CBE-4DA1-A7EC-AA50FD678EE5";
paths = (
{
closed = 1;
nodes = (
"75 750 LINE",
"675 750 LINE",
"675 850 LINE",
"75 850 LINE"
);
},
{
closed = 1;
nodes = (
"175 -150 LINE",
"775 -150 LINE",
"775 -50 LINE",
"175 -50 LINE"
);
},
{
closed = 1;
nodes = (
"190 -150 LINE",
"775 850 LINE",
"660 850 LINE",
"75 -150 LINE"
);
}
);
width = 850;
},
{
anchors = (
{
name = bottom;
position = "{425, -150}";
},
{
name = top;
position = "{425, 850}";
}
);
layerId = "DCFDD359-D3A1-4A9B-975E-26381AFB2AA7";
paths = (
{
closed = 1;
nodes = (
"75 700 LINE",
"625 700 LINE",
"625 850 LINE",
"75 850 LINE"
);
},
{
closed = 1;
nodes = (
"225 -150 LINE",
"775 -150 LINE",
"775 0 LINE",
"225 0 LINE"
);
},
{
closed = 1;
nodes = (
"240 -150 LINE",
"775 850 LINE",
"605 850 LINE",
"75 -150 LINE"
);
}
);
width = 850;
},
{
anchors = (
{
name = bottom;
position = "{425, -150}";
},
{
name = top;
position = "{425, 850}";
}
);
layerId = "833FD172-3601-4257-8297-A103CE2A393F";
paths = (
{
closed = 1;
nodes = (
"75 800 LINE",
"725 800 LINE",
"725 850 LINE",
"75 850 LINE"
);
},
{
closed = 1;
nodes = (
"125 -150 LINE",
"775 -150 LINE",
"775 -100 LINE",
"125 -100 LINE"
);
},
{
closed = 1;
nodes = (
"130 -150 LINE",
"775 850 LINE",
"720 850 LINE",
"75 -150 LINE"
);
}
);
width = 850;
}
);
leftKerningGroup = Z;
leftMetricsKey = I;
rightKerningGroup = Z;
rightMetricsKey = I;
unicode = 005A;
},
{
color = 3;
export = 0;
glyphname = Astroke;
lastChange = "2017-11-26 16:32:56 +0000";
layers = (
{
components = (
{
name = A;
}
);
layerId = "833FD172-3601-4257-8297-A103CE2A393F";
paths = (
{
closed = 1;
nodes = (
"100 -300 LINE",
"160 -300 LINE",
"900 1000 LINE",
"840 1000 LINE"
);
}
);
width = 1000;
},
{
components = (
{
name = A;
}
);
layerId = "926D8932-2CBE-4DA1-A7EC-AA50FD678EE5";
paths = (
{
closed = 1;
nodes = (
"100 -300 LINE",
"220 -300 LINE",
"900 1000 LINE",
"780 1000 LINE"
);
}
);
width = 1000;
},
{
components = (
{
name = A;
}
);
layerId = "DCFDD359-D3A1-4A9B-975E-26381AFB2AA7";
paths = (
{
closed = 1;
nodes = (
"100 -300 LINE",
"280 -300 LINE",
"900 1000 LINE",
"720 1000 LINE"
);
}
);
width = 1000;
}
);
unicode = 023A;
},
{
color = 4;
export = 0;
glyphname = Btopbar;
lastChange = "2017-12-08 11:39:41 +0000";
layers = (
{
hints = (
{
horizontal = 1;
origin = "{2, 2}";
target = "{3, 3}";
},
{
horizontal = 1;
origin = "{1, 3}";
target = "{1, 2}";
},
{
horizontal = 1;
place = "{800, 50}";
},
{
origin = "{2, 2}";
target = "{2, 3}";
},
{
origin = "{0, 6}";
target = "{0, 13}";
},
{
place = "{700, 0}";
}
);
layerId = "833FD172-3601-4257-8297-A103CE2A393F";
paths = (
{
closed = 1;
nodes = (
"775 275 OFFCURVE",
"650 400 OFFCURVE",
"500 400 CURVE",
"500 350 LINE",
"625 350 OFFCURVE",
"725 250 OFFCURVE",
"725 125 CURVE SMOOTH",
"725 0 OFFCURVE",
"625 -100 OFFCURVE",
"500 -100 CURVE",
"500 -150 LINE",
"650 -150 OFFCURVE",
"775 -25 OFFCURVE",
"775 125 CURVE SMOOTH"
);
},
{
closed = 1;
nodes = (
"500 350 LINE",
"500 400 LINE",
"125 400 LINE",
"125 350 LINE"
);
},
{
closed = 1;
nodes = (
"175 850 LINE",
"125 850 LINE",
"125 -150 LINE",
"175 -150 LINE"
);
},
{
closed = 1;
nodes = (
"125 -150 LINE",
"500 -150 LINE",
"500 -100 LINE",
"125 -100 LINE"
);
},
{
closed = 1;
nodes = (
"675 800 LINE",
"675 850 LINE",
"125 850 LINE",
"125 800 LINE"
);
}
);
width = 850;
},
{
hints = (
{
horizontal = 1;
place = "{-150, 100}";
},
{
horizontal = 1;
place = "{300, 100}";
},
{
horizontal = 1;
place = "{750, 100}";
},
{
place = "{100, 100}";
},
{
place = "{600, 100}";
},
{
place = "{600, 0}";
}
);
layerId = "926D8932-2CBE-4DA1-A7EC-AA50FD678EE5";
paths = (
{
closed = 1;
nodes = (
"775 275 OFFCURVE",
"650 400 OFFCURVE",
"505 400 CURVE",
"505 300 LINE",
"595 300 OFFCURVE",
"675 220 OFFCURVE",
"675 130 CURVE SMOOTH",
"675 30 OFFCURVE",
"595 -50 OFFCURVE",
"505 -50 CURVE",
"505 -150 LINE",
"650 -150 OFFCURVE",
"775 -25 OFFCURVE",
"775 130 CURVE SMOOTH"
);
},
{
closed = 1;
nodes = (
"505 300 LINE",
"505 400 LINE",
"125 400 LINE",
"125 300 LINE"
);
},
{
closed = 1;
nodes = (
"225 850 LINE",
"125 850 LINE",
"125 -150 LINE",
"225 -150 LINE"
);
},
{
closed = 1;
nodes = (
"125 -150 LINE",
"505 -150 LINE",
"505 -50 LINE",
"125 -50 LINE"
);
},
{
closed = 1;
nodes = (
"675 750 LINE",
"675 850 LINE",
"125 850 LINE",
"125 750 LINE"
);
}
);
width = 850;
},
{
hints = (
{
horizontal = 1;
origin = "{2, 2}";
target = "{3, 3}";
},
{
horizontal = 1;
origin = "{1, 3}";
target = "{1, 2}";
},
{
horizontal = 1;
place = "{700, 150}";
},
{
origin = "{2, 2}";
target = "{2, 3}";
},
{
origin = "{0, 6}";
target = "{0, 13}";
},
{
origin = "{0, 6}";
target = "{0, 13}";
}
);
layerId = "DCFDD359-D3A1-4A9B-975E-26381AFB2AA7";
paths = (
{
closed = 1;
nodes = (
"775 300 OFFCURVE",
"645 430 OFFCURVE",
"485 430 CURVE",
"485 270 LINE",
"560 270 OFFCURVE",
"620 210 OFFCURVE",
"620 135 CURVE SMOOTH",
"620 60 OFFCURVE",
"560 0 OFFCURVE",
"485 0 CURVE",
"485 -150 LINE",
"645 -150 OFFCURVE",
"775 -20 OFFCURVE",
"775 140 CURVE SMOOTH"
);
},
{
closed = 1;
nodes = (
"485 270 LINE",
"485 430 LINE",
"125 430 LINE",
"125 270 LINE"
);
},
{
closed = 1;
nodes = (
"275 850 LINE",
"125 850 LINE",
"125 -150 LINE",
"275 -150 LINE"
);
},
{
closed = 1;
nodes = (
"125 -150 LINE",
"485 -150 LINE",
"485 0 LINE",
"125 0 LINE"
);
},
{
closed = 1;
nodes = (
"675 700 LINE",
"675 850 LINE",
"125 850 LINE",
"125 700 LINE"
);
}
);
width = 850;
}
);
leftMetricsKey = B;
rightMetricsKey = B;
unicode = 0182;
},
{
color = 5;
export = 0;
glyphname = Chook;
lastChange = "2017-11-26 16:32:56 +0000";
layers = (
{
components = (
{
name = C;
}
);
layerId = "833FD172-3601-4257-8297-A103CE2A393F";
paths = (
{
closed = 1;
nodes = (
"950 700 LINE",
"950 840 OFFCURVE",
"1038 950 OFFCURVE",
"1150 950 CURVE",
"1150 1000 LINE",
"1010 1000 OFFCURVE",
"900 868 OFFCURVE",
"900 700 CURVE"
);
}
);
width = 1050;
},
{
components = (
{
name = C;
}
);
layerId = "926D8932-2CBE-4DA1-A7EC-AA50FD678EE5";
paths = (
{
closed = 1;
nodes = (
"950 700 LINE",
"950 810 OFFCURVE",
"1040 900 OFFCURVE",
"1150 900 CURVE",
"1150 1000 LINE",
"985 1000 OFFCURVE",
"850 865 OFFCURVE",
"850 700 CURVE"
);
}
);
width = 1050;
},
{
components = (
{
name = C;
}
);
layerId = "DCFDD359-D3A1-4A9B-975E-26381AFB2AA7";
paths = (
{
closed = 1;
nodes = (
"950 700 LINE",
"950 784 OFFCURVE",
"1038 850 OFFCURVE",
"1150 850 CURVE",
"1150 1000 LINE",
"954 1000 OFFCURVE",
"800 868 OFFCURVE",
"800 700 CURVE"
);
}
);
width = 1050;
}
);
unicode = 0187;
},
{
color = 4;
export = 0;
glyphname = Cstroke;
lastChange = "2017-11-26 16:32:56 +0000";
layers = (
{
components = (
{
name = C;
}
);
layerId = "833FD172-3601-4257-8297-A103CE2A393F";
paths = (
{
closed = 1;
nodes = (
"100 -300 LINE",
"160 -300 LINE",
"950 1000 LINE",
"890 1000 LINE"
);
}
);
width = 1050;
},
{
components = (
{
name = C;
}
);
layerId = "926D8932-2CBE-4DA1-A7EC-AA50FD678EE5";
paths = (
{
closed = 1;
nodes = (
"100 -300 LINE",
"220 -300 LINE",
"950 1000 LINE",
"830 1000 LINE"
);
}
);
width = 1050;
},
{
components = (
{
name = C;
}
);
layerId = "DCFDD359-D3A1-4A9B-975E-26381AFB2AA7";
paths = (
{
closed = 1;
nodes = (
"100 -300 LINE",
"280 -300 LINE",
"950 1000 LINE",
"770 1000 LINE"
);
}
);
width = 1050;
}
);
unicode = 023B;
},
{
color = 3;
export = 0;
glyphname = Estroke;
lastChange = "2017-11-26 16:32:56 +0000";
layers = (
{
components = (
{
name = E;
}
);
layerId = "833FD172-3601-4257-8297-A103CE2A393F";
paths = (
{
closed = 1;
nodes = (
"100 -300 LINE",
"160 -300 LINE",
"700 1000 LINE",
"640 1000 LINE"
);
}
);
width = 800;
},
{
components = (
{
name = E;
}
);
layerId = "926D8932-2CBE-4DA1-A7EC-AA50FD678EE5";
paths = (
{
closed = 1;
nodes = (
"100 -300 LINE",
"220 -300 LINE",
"700 1000 LINE",
"580 1000 LINE"
);
}
);
width = 800;
},
{
components = (
{
name = E;
}
);
layerId = "DCFDD359-D3A1-4A9B-975E-26381AFB2AA7";
paths = (
{
closed = 1;
nodes = (
"100 -300 LINE",
"280 -300 LINE",
"700 1000 LINE",
"520 1000 LINE"
);
}
);
width = 800;
}
);
unicode = 0246;
},
{
color = 4;
export = 0;
glyphname = Ezh;
lastChange = "2017-12-08 11:39:41 +0000";
layers = (
{
anchors = (
{
name = top;
position = "{425, 850}";
}
);
layerId = "833FD172-3601-4257-8297-A103CE2A393F";
paths = (
{
closed = 1;
nodes = (
"375 375 LINE",
"425 375 LINE",
"425 425 LINE",
"375 425 LINE"
);
},
{
closed = 1;
nodes = (
"675 6 OFFCURVE",
"565 -100 OFFCURVE",
"425 -100 CURVE SMOOTH",
"285 -100 OFFCURVE",
"175 10 OFFCURVE",
"175 150 CURVE",
"125 150 LINE",
"125 -18 OFFCURVE",
"257 -150 OFFCURVE",
"425 -150 CURVE SMOOTH",
"593 -150 OFFCURVE",
"725 -22 OFFCURVE",
"725 140 CURVE SMOOTH",
"725 300 OFFCURVE",
"593 425 OFFCURVE",
"425 425 CURVE",
"425 375 LINE",
"565 375 OFFCURVE",
"675 272 OFFCURVE",
"675 140 CURVE SMOOTH"
);
},
{
closed = 1;
nodes = (
"660 800 LINE",
"375 425 LINE",
"415 395 LINE",
"725 800 LINE",
"725 850 LINE",
"125 850 LINE",
"125 800 LINE"
);
}
);
width = 800;
},
{
anchors = (
{
name = top;
position = "{425, 850}";
}
);
layerId = "926D8932-2CBE-4DA1-A7EC-AA50FD678EE5";
paths = (
{
closed = 1;
nodes = (
"375 350 LINE",
"425 350 LINE",
"425 450 LINE",
"375 450 LINE"
);
},
{
closed = 1;
nodes = (
"625 40 OFFCURVE",
"535 -50 OFFCURVE",
"425 -50 CURVE SMOOTH",
"315 -50 OFFCURVE",
"225 40 OFFCURVE",
"225 150 CURVE",
"125 150 LINE",
"125 -15 OFFCURVE",
"260 -150 OFFCURVE",
"425 -150 CURVE SMOOTH",
"590 -150 OFFCURVE",
"725 -15 OFFCURVE",
"725 150 CURVE SMOOTH",
"725 315 OFFCURVE",
"590 450 OFFCURVE",
"425 450 CURVE",
"425 350 LINE",
"535 350 OFFCURVE",
"625 260 OFFCURVE",
"625 150 CURVE SMOOTH"
);
},
{
closed = 1;
nodes = (
"600 750 LINE",
"375 450 LINE",
"455 390 LINE",
"725 750 LINE",
"725 850 LINE",
"125 850 LINE",
"125 750 LINE"
);
}
);
width = 800;
},
{
anchors = (
{
name = top;
position = "{425, 850}";
}
);
layerId = "DCFDD359-D3A1-4A9B-975E-26381AFB2AA7";
paths = (
{
closed = 1;
nodes = (
"375 325 LINE",
"425 325 LINE",
"425 475 LINE",
"375 475 LINE"
);
},
{
closed = 1;
nodes = (
"575 70 OFFCURVE",
"509 0 OFFCURVE",
"425 0 CURVE SMOOTH",
"341 0 OFFCURVE",
"275 66 OFFCURVE",
"275 150 CURVE",
"125 150 LINE",
"125 -18 OFFCURVE",
"257 -150 OFFCURVE",
"425 -150 CURVE SMOOTH",
"593 -150 OFFCURVE",
"725 -14 OFFCURVE",
"725 160 CURVE SMOOTH",
"725 336 OFFCURVE",
"593 475 OFFCURVE",
"425 475 CURVE",
"425 325 LINE",
"509 325 OFFCURVE",
"575 252 OFFCURVE",
"575 160 CURVE SMOOTH"
);
},
{
closed = 1;
nodes = (
"540 700 LINE",
"375 475 LINE",
"505 390 LINE",
"725 700 LINE",
"725 850 LINE",
"125 850 LINE",
"125 700 LINE"
);
}
);
width = 800;
}
);
leftMetricsKey = E;
rightMetricsKey = E;
unicode = 01B7;
},
{
color = 5;
export = 0;
glyphname = Fhook;
lastChange = "2017-11-26 16:32:56 +0000";
layers = (
{
components = (
{
name = F;
}
);
layerId = "833FD172-3601-4257-8297-A103CE2A393F";
paths = (
{
closed = 1;
nodes = (
"100 -150 LINE",
"100 -290 OFFCURVE",
"12 -400 OFFCURVE",
"-100 -400 CURVE",
"-100 -450 LINE",
"40 -450 OFFCURVE",
"150 -318 OFFCURVE",
"150 -150 CURVE"
);
}
);
width = 800;
},
{
components = (
{
name = F;
}
);
layerId = "926D8932-2CBE-4DA1-A7EC-AA50FD678EE5";
paths = (
{
closed = 1;
nodes = (
"100 -150 LINE",
"100 -260 OFFCURVE",
"10 -350 OFFCURVE",
"-100 -350 CURVE",
"-100 -450 LINE",
"65 -450 OFFCURVE",
"200 -315 OFFCURVE",
"200 -150 CURVE"
);
}
);
width = 800;
},
{
components = (
{
name = F;
}
);
layerId = "DCFDD359-D3A1-4A9B-975E-26381AFB2AA7";
paths = (
{
closed = 1;
nodes = (
"100 -150 LINE",
"100 -234 OFFCURVE",
"12 -300 OFFCURVE",
"-100 -300 CURVE",
"-100 -450 LINE",
"96 -450 OFFCURVE",
"250 -318 OFFCURVE",
"250 -150 CURVE"
);
}
);
width = 800;
}
);
unicode = 0191;
},
{
color = 5;
export = 0;
glyphname = Ghook;
lastChange = "2017-11-26 16:32:56 +0000";
layers = (
{
components = (
{
name = G;
}
);
layerId = "833FD172-3601-4257-8297-A103CE2A393F";
paths = (
{
closed = 1;
nodes = (
"950 700 LINE",
"950 840 OFFCURVE",
"1038 950 OFFCURVE",
"1150 950 CURVE",
"1150 1000 LINE",
"1010 1000 OFFCURVE",
"900 868 OFFCURVE",
"900 700 CURVE"
);
}
);
width = 1200;
},
{
components = (
{
name = G;
}
);
layerId = "926D8932-2CBE-4DA1-A7EC-AA50FD678EE5";
paths = (
{
closed = 1;
nodes = (
"950 700 LINE",
"950 810 OFFCURVE",
"1040 900 OFFCURVE",
"1150 900 CURVE",
"1150 1000 LINE",
"985 1000 OFFCURVE",
"850 865 OFFCURVE",
"850 700 CURVE"
);
}
);
width = 1200;
},
{
components = (
{
name = G;
}
);
layerId = "DCFDD359-D3A1-4A9B-975E-26381AFB2AA7";
paths = (
{
closed = 1;
nodes = (
"950 700 LINE",
"950 784 OFFCURVE",
"1038 850 OFFCURVE",
"1150 850 CURVE",
"1150 1000 LINE",
"954 1000 OFFCURVE",
"800 868 OFFCURVE",
"800 700 CURVE"
);
}
);
width = 1200;
}
);
unicode = 0193;
},
{
color = 4;
export = 0;
glyphname = Gstroke;
lastChange = "2017-12-08 11:39:41 +0000";
layers = (
{
components = (
{
name = G;
}
);
layerId = "833FD172-3601-4257-8297-A103CE2A393F";
paths = (
{
closed = 1;
nodes = (
"1050 325 LINE",
"1300 325 LINE",
"1300 375 LINE",
"1050 375 LINE"
);
}
);
width = 1375;
},
{
components = (
{
name = G;
}
);
layerId = "926D8932-2CBE-4DA1-A7EC-AA50FD678EE5";
paths = (
{
closed = 1;
nodes = (
"1050 300 LINE",
"1300 300 LINE",
"1300 400 LINE",
"1050 400 LINE"
);
}
);
width = 1375;
},
{
components = (
{
name = G;
}
);
layerId = "DCFDD359-D3A1-4A9B-975E-26381AFB2AA7";
paths = (
{
closed = 1;
nodes = (
"1050 275 LINE",
"1300 275 LINE",
"1300 425 LINE",
"1050 425 LINE"
);
}
);
width = 1375;
}
);
leftMetricsKey = G;
rightMetricsKey = G;
unicode = 01E4;
},
{
color = 4;
export = 0;
glyphname = Yogh;
lastChange = "2017-11-26 16:32:56 +0000";
layers = (
{
layerId = "833FD172-3601-4257-8297-A103CE2A393F";
paths = (
{
closed = 1;
nodes = (
"350 375 LINE",
"400 375 LINE",
"400 425 LINE",
"350 425 LINE"
);
},
{
closed = 1;
nodes = (
"635 800 LINE",
"350 425 LINE",
"390 395 LINE",
"700 800 LINE",
"700 850 LINE",
"100 850 LINE",
"100 800 LINE"
);
},
{
closed = 1;
nodes = (
"610 -60 LINE",
"665 -5 OFFCURVE",
"700 60 OFFCURVE",
"700 140 CURVE SMOOTH",
"700 300 OFFCURVE",
"570 425 OFFCURVE",
"400 425 CURVE",
"400 375 LINE",
"540 375 OFFCURVE",
"650 270 OFFCURVE",
"650 140 CURVE SMOOTH",
"650 75 OFFCURVE",
"620 20 OFFCURVE",
"575 -25 CURVE"
);
},
{
closed = 1;
nodes = (
"575 -25 LINE",
"365 -235 LINE",
"400 -270 LINE",
"610 -60 LINE"
);
}
);
width = 800;
},
{
layerId = "926D8932-2CBE-4DA1-A7EC-AA50FD678EE5";
paths = (
{
closed = 1;
nodes = (
"350 350 LINE",
"400 350 LINE",
"400 450 LINE",
"350 450 LINE"
);
},
{
closed = 1;
nodes = (
"575 750 LINE",
"350 450 LINE",
"430 390 LINE",
"700 750 LINE",
"700 850 LINE",
"100 850 LINE",
"100 750 LINE"
);
},
{
closed = 1;
nodes = (
"610 -60 LINE",
"665 -5 OFFCURVE",
"700 70 OFFCURVE",
"700 150 CURVE SMOOTH",
"700 315 OFFCURVE",
"565 450 OFFCURVE",
"400 450 CURVE",
"400 350 LINE",
"510 350 OFFCURVE",
"600 260 OFFCURVE",
"600 150 CURVE SMOOTH",
"600 95 OFFCURVE",
"580 45 OFFCURVE",
"540 10 CURVE"
);
},
{
closed = 1;
nodes = (
"540 10 LINE",
"330 -200 LINE",
"400 -270 LINE",
"610 -60 LINE"
);
}
);
width = 800;
},
{
layerId = "DCFDD359-D3A1-4A9B-975E-26381AFB2AA7";
paths = (
{
closed = 1;
nodes = (
"350 325 LINE",
"400 325 LINE",
"400 475 LINE",
"350 475 LINE"
);
},
{
closed = 1;
nodes = (
"515 700 LINE",
"350 475 LINE",
"480 390 LINE",
"700 700 LINE",
"700 850 LINE",
"100 850 LINE",
"100 700 LINE"
);
},
{
closed = 1;
nodes = (
"610 -60 LINE",
"665 -5 OFFCURVE",
"700 70 OFFCURVE",
"700 160 CURVE SMOOTH",
"700 335 OFFCURVE",
"570 475 OFFCURVE",
"400 475 CURVE",
"400 325 LINE",
"485 325 OFFCURVE",
"550 250 OFFCURVE",
"550 160 CURVE SMOOTH",
"550 115 OFFCURVE",
"535 75 OFFCURVE",
"505 45 CURVE"
);
},
{
closed = 1;
nodes = (
"505 45 LINE",
"295 -165 LINE",
"400 -270 LINE",
"610 -60 LINE"
);
}
);
width = 800;
}
);
unicode = 021C;
},
{
color = 3;
export = 0;
glyphname = Hbar;
lastChange = "2017-12-08 19:23:07 +0000";
layers = (
{
components = (
{
name = H;
transform = "{1, 0, 0, 1, 100, 0}";
}
);
hints = (
{
horizontal = 1;
origin = "{0, 0}";
target = "{0, 3}";
}
);
layerId = "926D8932-2CBE-4DA1-A7EC-AA50FD678EE5";
paths = (
{
closed = 1;
nodes = (
"100 600 LINE",
"1000 600 LINE",
"1000 700 LINE",
"100 700 LINE"
);
}
);
width = 1100;
},
{
components = (
{
name = H;
transform = "{1, 0, 0, 1, 100, 0}";
}
);
hints = (
{
horizontal = 1;
origin = "{0, 0}";
target = "{0, 3}";
}
);
layerId = "DCFDD359-D3A1-4A9B-975E-26381AFB2AA7";
paths = (
{
closed = 1;
nodes = (
"100 600 LINE",
"1000 600 LINE",
"1000 700 LINE",
"100 700 LINE"
);
}
);
width = 1100;
},
{
components = (
{
name = H;
transform = "{1, 0, 0, 1, 100, 0}";
}
);
hints = (
{
horizontal = 1;
origin = "{0, 0}";
target = "{0, 3}";
}
);
layerId = "833FD172-3601-4257-8297-A103CE2A393F";
paths = (
{
closed = 1;
nodes = (
"100 625 LINE",
"1000 625 LINE",
"1000 675 LINE",
"100 675 LINE"
);
}
);
width = 1100;
}
);
unicode = 0126;
},
{
color = 4;
export = 0;
glyphname = Hwair;
lastChange = "2017-12-08 11:39:41 +0000";
layers = (
{
anchors = (
{
name = topleft;
position = "{125, 850}";
}
);
hints = (
{
horizontal = 1;
origin = "{2, 0}";
target = "{2, 3}";
},
{
origin = "{3, 0}";
target = "{3, 1}";
},
{
origin = "{4, 0}";
target = "{1, 9}";
}
);
layerId = "833FD172-3601-4257-8297-A103CE2A393F";
paths = (
{
closed = 1;
nodes = (
"1325 350 LINE",
"1325 125 LINE",
"1275 125 LINE",
"1275 350 LINE"
);
},
{
closed = 1;
nodes = (
"1275 125 LINE SMOOTH",
"1275 125 OFFCURVE",
"1275 125 OFFCURVE",
"1275 125 CURVE SMOOTH",
"1275 -1 OFFCURVE",
"1176 -100 OFFCURVE",
"1050 -100 CURVE SMOOTH",
"924 -100 OFFCURVE",
"825 -1 OFFCURVE",
"825 125 CURVE SMOOTH",
"825 125 OFFCURVE",
"825 125 OFFCURVE",
"825 125 CURVE SMOOTH",
"775 125 LINE SMOOTH",
"775 125 OFFCURVE",
"775 125 OFFCURVE",
"775 125 CURVE SMOOTH",
"775 -29 OFFCURVE",
"896 -150 OFFCURVE",
"1050 -150 CURVE SMOOTH",
"1204 -150 OFFCURVE",
"1325 -29 OFFCURVE",
"1325 125 CURVE SMOOTH",
"1325 125 OFFCURVE",
"1325 125 OFFCURVE",
"1325 125 CURVE SMOOTH"
);
},
{
closed = 1;
nodes = (
"125 325 LINE",
"825 325 LINE",
"825 375 LINE",
"125 375 LINE"
);
},
{
closed = 1;
nodes = (
"125 -150 LINE",
"175 -150 LINE",
"175 850 LINE",
"125 850 LINE"
);
},
{
closed = 1;
nodes = (
"775 125 LINE",
"825 125 LINE",
"825 850 LINE",
"775 850 LINE"
);
}
);
width = 1450;
},
{
anchors = (
{
name = topleft;
position = "{125, 850}";
}
);
hints = (
{
horizontal = 1;
origin = "{2, 0}";
target = "{2, 3}";
},
{
origin = "{3, 0}";
target = "{3, 1}";
},
{
origin = "{4, 0}";
target = "{1, 9}";
}
);
layerId = "926D8932-2CBE-4DA1-A7EC-AA50FD678EE5";
paths = (
{
closed = 1;
nodes = (
"1325 350 LINE",
"1325 150 LINE",
"1225 150 LINE",
"1225 350 LINE"
);
},
{
closed = 1;
nodes = (
"1225 150 LINE SMOOTH",
"1225 150 OFFCURVE",
"1225 150 OFFCURVE",
"1225 150 CURVE SMOOTH",
"1225 40 OFFCURVE",
"1135 -50 OFFCURVE",
"1025 -50 CURVE SMOOTH",
"915 -50 OFFCURVE",
"825 40 OFFCURVE",
"825 150 CURVE SMOOTH",
"825 150 OFFCURVE",
"825 150 OFFCURVE",
"825 150 CURVE SMOOTH",
"725 150 LINE SMOOTH",
"725 150 OFFCURVE",
"725 150 OFFCURVE",
"725 150 CURVE SMOOTH",
"725 -15 OFFCURVE",
"860 -150 OFFCURVE",
"1025 -150 CURVE SMOOTH",
"1190 -150 OFFCURVE",
"1325 -15 OFFCURVE",
"1325 150 CURVE SMOOTH",
"1325 150 OFFCURVE",
"1325 150 OFFCURVE",
"1325 150 CURVE SMOOTH"
);
},
{
closed = 1;
nodes = (
"125 300 LINE",
"825 300 LINE",
"825 400 LINE",
"125 400 LINE"
);
},
{
closed = 1;
nodes = (
"125 -150 LINE",
"225 -150 LINE",
"225 850 LINE",
"125 850 LINE"
);
},
{
closed = 1;
nodes = (
"725 150 LINE",
"825 150 LINE",
"825 850 LINE",
"725 850 LINE"
);
}
);
width = 1450;
},
{
anchors = (
{
name = topleft;
position = "{125, 850}";
}
);
hints = (
{
horizontal = 1;
origin = "{2, 0}";
target = "{2, 3}";
},
{
origin = "{3, 0}";
target = "{3, 1}";
},
{
origin = "{4, 0}";
target = "{1, 9}";
}
);
layerId = "DCFDD359-D3A1-4A9B-975E-26381AFB2AA7";
paths = (
{
closed = 1;
nodes = (
"1325 350 LINE",
"1325 175 LINE",
"1175 175 LINE",
"1175 350 LINE"
);
},
{
closed = 1;
nodes = (
"1175 175 LINE SMOOTH",
"1175 175 OFFCURVE",
"1175 175 OFFCURVE",
"1175 175 CURVE SMOOTH",
"1175 77 OFFCURVE",
"1098 0 OFFCURVE",
"1000 0 CURVE SMOOTH",
"902 0 OFFCURVE",
"825 77 OFFCURVE",
"825 175 CURVE SMOOTH",
"825 175 OFFCURVE",
"825 175 OFFCURVE",
"825 175 CURVE SMOOTH",
"675 175 LINE SMOOTH",
"675 175 OFFCURVE",
"675 175 OFFCURVE",
"675 175 CURVE SMOOTH",
"675 -7 OFFCURVE",
"818 -150 OFFCURVE",
"1000 -150 CURVE SMOOTH",
"1181 -150 OFFCURVE",
"1325 -7 OFFCURVE",
"1325 175 CURVE SMOOTH",
"1325 175 OFFCURVE",
"1325 175 OFFCURVE",
"1325 175 CURVE SMOOTH"
);
},
{
closed = 1;
nodes = (
"125 275 LINE",
"825 275 LINE",
"825 425 LINE",
"125 425 LINE"
);
},
{
closed = 1;
nodes = (
"125 -150 LINE",
"275 -150 LINE",
"275 850 LINE",
"125 850 LINE"
);
},
{
closed = 1;
nodes = (
"675 175 LINE",
"825 175 LINE",
"825 850 LINE",
"675 850 LINE"
);
}
);
width = 1450;
}
);
leftMetricsKey = H;
rightMetricsKey = u;
unicode = 01F6;
},
{
color = 4;
export = 0;
glyphname = IJ;
lastChange = "2017-12-08 11:39:41 +0000";
layers = (
{
anchors = (
{
name = bottom;
position = "{275, -150}";
},
{
name = ogonek;
position = "{275, -150}";
},
{
name = top;
position = "{275, 850}";
}
);
components = (
{
name = _quartercircle_400;
transform = "{1, 0, 0, 1, 375, 0}";
}
);
hints = (
{
horizontal = 1;
place = "{-150, 100}";
},
{
horizontal = 1;
place = "{750, 100}";
},
{
place = "{200, 100}";
},
{
horizontal = 1;
origin = "{1, 0}";
target = "{4, 3}";
},
{
horizontal = 1;
origin = "{3, 0}";
target = "{3, 3}";
},
{
origin = "{1, 0}";
target = "{1, 1}";
}
);
layerId = "926D8932-2CBE-4DA1-A7EC-AA50FD678EE5";
paths = (
{
closed = 1;
nodes = (
"775 250 LINE",
"875 250 LINE",
"875 850 LINE",
"775 850 LINE"
);
},
{
closed = 1;
nodes = (
"225 100 LINE",
"325 100 LINE",
"325 850 LINE",
"225 850 LINE"
);
},
{
closed = 1;
nodes = (
"525 750 LINE",
"875 750 LINE",
"875 850 LINE",
"525 850 LINE"
);
},
{
closed = 1;
nodes = (
"75 750 LINE",
"325 750 LINE",
"325 850 LINE",
"75 850 LINE"
);
},
{
closed = 1;
nodes = (
"75 -150 LINE",
"475 -150 LINE",
"475 -50 LINE",
"75 -50 LINE"
);
}
);
width = 1000;
},
{
anchors = (
{
name = bottom;
position = "{275, -150}";
},
{
name = ogonek;
position = "{275, -150}";
},
{
name = top;
position = "{800, 850}";
}
);
components = (
{
name = _quartercircle_400;
transform = "{1, 0, 0, 1, 375, 0}";
}
);
hints = (
{
horizontal = 1;
origin = "{4, 0}";
target = "{4, 3}";
},
{
horizontal = 1;
origin = "{3, 0}";
target = "{3, 3}";
},
{
origin = "{1, 0}";
target = "{1, 1}";
}
);
layerId = "DCFDD359-D3A1-4A9B-975E-26381AFB2AA7";
paths = (
{
closed = 1;
nodes = (
"725 250 LINE",
"875 250 LINE",
"875 850 LINE",
"725 850 LINE"
);
},
{
closed = 1;
nodes = (
"200 150 LINE",
"350 150 LINE",
"350 850 LINE",
"200 850 LINE"
);
},
{
closed = 1;
nodes = (
"525 700 LINE",
"875 700 LINE",
"875 850 LINE",
"525 850 LINE"
);
},
{
closed = 1;
nodes = (
"75 700 LINE",
"350 700 LINE",
"350 850 LINE",
"75 850 LINE"
);
},
{
closed = 1;
nodes = (
"75 -150 LINE",
"475 -150 LINE",
"475 0 LINE",
"75 0 LINE"
);
}
);
width = 1000;
},
{
anchors = (
{
name = bottom;
position = "{275, -150}";
},
{
name = ogonek;
position = "{275, -150}";
},
{
name = top;
position = "{850, 850}";
}
);
components = (
{
alignment = -1;
name = _quartercircle_400;
transform = "{1, 0, 0, 1, 375, 0}";
}
);
hints = (
{
horizontal = 1;
origin = "{4, 0}";
target = "{4, 3}";
},
{
horizontal = 1;
origin = "{3, 0}";
target = "{3, 3}";
},
{
origin = "{1, 0}";
target = "{1, 1}";
}
);
layerId = "833FD172-3601-4257-8297-A103CE2A393F";
paths = (
{
closed = 1;
nodes = (
"825 250 LINE",
"875 250 LINE",
"875 850 LINE",
"825 850 LINE"
);
},
{
closed = 1;
nodes = (
"250 50 LINE",
"300 50 LINE",
"300 850 LINE",
"250 850 LINE"
);
},
{
closed = 1;
nodes = (
"525 800 LINE",
"875 800 LINE",
"875 850 LINE",
"525 850 LINE"
);
},
{
closed = 1;
nodes = (
"75 800 LINE",
"300 800 LINE",
"300 850 LINE",
"75 850 LINE"
);
},
{
closed = 1;
nodes = (
"75 -150 LINE",
"475 -150 LINE",
"475 -100 LINE",
"75 -100 LINE"
);
}
);
width = 1000;
}
);
leftMetricsKey = I;
rightMetricsKey = J;
unicode = 0132;
},
{
color = 4;
export = 0;
glyphname = Iotaafrican;
lastChange = "2017-11-26 16:32:56 +0000";
layers = (
{
components = (
{
alignment = -1;
name = "iota-latin";
transform = "{1, 0, 0, 1, 0, -150}";
}
);
layerId = "833FD172-3601-4257-8297-A103CE2A393F";
paths = (
{
closed = 1;
nodes = (
"100 550 LINE",
"150 550 LINE",
"150 850 LINE",
"100 850 LINE"
);
},
{
closed = 1;
nodes = (
"400 -150 LINE",
"500 -150 LINE",
"500 -100 LINE",
"400 -100 LINE"
);
}
);
width = 600;
},
{
components = (
{
alignment = -1;
name = "iota-latin";
transform = "{1, 0, 0, 1, 0, -150}";
}
);
layerId = "926D8932-2CBE-4DA1-A7EC-AA50FD678EE5";
paths = (
{
closed = 1;
nodes = (
"100 550 LINE",
"200 550 LINE",
"200 850 LINE",
"100 850 LINE"
);
},
{
closed = 1;
nodes = (
"400 -150 LINE",
"500 -150 LINE",
"500 -50 LINE",
"400 -50 LINE"
);
}
);
width = 600;
},
{
components = (
{
alignment = -1;
name = "iota-latin";
transform = "{1, 0, 0, 1, 0, -150}";
}
);
layerId = "DCFDD359-D3A1-4A9B-975E-26381AFB2AA7";
paths = (
{
closed = 1;
nodes = (
"100 550 LINE",
"250 550 LINE",
"250 850 LINE",
"100 850 LINE"
);
},
{
closed = 1;
nodes = (
"400 -150 LINE",
"500 -150 LINE",
"500 0 LINE",
"400 0 LINE"
);
}
);
width = 600;
}
);
unicode = 0196;
},
{
color = 4;
export = 0;
glyphname = Khook;
lastChange = "2017-11-26 16:32:56 +0000";
layers = (
{
components = (
{
name = _quartercircle_300;
transform = "{1, 0, 0, 1, 50, 300}";
}
);
layerId = "833FD172-3601-4257-8297-A103CE2A393F";
paths = (
{
closed = 1;
nodes = (
"100 -150 LINE",
"150 -150 LINE",
"150 700 LINE",
"100 700 LINE"
);
},
{
closed = 1;
nodes = (
"720 850 LINE",
"125 375 LINE",
"125 325 LINE",
"720 -150 LINE",
"800 -150 LINE",
"175 350 LINE",
"800 850 LINE"
);
}
);
width = 850;
},
{
components = (
{
name = _quartercircle_300;
transform = "{1, 0, 0, 1, 50, 300}";
}
);
layerId = "926D8932-2CBE-4DA1-A7EC-AA50FD678EE5";
paths = (
{
closed = 1;
nodes = (
"100 -150 LINE",
"200 -150 LINE",
"200 700 LINE",
"100 700 LINE"
);
},
{
closed = 1;
nodes = (
"650 850 LINE",
"150 385 LINE",
"150 315 LINE",
"650 -150 LINE",
"800 -150 LINE",
"255 350 LINE",
"800 850 LINE"
);
}
);
width = 850;
},
{
components = (
{
name = _quartercircle_300;
transform = "{1, 0, 0, 1, 50, 300}";
}
);
layerId = "DCFDD359-D3A1-4A9B-975E-26381AFB2AA7";
paths = (
{
closed = 1;
nodes = (
"100 -150 LINE",
"250 -150 LINE",
"250 700 LINE",
"100 700 LINE"
);
},
{
closed = 1;
nodes = (
"590 850 LINE",
"150 380 LINE",
"150 320 LINE",
"590 -150 LINE",
"800 -150 LINE",
"325 350 LINE",
"800 850 LINE"
);
}
);
width = 850;
}
);
unicode = 0198;
},
{
color = 5;
export = 0;
glyphname = LJ;
lastChange = "2017-12-08 11:39:41 +0000";
layers = (
{
components = (
{
name = L;
},
{
name = J;
transform = "{1, 0, 0, 1, 800, 0}";
}
);
layerId = "833FD172-3601-4257-8297-A103CE2A393F";
paths = (
{
closed = 1;
nodes = (
"700 -150 LINE",
"900 -150 LINE",
"900 -100 LINE",
"700 -100 LINE"
);
}
);
width = 1775;
},
{
components = (
{
name = L;
},
{
name = J;
transform = "{1, 0, 0, 1, 800, 0}";
}
);
layerId = "926D8932-2CBE-4DA1-A7EC-AA50FD678EE5";
paths = (
{
closed = 1;
nodes = (
"700 -150 LINE",
"900 -150 LINE",
"900 -50 LINE",
"700 -50 LINE"
);
}
);
width = 1775;
},
{
components = (
{
name = L;
},
{
name = J;
transform = "{1, 0, 0, 1, 800, 0}";
}
);
layerId = "DCFDD359-D3A1-4A9B-975E-26381AFB2AA7";
paths = (
{
closed = 1;
nodes = (
"700 -150 LINE",
"900 -150 LINE",
"900 0 LINE",
"700 0 LINE"
);
}
);
width = 1775;
}
);
leftMetricsKey = L;
rightMetricsKey = J;
unicode = 01C7;
},
{
color = 6;
export = 0;
glyphname = M.001;
lastChange = "2017-11-26 16:52:20 +0000";
layers = (
{
anchors = (
{
name = bottom;
position = "{625, 50}";
},
{
name = top;
position = "{625, 650}";
}
);
layerId = "926D8932-2CBE-4DA1-A7EC-AA50FD678EE5";
paths = (
{
closed = 1;
nodes = (
"125 -150 LINE",
"225 -150 LINE",
"225 850 LINE",
"125 850 LINE"
);
},
{
closed = 1;
nodes = (
"1025 -150 LINE",
"1125 -150 LINE",
"1125 850 LINE",
"1025 850 LINE"
);
},
{
closed = 1;
nodes = (
"625 125 LINE",
"1025 680 LINE",
"1025 850 LINE",
"625 300 LINE",
"225 850 LINE",
"225 680 LINE"
);
}
);
width = 1250;
},
{
anchors = (
{
name = bottom;
position = "{625, 50}";
},
{
name = top;
position = "{625, 650}";
}
);
layerId = "DCFDD359-D3A1-4A9B-975E-26381AFB2AA7";
paths = (
{
closed = 1;
nodes = (
"125 -150 LINE",
"275 -150 LINE",
"275 850 LINE",
"125 850 LINE"
);
},
{
closed = 1;
nodes = (
"975 -150 LINE",
"1125 -150 LINE",
"1125 850 LINE",
"975 850 LINE"
);
},
{
closed = 1;
nodes = (
"625 70 LINE",
"975 585 LINE",
"975 850 LINE",
"625 340 LINE",
"275 850 LINE",
"275 585 LINE"
);
}
);
width = 1250;
},
{
anchors = (
{
name = bottom;
position = "{625, 50}";
},
{
name = top;
position = "{625, 650}";
}
);
layerId = "833FD172-3601-4257-8297-A103CE2A393F";
paths = (
{
closed = 1;
nodes = (
"125 -150 LINE",
"175 -150 LINE",
"175 850 LINE",
"125 850 LINE"
);
},
{
closed = 1;
nodes = (
"1075 -150 LINE",
"1125 -150 LINE",
"1125 850 LINE",
"1075 850 LINE"
);
},
{
closed = 1;
nodes = (
"625 180 LINE",
"1075 770 LINE",
"1075 850 LINE",
"625 260 LINE",
"175 850 LINE",
"175 770 LINE"
);
}
);
width = 1250;
}
);
leftMetricsKey = N;
rightMetricsKey = N;
},
{
color = 6;
export = 0;
glyphname = M.002;
lastChange = "2017-12-08 11:39:41 +0000";
layers = (
{
anchors = (
{
name = bottom;
position = "{625, -150}";
},
{
name = top;
position = "{625, 850}";
}
);
layerId = "926D8932-2CBE-4DA1-A7EC-AA50FD678EE5";
paths = (
{
closed = 1;
nodes = (
"1125 850 LINE",
"625 165 LINE",
"125 850 LINE",
"125 850 LINE",
"125 680 LINE",
"625 0 LINE",
"1125 680 LINE"
);
},
{
closed = 1;
nodes = (
"1025 -150 LINE",
"1125 -150 LINE",
"1125 700 LINE",
"1025 700 LINE"
);
},
{
closed = 1;
nodes = (
"125 -150 LINE",
"225 -150 LINE",
"225 700 LINE",
"125 700 LINE"
);
}
);
width = 1250;
},
{
anchors = (
{
name = bottom;
position = "{625, -150}";
},
{
name = top;
position = "{625, 850}";
}
);
layerId = "DCFDD359-D3A1-4A9B-975E-26381AFB2AA7";
paths = (
{
closed = 1;
nodes = (
"1125 850 LINE",
"625 245 LINE",
"125 850 LINE",
"125 850 LINE",
"125 595 LINE",
"625 0 LINE",
"1125 595 LINE"
);
},
{
closed = 1;
nodes = (
"975 -150 LINE",
"1125 -150 LINE",
"1125 650 LINE",
"975 650 LINE"
);
},
{
closed = 1;
nodes = (
"125 -150 LINE",
"275 -150 LINE",
"275 650 LINE",
"125 650 LINE"
);
}
);
width = 1250;
},
{
anchors = (
{
name = bottom;
position = "{625, -150}";
},
{
name = top;
position = "{625, 850}";
}
);
layerId = "833FD172-3601-4257-8297-A103CE2A393F";
paths = (
{
closed = 1;
nodes = (
"1125 850 LINE",
"625 85 LINE",
"125 850 LINE",
"125 850 LINE",
"125 765 LINE",
"625 0 LINE",
"1125 765 LINE"
);
},
{
closed = 1;
nodes = (
"1075 -150 LINE",
"1125 -150 LINE",
"1125 765 LINE",
"1075 765 LINE"
);
},
{
closed = 1;
nodes = (
"125 -150 LINE",
"175 -150 LINE",
"175 765 LINE",
"125 765 LINE"
);
}
);
width = 1250;
}
);
leftMetricsKey = N;
rightMetricsKey = N;
},
{
color = 4;
export = 0;
glyphname = Mturned;
lastChange = "2017-11-26 16:32:56 +0000";
layers = (
{
components = (
{
name = _halfcircle_600;
transform = "{1, 0, 0, 1, 25, 0}";
},
{
name = _halfcircle_600;
transform = "{1, 0, 0, 1, 575, 0}";
}
);
layerId = "833FD172-3601-4257-8297-A103CE2A393F";
paths = (
{
closed = 1;
nodes = (
"75 150 LINE",
"125 150 LINE",
"125 850 LINE",
"75 850 LINE"
);
},
{
closed = 1;
nodes = (
"625 150 LINE",
"675 150 LINE",
"675 850 LINE",
"625 850 LINE"
);
},
{
closed = 1;
nodes = (
"1175 150 LINE",
"1225 150 LINE",
"1225 850 LINE",
"1175 850 LINE"
);
},
{
closed = 1;
nodes = (
"1175 -150 LINE",
"1225 -150 LINE",
"1225 150 LINE",
"1175 150 LINE"
);
}
);
width = 1300;
},
{
components = (
{
name = _halfcircle_600;
transform = "{1, 0, 0, 1, 50, 0}";
},
{
name = _halfcircle_600;
transform = "{1, 0, 0, 1, 550, 0}";
}
);
layerId = "926D8932-2CBE-4DA1-A7EC-AA50FD678EE5";
paths = (
{
closed = 1;
nodes = (
"100 150 LINE",
"200 150 LINE",
"200 850 LINE",
"100 850 LINE"
);
},
{
closed = 1;
nodes = (
"600 150 LINE",
"700 150 LINE",
"700 850 LINE",
"600 850 LINE"
);
},
{
closed = 1;
nodes = (
"1100 150 LINE",
"1200 150 LINE",
"1200 850 LINE",
"1100 850 LINE"
);
},
{
closed = 1;
nodes = (
"1150 -150 LINE",
"1200 -150 LINE",
"1200 150 LINE",
"1100 150 LINE"
);
}
);
width = 1300;
},
{
components = (
{
name = _halfcircle_600;
transform = "{1, 0, 0, 1, 75, 0}";
},
{
name = _halfcircle_600;
transform = "{1, 0, 0, 1, 525, 0}";
}
);
layerId = "DCFDD359-D3A1-4A9B-975E-26381AFB2AA7";
paths = (
{
closed = 1;
nodes = (
"125 150 LINE",
"275 150 LINE",
"275 850 LINE",
"125 850 LINE"
);
},
{
closed = 1;
nodes = (
"575 150 LINE",
"725 150 LINE",
"725 850 LINE",
"575 850 LINE"
);
},
{
closed = 1;
nodes = (
"1025 150 LINE",
"1175 150 LINE",
"1175 850 LINE",
"1025 850 LINE"
);
},
{
closed = 1;
nodes = (
"1100 -150 LINE",
"1175 -150 LINE",
"1175 150 LINE",
"1025 150 LINE"
);
}
);
width = 1300;
}
);
unicode = 019C;
},
{
color = 6;
export = 0;
glyphname = N.001;
lastChange = "2017-11-26 16:51:59 +0000";
layers = (
{
anchors = (
{
name = bottom;
position = "{525, -150}";
},
{
name = top;
position = "{525, 850}";
}
);
hints = (
{
origin = "{0, 0}";
target = "{0, 1}";
},
{
origin = "{1, 0}";
target = "{2, 1}";
}
);
layerId = "926D8932-2CBE-4DA1-A7EC-AA50FD678EE5";
paths = (
{
closed = 1;
nodes = (
"125 -150 LINE",
"225 -150 LINE",
"225 850 LINE",
"125 850 LINE"
);
},
{
closed = 1;
nodes = (
"825 -150 LINE",
"925 -150 LINE",
"925 850 LINE",
"825 850 LINE"
);
},
{
closed = 1;
nodes = (
"225 680 LINE",
"825 -150 LINE",
"825 25 LINE",
"225 850 LINE"
);
}
);
width = 1050;
},
{
anchors = (
{
name = bottom;
position = "{525, -150}";
},
{
name = top;
position = "{525, 850}";
}
);
hints = (
{
place = "{100, 150}";
},
{
place = "{650, 150}";
}
);
layerId = "DCFDD359-D3A1-4A9B-975E-26381AFB2AA7";
paths = (
{
closed = 1;
nodes = (
"125 -150 LINE",
"275 -150 LINE",
"275 850 LINE",
"125 850 LINE"
);
},
{
closed = 1;
nodes = (
"775 -150 LINE",
"925 -150 LINE",
"925 850 LINE",
"775 850 LINE"
);
},
{
closed = 1;
nodes = (
"275 585 LINE",
"775 -150 LINE",
"775 120 LINE",
"275 850 LINE"
);
}
);
width = 1050;
},
{
anchors = (
{
name = bottom;
position = "{525, -150}";
},
{
name = top;
position = "{525, 850}";
}
);
hints = (
{
place = "{100, 50}";
},
{
place = "{750, 50}";
}
);
layerId = "833FD172-3601-4257-8297-A103CE2A393F";
paths = (
{
closed = 1;
nodes = (
"125 -150 LINE",
"175 -150 LINE",
"175 850 LINE",
"125 850 LINE"
);
},
{
closed = 1;
nodes = (
"875 -150 LINE",
"925 -150 LINE",
"925 850 LINE",
"875 850 LINE"
);
},
{
closed = 1;
nodes = (
"175 770 LINE",
"875 -150 LINE",
"875 -70 LINE",
"175 850 LINE"
);
}
);
width = 1050;
}
);
leftMetricsKey = H;
rightMetricsKey = H;
},
{
color = 6;
export = 0;
glyphname = N.002;
lastChange = "2017-11-26 16:32:56 +0000";
layers = (
{
anchors = (
{
name = bottom;
position = "{450, -150}";
},
{
name = top;
position = "{450, 850}";
}
);
hints = (
{
origin = "{0, 0}";
target = "{0, 1}";
},
{
origin = "{1, 0}";
target = "{2, 1}";
}
);
layerId = "926D8932-2CBE-4DA1-A7EC-AA50FD678EE5";
paths = (
{
closed = 1;
nodes = (
"100 -150 LINE",
"200 -150 LINE",
"200 700 LINE",
"100 700 LINE"
);
},
{
closed = 1;
nodes = (
"700 0 LINE",
"800 0 LINE",
"800 850 LINE",
"700 850 LINE"
);
},
{
closed = 1;
nodes = (
"100 695 LINE",
"800 -150 LINE",
"800 10 LINE",
"100 850 LINE"
);
}
);
width = 900;
},
{
anchors = (
{
name = bottom;
position = "{450, -150}";
},
{
name = top;
position = "{450, 850}";
}
);
hints = (
{
origin = "{0, 0}";
target = "{0, 1}";
},
{
origin = "{1, 0}";
target = "{2, 1}";
}
);
layerId = "DCFDD359-D3A1-4A9B-975E-26381AFB2AA7";
paths = (
{
closed = 1;
nodes = (
"100 -150 LINE",
"250 -150 LINE",
"250 650 LINE",
"100 650 LINE"
);
},
{
closed = 1;
nodes = (
"650 50 LINE",
"800 50 LINE",
"800 850 LINE",
"650 850 LINE"
);
},
{
closed = 1;
nodes = (
"100 630 LINE",
"800 -150 LINE",
"800 75 LINE",
"100 850 LINE"
);
}
);
width = 900;
},
{
anchors = (
{
name = bottom;
position = "{450, -150}";
},
{
name = top;
position = "{450, 850}";
}
);
hints = (
{
origin = "{0, 0}";
target = "{0, 1}";
},
{
origin = "{1, 0}";
target = "{2, 1}";
}
);
layerId = "833FD172-3601-4257-8297-A103CE2A393F";
paths = (
{
closed = 1;
nodes = (
"100 -150 LINE",
"150 -150 LINE",
"150 775 LINE",
"100 775 LINE"
);
},
{
closed = 1;
nodes = (
"750 -75 LINE",
"800 -75 LINE",
"800 850 LINE",
"750 850 LINE"
);
},
{
closed = 1;
nodes = (
"100 765 LINE",
"800 -150 LINE",
"800 -70 LINE",
"100 850 LINE"
);
}
);
width = 900;
}
);
},
{
color = 3;
export = 0;
glyphname = Eng;
lastChange = "2017-12-08 11:39:41 +0000";
layers = (
{
components = (
{
name = N;
}
);
layerId = "926D8932-2CBE-4DA1-A7EC-AA50FD678EE5";
paths = (
{
closed = 1;
nodes = (
"766 -400 OFFCURVE",
"900 -266 OFFCURVE",
"900 -100 CURVE",
"800 -100 LINE",
"800 -210 OFFCURVE",
"710 -300 OFFCURVE",
"600 -300 CURVE",
"600 -400 LINE"
);
},
{
closed = 1;
nodes = (
"800 -100 LINE",
"900 -100 LINE",
"900 0 LINE",
"800 0 LINE"
);
}
);
width = 1050;
},
{
components = (
{
name = N;
}
);
layerId = "DCFDD359-D3A1-4A9B-975E-26381AFB2AA7";
paths = (
{
closed = 1;
nodes = (
"766 -400 OFFCURVE",
"900 -266 OFFCURVE",
"900 -100 CURVE",
"800 -100 LINE",
"800 -210 OFFCURVE",
"710 -300 OFFCURVE",
"600 -300 CURVE",
"600 -400 LINE"
);
},
{
closed = 1;
nodes = (
"800 -100 LINE",
"900 -100 LINE",
"900 0 LINE",
"800 0 LINE"
);
}
);
width = 1050;
},
{
components = (
{
name = N;
}
);
layerId = "833FD172-3601-4257-8297-A103CE2A393F";
paths = (
{
closed = 1;
nodes = (
"766 -400 OFFCURVE",
"900 -266 OFFCURVE",
"900 -100 CURVE",
"850 -100 LINE",
"850 -235 OFFCURVE",
"735 -350 OFFCURVE",
"600 -350 CURVE",
"600 -400 LINE"
);
},
{
closed = 1;
nodes = (
"850 -100 LINE",
"900 -100 LINE",
"900 0 LINE",
"850 0 LINE"
);
}
);
width = 1050;
}
);
leftMetricsKey = N;
rightMetricsKey = N;
unicode = 014A;
},
{
color = 5;
export = 0;
glyphname = Nhookleft;
lastChange = "2017-11-26 16:32:56 +0000";
layers = (
{
components = (
{
name = N;
}
);
layerId = "833FD172-3601-4257-8297-A103CE2A393F";
paths = (
{
closed = 1;
nodes = (
"100 -150 LINE",
"100 -290 OFFCURVE",
"12 -400 OFFCURVE",
"-100 -400 CURVE",
"-100 -450 LINE",
"40 -450 OFFCURVE",
"150 -318 OFFCURVE",
"150 -150 CURVE"
);
}
);
width = 1000;
},
{
components = (
{
name = N;
}
);
layerId = "926D8932-2CBE-4DA1-A7EC-AA50FD678EE5";
paths = (
{
closed = 1;
nodes = (
"100 -150 LINE",
"100 -260 OFFCURVE",
"10 -350 OFFCURVE",
"-100 -350 CURVE",
"-100 -450 LINE",
"65 -450 OFFCURVE",
"200 -315 OFFCURVE",
"200 -150 CURVE"
);
}
);
width = 1000;
},
{
components = (
{
name = N;
}
);
layerId = "DCFDD359-D3A1-4A9B-975E-26381AFB2AA7";
paths = (
{
closed = 1;
nodes = (
"100 -150 LINE",
"100 -234 OFFCURVE",
"12 -300 OFFCURVE",
"-100 -300 CURVE",
"-100 -450 LINE",
"96 -450 OFFCURVE",
"250 -318 OFFCURVE",
"250 -150 CURVE"
);
}
);
width = 1000;
}
);
unicode = 019D;
},
{
color = 4;
export = 0;
glyphname = Nlongrightleg;
lastChange = "2017-11-26 16:32:56 +0000";
layers = (
{
components = (
{
alignment = -1;
name = U;
transform = "{1, 0, 0, -1, 0, 700}";
}
);
layerId = "833FD172-3601-4257-8297-A103CE2A393F";
paths = (
{
closed = 1;
nodes = (
"100 450 LINE",
"150 450 LINE",
"150 850 LINE",
"100 850 LINE"
);
},
{
closed = 1;
nodes = (
"850 -500 LINE",
"900 -500 LINE",
"900 -150 LINE",
"850 -150 LINE"
);
}
);
width = 1000;
},
{
components = (
{
alignment = -1;
name = U;
transform = "{1, 0, 0, -1, 0, 700}";
}
);
layerId = "926D8932-2CBE-4DA1-A7EC-AA50FD678EE5";
paths = (
{
closed = 1;
nodes = (
"100 450 LINE",
"200 450 LINE",
"200 850 LINE",
"100 850 LINE"
);
},
{
closed = 1;
nodes = (
"800 -500 LINE",
"900 -500 LINE",
"900 -150 LINE",
"800 -150 LINE"
);
}
);
width = 1000;
},
{
components = (
{
alignment = -1;
name = U;
transform = "{1, 0, 0, -1, 0, 700}";
}
);
layerId = "DCFDD359-D3A1-4A9B-975E-26381AFB2AA7";
paths = (
{
closed = 1;
nodes = (
"100 450 LINE",
"250 450 LINE",
"250 850 LINE",
"100 850 LINE"
);
},
{
closed = 1;
nodes = (
"750 -500 LINE",
"900 -500 LINE",
"900 -150 LINE",
"750 -150 LINE"
);
}
);
width = 1000;
}
);
unicode = 0220;
},
{
color = 4;
export = 0;
glyphname = OU;
lastChange = "2017-12-08 11:39:41 +0000";
layers = (
{
components = (
{
name = O;
},
{
alignment = -1;
name = _halfcircle_800;
transform = "{1, 0, 0, 1, 100, 950}";
}
);
layerId = "833FD172-3601-4257-8297-A103CE2A393F";
paths = (
{
closed = 1;
nodes = (
"200 1195 LINE",
"250 1195 LINE",
"250 1200 LINE",
"200 1200 LINE"
);
},
{
closed = 1;
nodes = (
"950 1195 LINE",
"1000 1195 LINE",
"1000 1200 LINE",
"950 1200 LINE"
);
}
);
width = 1150;
},
{
components = (
{
name = O;
},
{
alignment = -1;
name = _halfcircle_800;
transform = "{1, 0, 0, 1, 100, 900}";
}
);
layerId = "926D8932-2CBE-4DA1-A7EC-AA50FD678EE5";
paths = (
{
closed = 1;
nodes = (
"200 1150 LINE",
"300 1150 LINE",
"300 1200 LINE",
"200 1200 LINE"
);
},
{
closed = 1;
nodes = (
"900 1150 LINE",
"1000 1150 LINE",
"1000 1200 LINE",
"900 1200 LINE"
);
}
);
width = 1150;
},
{
components = (
{
name = O;
},
{
alignment = -1;
name = _halfcircle_800;
transform = "{1, 0, 0, 1, 100, 850}";
}
);
layerId = "DCFDD359-D3A1-4A9B-975E-26381AFB2AA7";
paths = (
{
closed = 1;
nodes = (
"200 1100 LINE",
"350 1100 LINE",
"350 1200 LINE",
"200 1200 LINE"
);
},
{
closed = 1;
nodes = (
"850 1100 LINE",
"1000 1100 LINE",
"1000 1200 LINE",
"850 1200 LINE"
);
}
);
width = 1150;
}
);
leftMetricsKey = O;
rightMetricsKey = O;
unicode = 0222;
},
{
color = 4;
export = 0;
glyphname = Ocenteredtilde;
lastChange = "2017-12-08 11:39:41 +0000";
layers = (
{
components = (
{
name = O;
}
);
layerId = "833FD172-3601-4257-8297-A103CE2A393F";
paths = (
{
closed = 1;
nodes = (
"150 325 LINE",
"1050 325 LINE",
"1050 375 LINE",
"150 375 LINE"
);
}
);
width = 1150;
},
{
components = (
{
name = O;
}
);
layerId = "926D8932-2CBE-4DA1-A7EC-AA50FD678EE5";
paths = (
{
closed = 1;
nodes = (
"200 300 LINE",
"1000 300 LINE",
"1000 400 LINE",
"200 400 LINE"
);
}
);
width = 1150;
},
{
components = (
{
name = O;
}
);
layerId = "DCFDD359-D3A1-4A9B-975E-26381AFB2AA7";
paths = (
{
closed = 1;
nodes = (
"200 275 LINE",
"1000 275 LINE",
"1000 425 LINE",
"200 425 LINE"
);
}
);
width = 1150;
}
);
leftMetricsKey = O;
rightMetricsKey = O;
unicode = 019F;
},
{
color = 4;
export = 0;
glyphname = Oi;
lastChange = "2017-11-26 16:32:56 +0000";
layers = (
{
components = (
{
name = O;
transform = "{1, 0, 0, 1, -25, 0}";
},
{
name = _halfcircle_500;
transform = "{0, -1, 1, 0, 525, 800}";
}
);
layerId = "833FD172-3601-4257-8297-A103CE2A393F";
paths = (
{
closed = 1;
nodes = (
"1025 350 LINE",
"1075 350 LINE",
"1075 450 LINE",
"1025 450 LINE"
);
},
{
closed = 1;
nodes = (
"1475 -400 LINE",
"1525 -400 LINE",
"1525 450 LINE",
"1475 450 LINE"
);
}
);
width = 1600;
},
{
components = (
{
name = O;
},
{
name = _halfcircle_500;
transform = "{0, -1, 1, 0, 500, 800}";
}
);
layerId = "926D8932-2CBE-4DA1-A7EC-AA50FD678EE5";
paths = (
{
closed = 1;
nodes = (
"1000 350 LINE",
"1100 350 LINE",
"1100 450 LINE",
"1000 450 LINE"
);
},
{
closed = 1;
nodes = (
"1400 -400 LINE",
"1500 -400 LINE",
"1500 450 LINE",
"1400 450 LINE"
);
}
);
width = 1600;
},
{
components = (
{
name = O;
transform = "{1, 0, 0, 1, 25, 0}";
},
{
name = _halfcircle_500;
transform = "{0, -1, 1, 0, 475, 800}";
}
);
layerId = "DCFDD359-D3A1-4A9B-975E-26381AFB2AA7";
paths = (
{
closed = 1;
nodes = (
"975 350 LINE",
"1125 350 LINE",
"1125 450 LINE",
"975 450 LINE"
);
},
{
closed = 1;
nodes = (
"1325 -400 LINE",
"1475 -400 LINE",
"1475 450 LINE",
"1325 450 LINE"
);
}
);
width = 1600;
}
);
unicode = 01A2;
},
{
color = 4;
export = 0;
glyphname = Qhooktail;
lastChange = "2017-11-26 16:32:56 +0000";
layers = (
{
components = (
{
name = O;
},
{
name = _quartercircle_300;
transform = "{0, 1, -1, 0, 1750, -450}";
}
);
layerId = "833FD172-3601-4257-8297-A103CE2A393F";
paths = (
{
closed = 1;
nodes = (
"1050 -100 LINE",
"1100 -100 LINE",
"1100 350 LINE",
"1050 350 LINE"
);
}
);
width = 1200;
},
{
components = (
{
name = O;
},
{
name = _quartercircle_300;
transform = "{0, 1, -1, 0, 1700, -450}";
}
);
layerId = "926D8932-2CBE-4DA1-A7EC-AA50FD678EE5";
paths = (
{
closed = 1;
nodes = (
"1000 -100 LINE",
"1100 -100 LINE",
"1100 350 LINE",
"1000 350 LINE"
);
}
);
width = 1200;
},
{
components = (
{
name = O;
},
{
name = _quartercircle_300;
transform = "{0, 1, -1, 0, 1650, -450}";
}
);
layerId = "DCFDD359-D3A1-4A9B-975E-26381AFB2AA7";
paths = (
{
closed = 1;
nodes = (
"950 -100 LINE",
"1100 -100 LINE",
"1100 350 LINE",
"950 350 LINE"
);
}
);
width = 1200;
}
);
unicode = 024A;
},
{
color = 5;
export = 0;
glyphname = Rstroke;
lastChange = "2017-11-26 16:32:56 +0000";
layers = (
{
components = (
{
name = R;
transform = "{1, 0, 0, 1, 100, 0}";
}
);
layerId = "833FD172-3601-4257-8297-A103CE2A393F";
paths = (
{
closed = 1;
nodes = (
"50 325 LINE",
"200 325 LINE",
"200 375 LINE",
"50 375 LINE"
);
}
);
width = 950;
},
{
components = (
{
name = R;
transform = "{1, 0, 0, 1, 100, 0}";
}
);
layerId = "926D8932-2CBE-4DA1-A7EC-AA50FD678EE5";
paths = (
{
closed = 1;
nodes = (
"50 300 LINE",
"200 300 LINE",
"200 400 LINE",
"50 400 LINE"
);
}
);
width = 950;
},
{
components = (
{
name = R;
transform = "{1, 0, 0, 1, 100, 0}";
}
);
layerId = "DCFDD359-D3A1-4A9B-975E-26381AFB2AA7";
paths = (
{
closed = 1;
nodes = (
"50 275 LINE",
"200 275 LINE",
"200 425 LINE",
"50 425 LINE"
);
}
);
width = 950;
}
);
unicode = 024C;
},
{
color = 5;
export = 0;
glyphname = Germandbls;
lastChange = "2017-11-26 16:32:56 +0000";
layers = (
{
components = (
{
name = _halfcircle_550;
transform = "{1, 0, 0, 1, 525, 0}";
}
);
layerId = "926D8932-2CBE-4DA1-A7EC-AA50FD678EE5";
paths = (
{
closed = 1;
nodes = (
"200 -150 LINE",
"300 -150 LINE",
"300 650 LINE",
"200 650 LINE"
);
},
{
closed = 1;
nodes = (
"200 760 OFFCURVE",
"290 850 OFFCURVE",
"400 850 CURVE",
"400 750 LINE",
"345 750 OFFCURVE",
"300 705 OFFCURVE",
"300 650 CURVE",
"200 650 LINE"
);
},
{
closed = 1;
nodes = (
"440 320 LINE",
"530 270 LINE",
"800 750 LINE",
"800 850 LINE",
"400 850 LINE",
"400 750 LINE",
"680 750 LINE"
);
},
{
closed = 1;
nodes = (
"100 -150 LINE",
"300 -150 LINE",
"300 -50 LINE",
"100 -50 LINE"
);
},
{
closed = 1;
nodes = (
"455.049 -117.421 OFFCURVE",
"524.346 -150 OFFCURVE",
"600 -150 CURVE",
"600 -50 LINE",
"551.88 -50 OFFCURVE",
"507.591 -28.662 OFFCURVE",
"476.289 6.289 CURVE",
"405.604 -64.396 LINE"
);
},
{
closed = 1;
nodes = (
"510 290 LINE",
"530 270 LINE",
"550 290 OFFCURVE",
"575 300 OFFCURVE",
"600 300 CURVE",
"600 400 LINE",
"545 400 OFFCURVE",
"495 380 OFFCURVE",
"460 340 CURVE"
);
}
);
width = 950;
},
{
components = (
{
name = _halfcircle_550;
transform = "{1, 0, 0, 1, 525, 0}";
}
);
layerId = "DCFDD359-D3A1-4A9B-975E-26381AFB2AA7";
paths = (
{
closed = 1;
nodes = (
"200 -150 LINE",
"350 -150 LINE",
"350 650 LINE",
"200 650 LINE"
);
},
{
closed = 1;
nodes = (
"200 760 OFFCURVE",
"290 850 OFFCURVE",
"400 850 CURVE",
"400 700 LINE",
"365 700 OFFCURVE",
"350 685 OFFCURVE",
"350 650 CURVE",
"200 650 LINE"
);
},
{
closed = 1;
nodes = (
"395 345 LINE",
"530 270 LINE",
"800 750 LINE",
"800 850 LINE",
"400 850 LINE",
"400 700 LINE",
"605 700 LINE"
);
},
{
closed = 1;
nodes = (
"100 -150 LINE",
"300 -150 LINE",
"300 0 LINE",
"100 0 LINE"
);
},
{
closed = 1;
nodes = (
"455.049 -117.421 OFFCURVE",
"524.346 -150 OFFCURVE",
"600 -150 CURVE",
"600 0 LINE",
"570 0 OFFCURVE",
"535 15 OFFCURVE",
"510 40 CURVE",
"405.604 -64.396 LINE"
);
},
{
closed = 1;
nodes = (
"530 270 LINE",
"570 250 LINE",
"585 250 OFFCURVE",
"585 250 OFFCURVE",
"600 250 CURVE",
"600 400 LINE",
"545 400 OFFCURVE",
"495 380 OFFCURVE",
"460 340 CURVE"
);
}
);
width = 950;
},
{
components = (
{
name = _halfcircle_550;
transform = "{1, 0, 0, 1, 525, 0}";
}
);
layerId = "833FD172-3601-4257-8297-A103CE2A393F";
paths = (
{
closed = 1;
nodes = (
"200 -150 LINE",
"250 -150 LINE",
"250 650 LINE",
"200 650 LINE"
);
},
{
closed = 1;
nodes = (
"200 760 OFFCURVE",
"290 850 OFFCURVE",
"400 850 CURVE",
"400 800 LINE",
"320 800 OFFCURVE",
"250 730 OFFCURVE",
"250 650 CURVE",
"200 650 LINE"
);
},
{
closed = 1;
nodes = (
"450 355 LINE",
"485 320 LINE",
"800 800 LINE",
"800 850 LINE",
"400 850 LINE",
"400 800 LINE",
"740 800 LINE"
);
},
{
closed = 1;
nodes = (
"100 -150 LINE",
"250 -150 LINE",
"250 -100 LINE",
"100 -100 LINE"
);
},
{
closed = 1;
nodes = (
"455 -120 OFFCURVE",
"525 -150 OFFCURVE",
"600 -150 CURVE",
"600 -100 LINE",
"537 -100 OFFCURVE",
"481 -75 OFFCURVE",
"440 -35 CURVE",
"405 -70 LINE"
);
},
{
closed = 1;
nodes = (
"475 330 LINE",
"485 320 LINE",
"520 340 OFFCURVE",
"560 350 OFFCURVE",
"600 350 CURVE",
"600 400 LINE",
"545 400 OFFCURVE",
"495 385 OFFCURVE",
"450 355 CURVE"
);
}
);
width = 950;
}
);
unicode = 1E9E;
},
{
color = 5;
export = 0;
glyphname = Schwa;
lastChange = "2017-11-26 16:32:56 +0000";
layers = (
{
anchors = (
{
name = bottom;
position = "{600, -150}";
},
{
name = top;
position = "{600, 850}";
}
);
layerId = "833FD172-3601-4257-8297-A103CE2A393F";
paths = (
{
closed = 1;
nodes = (
"280 670 LINE",
"365 750 OFFCURVE",
"475 800 OFFCURVE",
"600 800 CURVE SMOOTH",
"850 800 OFFCURVE",
"1050 600 OFFCURVE",
"1050 350 CURVE SMOOTH",
"1050 105 OFFCURVE",
"850 -100 OFFCURVE",
"600 -100 CURVE SMOOTH",
"355 -100 OFFCURVE",
"150 105 OFFCURVE",
"150 350 CURVE SMOOTH",
"150 350 OFFCURVE",
"150 350 OFFCURVE",
"150 350 CURVE SMOOTH",
"100 350 LINE SMOOTH",
"100 350 OFFCURVE",
"100 350 OFFCURVE",
"100 350 CURVE SMOOTH",
"100 75 OFFCURVE",
"325 -150 OFFCURVE",
"600 -150 CURVE SMOOTH",
"875 -150 OFFCURVE",
"1100 75 OFFCURVE",
"1100 350 CURVE SMOOTH",
"1100 625 OFFCURVE",
"875 850 OFFCURVE",
"600 850 CURVE SMOOTH",
"465 850 OFFCURVE",
"340 795 OFFCURVE",
"245 705 CURVE"
);
},
{
closed = 1;
nodes = (
"150 325 LINE",
"1050 325 LINE",
"1050 375 LINE",
"150 375 LINE"
);
},
{
closed = 1;
nodes = (
"100 350 LINE",
"150 350 LINE",
"150 375 LINE",
"100 375 LINE"
);
}
);
width = 1200;
},
{
anchors = (
{
name = bottom;
position = "{600, -150}";
},
{
name = top;
position = "{600, 850}";
}
);
layerId = "926D8932-2CBE-4DA1-A7EC-AA50FD678EE5";
paths = (
{
closed = 1;
nodes = (
"315 630 LINE",
"390 705 OFFCURVE",
"490 750 OFFCURVE",
"600 750 CURVE SMOOTH",
"820 750 OFFCURVE",
"1000 570 OFFCURVE",
"1000 350 CURVE SMOOTH",
"1000 130 OFFCURVE",
"820 -50 OFFCURVE",
"600 -50 CURVE SMOOTH",
"380 -50 OFFCURVE",
"200 130 OFFCURVE",
"200 350 CURVE SMOOTH",
"200 350 OFFCURVE",
"200 350 OFFCURVE",
"200 350 CURVE SMOOTH",
"100 350 LINE SMOOTH",
"100 350 OFFCURVE",
"100 350 OFFCURVE",
"100 350 CURVE SMOOTH",
"100 75 OFFCURVE",
"325 -150 OFFCURVE",
"600 -150 CURVE SMOOTH",
"875 -150 OFFCURVE",
"1100 75 OFFCURVE",
"1100 350 CURVE SMOOTH",
"1100 625 OFFCURVE",
"875 850 OFFCURVE",
"600 850 CURVE SMOOTH",
"460 850 OFFCURVE",
"335 795 OFFCURVE",
"245 705 CURVE"
);
},
{
closed = 1;
nodes = (
"150 300 LINE",
"1050 300 LINE",
"1050 400 LINE",
"150 400 LINE"
);
},
{
closed = 1;
nodes = (
"100 350 LINE",
"150 350 LINE",
"150 400 LINE",
"100 400 LINE"
);
}
);
width = 1200;
},
{
anchors = (
{
name = bottom;
position = "{600, -150}";
},
{
name = top;
position = "{600, 850}";
}
);
layerId = "DCFDD359-D3A1-4A9B-975E-26381AFB2AA7";
paths = (
{
closed = 1;
nodes = (
"350 600 LINE",
"415 660 OFFCURVE",
"505 700 OFFCURVE",
"600 700 CURVE SMOOTH",
"795 700 OFFCURVE",
"950 545 OFFCURVE",
"950 350 CURVE SMOOTH",
"950 155 OFFCURVE",
"795 0 OFFCURVE",
"600 0 CURVE SMOOTH",
"405 0 OFFCURVE",
"250 155 OFFCURVE",
"250 350 CURVE SMOOTH",
"250 350 OFFCURVE",
"250 350 OFFCURVE",
"250 350 CURVE",
"100 350 LINE SMOOTH",
"100 350 OFFCURVE",
"100 350 OFFCURVE",
"100 350 CURVE SMOOTH",
"100 75 OFFCURVE",
"325 -150 OFFCURVE",
"600 -150 CURVE SMOOTH",
"875 -150 OFFCURVE",
"1100 75 OFFCURVE",
"1100 350 CURVE SMOOTH",
"1100 625 OFFCURVE",
"875 850 OFFCURVE",
"600 850 CURVE SMOOTH",
"460 850 OFFCURVE",
"340 795 OFFCURVE",
"245 705 CURVE"
);
},
{
closed = 1;
nodes = (
"150 275 LINE",
"1050 275 LINE",
"1050 425 LINE",
"150 425 LINE"
);
},
{
closed = 1;
nodes = (
"100 350 LINE",
"150 350 LINE",
"150 425 LINE",
"100 425 LINE"
);
}
);
width = 1200;
}
);
unicode = 018F;
},
{
color = 3;
export = 0;
glyphname = Tbar;
lastChange = "2017-12-08 11:39:41 +0000";
layers = (
{
components = (
{
name = T;
}
);
layerId = "926D8932-2CBE-4DA1-A7EC-AA50FD678EE5";
paths = (
{
closed = 1;
nodes = (
"200 300 LINE",
"600 300 LINE",
"600 400 LINE",
"200 400 LINE"
);
}
);
width = 750;
},
{
components = (
{
name = T;
}
);
layerId = "DCFDD359-D3A1-4A9B-975E-26381AFB2AA7";
paths = (
{
closed = 1;
nodes = (
"200 275 LINE",
"600 275 LINE",
"600 425 LINE",
"200 425 LINE"
);
}
);
width = 750;
},
{
components = (
{
name = T;
}
);
layerId = "833FD172-3601-4257-8297-A103CE2A393F";
paths = (
{
closed = 1;
nodes = (
"200 325 LINE",
"600 325 LINE",
"600 375 LINE",
"200 375 LINE"
);
}
);
width = 750;
}
);
leftMetricsKey = "=|F";
rightMetricsKey = F;
unicode = 0166;
},
{
color = 3;
export = 0;
glyphname = Tdiagonalstroke;
lastChange = "2017-11-26 16:32:56 +0000";
layers = (
{
components = (
{
name = T;
}
);
layerId = "833FD172-3601-4257-8297-A103CE2A393F";
paths = (
{
closed = 1;
nodes = (
"100 -300 LINE",
"160 -300 LINE",
"700 1000 LINE",
"640 1000 LINE"
);
}
);
width = 800;
},
{
components = (
{
name = T;
}
);
layerId = "926D8932-2CBE-4DA1-A7EC-AA50FD678EE5";
paths = (
{
closed = 1;
nodes = (
"100 -300 LINE",
"220 -300 LINE",
"700 1000 LINE",
"580 1000 LINE"
);
}
);
width = 800;
},
{
components = (
{
name = T;
}
);
layerId = "DCFDD359-D3A1-4A9B-975E-26381AFB2AA7";
paths = (
{
closed = 1;
nodes = (
"100 -300 LINE",
"280 -300 LINE",
"700 1000 LINE",
"520 1000 LINE"
);
}
);
width = 800;
}
);
unicode = 023E;
},
{
color = 4;
export = 0;
glyphname = Thook;
lastChange = "2017-12-08 11:39:41 +0000";
layers = (
{
anchors = (
{
name = bottom;
position = "{475, -150}";
},
{
name = center;
position = "{475, 350}";
},
{
name = top;
position = "{475, 850}";
}
);
components = (
{
name = _quartercircle_300;
transform = "{1, 0, 0, 1, 25, 150}";
}
);
hints = (
{
horizontal = 1;
place = "{800, 50}";
},
{
place = "{475, 50}";
}
);
layerId = "833FD172-3601-4257-8297-A103CE2A393F";
paths = (
{
closed = 1;
nodes = (
"450 -150 LINE",
"500 -150 LINE",
"500 850 LINE",
"450 850 LINE"
);
},
{
closed = 1;
nodes = (
"375 800 LINE",
"775 800 LINE",
"775 850 LINE",
"375 850 LINE"
);
}
);
width = 850;
},
{
anchors = (
{
name = bottom;
position = "{475, -150}";
},
{
name = center;
position = "{475, 350}";
},
{
name = top;
position = "{475, 850}";
}
);
components = (
{
name = _quartercircle_300;
transform = "{1, 0, 0, 1, 25, 150}";
}
);
hints = (
{
horizontal = 1;
origin = "{1, 0}";
target = "{1, 3}";
},
{
origin = "{0, 0}";
target = "{0, 1}";
}
);
layerId = "926D8932-2CBE-4DA1-A7EC-AA50FD678EE5";
paths = (
{
closed = 1;
nodes = (
"425 -150 LINE",
"525 -150 LINE",
"525 850 LINE",
"425 850 LINE"
);
},
{
closed = 1;
nodes = (
"375 750 LINE",
"775 750 LINE",
"775 850 LINE",
"375 850 LINE"
);
}
);
width = 850;
},
{
anchors = (
{
name = bottom;
position = "{475, -150}";
},
{
name = center;
position = "{475, 350}";
},
{
name = top;
position = "{475, 850}";
}
);
components = (
{
name = _quartercircle_300;
transform = "{1, 0, 0, 1, 25, 150}";
}
);
hints = (
{
horizontal = 1;
origin = "{1, 0}";
target = "{1, 3}";
},
{
origin = "{0, 0}";
target = "{0, 1}";
}
);
layerId = "DCFDD359-D3A1-4A9B-975E-26381AFB2AA7";
paths = (
{
closed = 1;
nodes = (
"400 -150 LINE",
"550 -150 LINE",
"550 850 LINE",
"400 850 LINE"
);
},
{
closed = 1;
nodes = (
"375 700 LINE",
"775 700 LINE",
"775 850 LINE",
"375 850 LINE"
);
}
);
width = 850;
}
);
leftMetricsKey = T;
rightMetricsKey = T;
unicode = 01AC;
},
{
color = 4;
export = 0;
glyphname = Tonesix;
lastChange = "2017-12-08 11:39:41 +0000";
layers = (
{
layerId = "833FD172-3601-4257-8297-A103CE2A393F";
paths = (
{
closed = 1;
nodes = (
"1075 275 OFFCURVE",
"950 400 OFFCURVE",
"800 400 CURVE",
"800 350 LINE",
"925 350 OFFCURVE",
"1025 250 OFFCURVE",
"1025 125 CURVE SMOOTH",
"1025 0 OFFCURVE",
"925 -100 OFFCURVE",
"800 -100 CURVE",
"800 -150 LINE",
"950 -150 OFFCURVE",
"1075 -25 OFFCURVE",
"1075 125 CURVE SMOOTH"
);
},
{
closed = 1;
nodes = (
"800 350 LINE",
"800 400 LINE",
"425 400 LINE",
"425 350 LINE"
);
},
{
closed = 1;
nodes = (
"475 850 LINE",
"425 850 LINE",
"425 -150 LINE",
"475 -150 LINE"
);
},
{
closed = 1;
nodes = (
"425 -150 LINE",
"800 -150 LINE",
"800 -100 LINE",
"425 -100 LINE"
);
},
{
closed = 1;
nodes = (
"475 800 LINE",
"475 850 LINE",
"125 850 LINE",
"125 800 LINE"
);
}
);
width = 1150;
},
{
layerId = "926D8932-2CBE-4DA1-A7EC-AA50FD678EE5";
paths = (
{
closed = 1;
nodes = (
"1125 275 OFFCURVE",
"1000 400 OFFCURVE",
"855 400 CURVE",
"855 300 LINE",
"945 300 OFFCURVE",
"1025 220 OFFCURVE",
"1025 130 CURVE SMOOTH",
"1025 30 OFFCURVE",
"945 -50 OFFCURVE",
"855 -50 CURVE",
"855 -150 LINE",
"1000 -150 OFFCURVE",
"1125 -25 OFFCURVE",
"1125 130 CURVE SMOOTH"
);
},
{
closed = 1;
nodes = (
"855 300 LINE",
"855 400 LINE",
"475 400 LINE",
"475 300 LINE"
);
},
{
closed = 1;
nodes = (
"575 850 LINE",
"475 850 LINE",
"475 -150 LINE",
"575 -150 LINE"
);
},
{
closed = 1;
nodes = (
"475 -150 LINE",
"855 -150 LINE",
"855 -50 LINE",
"475 -50 LINE"
);
},
{
closed = 1;
nodes = (
"575 750 LINE",
"575 850 LINE",
"125 850 LINE",
"125 750 LINE"
);
}
);
width = 1200;
},
{
layerId = "DCFDD359-D3A1-4A9B-975E-26381AFB2AA7";
paths = (
{
closed = 1;
nodes = (
"1125 300 OFFCURVE",
"995 430 OFFCURVE",
"835 430 CURVE",
"835 270 LINE",
"910 270 OFFCURVE",
"970 210 OFFCURVE",
"970 135 CURVE SMOOTH",
"970 60 OFFCURVE",
"910 0 OFFCURVE",
"835 0 CURVE",
"835 -150 LINE",
"995 -150 OFFCURVE",
"1125 -20 OFFCURVE",
"1125 140 CURVE SMOOTH"
);
},
{
closed = 1;
nodes = (
"835 270 LINE",
"835 430 LINE",
"475 430 LINE",
"475 270 LINE"
);
},
{
closed = 1;
nodes = (
"625 850 LINE",
"475 850 LINE",
"475 -150 LINE",
"625 -150 LINE"
);
},
{
closed = 1;
nodes = (
"475 -150 LINE",
"835 -150 LINE",
"835 0 LINE",
"475 0 LINE"
);
},
{
closed = 1;
nodes = (
"625 700 LINE",
"625 850 LINE",
"125 850 LINE",
"125 700 LINE"
);
}
);
width = 1200;
}
);
leftMetricsKey = B;
rightMetricsKey = B;
unicode = 0184;
},
{
color = 5;
export = 0;
glyphname = Ubar;
lastChange = "2017-11-26 16:32:56 +0000";
layers = (
{
components = (
{
name = U;
transform = "{1, 0, 0, 1, 100, 0}";
}
);
layerId = "833FD172-3601-4257-8297-A103CE2A393F";
paths = (
{
closed = 1;
nodes = (
"50 425 LINE",
"1150 425 LINE",
"1150 475 LINE",
"50 475 LINE"
);
}
);
width = 1200;
},
{
components = (
{
name = U;
transform = "{1, 0, 0, 1, 100, 0}";
}
);
layerId = "926D8932-2CBE-4DA1-A7EC-AA50FD678EE5";
paths = (
{
closed = 1;
nodes = (
"50 400 LINE",
"1150 400 LINE",
"1150 500 LINE",
"50 500 LINE"
);
}
);
width = 1200;
},
{
components = (
{
name = U;
transform = "{1, 0, 0, 1, 100, 0}";
}
);
layerId = "DCFDD359-D3A1-4A9B-975E-26381AFB2AA7";
paths = (
{
closed = 1;
nodes = (
"50 375 LINE",
"1150 375 LINE",
"1150 525 LINE",
"50 525 LINE"
);
}
);
width = 1200;
}
);
unicode = 0244;
},
{
color = 4;
export = 0;
glyphname = Vhook;
lastChange = "2017-12-08 11:39:41 +0000";
layers = (
{
anchors = (
{
name = bottom;
position = "{525, -150}";
}
);
components = (
{
name = _halfcircle_800;
transform = "{1, 0, 0, 1, 25, 0}";
},
{
name = _halfcircle_500;
transform = "{0, -1, 1, 0, -75, 950}";
}
);
layerId = "833FD172-3601-4257-8297-A103CE2A393F";
paths = (
{
closed = 1;
nodes = (
"125 250 LINE",
"175 250 LINE",
"175 850 LINE",
"125 850 LINE"
);
},
{
closed = 1;
nodes = (
"875 250 LINE",
"925 250 LINE",
"925 600 LINE",
"875 600 LINE"
);
}
);
width = 1050;
},
{
anchors = (
{
name = bottom;
position = "{525, -150}";
}
);
components = (
{
name = _halfcircle_800;
transform = "{1, 0, 0, 1, 25, 0}";
},
{
name = _halfcircle_500;
transform = "{0, -1, 1, 0, -75, 950}";
}
);
layerId = "926D8932-2CBE-4DA1-A7EC-AA50FD678EE5";
paths = (
{
closed = 1;
nodes = (
"125 250 LINE",
"225 250 LINE",
"225 850 LINE",
"125 850 LINE"
);
},
{
closed = 1;
nodes = (
"825 250 LINE",
"925 250 LINE",
"925 600 LINE",
"825 600 LINE"
);
}
);
width = 1050;
},
{
anchors = (
{
name = bottom;
position = "{525, -150}";
}
);
components = (
{
name = _halfcircle_800;
transform = "{1, 0, 0, 1, 25, 0}";
},
{
name = _halfcircle_500;
transform = "{0, -1, 1, 0, -75, 950}";
}
);
layerId = "DCFDD359-D3A1-4A9B-975E-26381AFB2AA7";
paths = (
{
closed = 1;
nodes = (
"125 250 LINE",
"275 250 LINE",
"275 850 LINE",
"125 850 LINE"
);
},
{
closed = 1;
nodes = (
"775 250 LINE",
"925 250 LINE",
"925 600 LINE",
"775 600 LINE"
);
}
);
width = 1050;
}
);
leftMetricsKey = U;
rightMetricsKey = U;
unicode = 01B2;
},
{
color = 3;
export = 0;
glyphname = Yhook;
lastChange = "2017-11-26 16:32:56 +0000";
layers = (
{
anchors = (
{
name = bottom;
position = "{450, -150}";
}
);
layerId = "833FD172-3601-4257-8297-A103CE2A393F";
paths = (
{
closed = 1;
nodes = (
"970 800 LINE",
"975 800 LINE",
"975 850 LINE",
"970 850 LINE"
);
},
{
closed = 1;
nodes = (
"945 850 LINE",
"945 800 LINE",
"975 800 LINE",
"975 850 LINE"
);
},
{
closed = 1;
nodes = (
"792 770 OFFCURVE",
"858 800 OFFCURVE",
"945 800 CURVE",
"945 850 LINE",
"846 850 OFFCURVE",
"767 811 OFFCURVE",
"710 735 CURVE",
"750 710 LINE"
);
},
{
closed = 1;
nodes = (
"50 850 LINE",
"425 345 LINE",
"425 -150 LINE",
"475 -150 LINE",
"475 345 LINE",
"750 710 LINE",
"710 735 LINE",
"450 390 LINE",
"110 850 LINE"
);
}
);
width = 1050;
},
{
anchors = (
{
name = bottom;
position = "{450, -150}";
}
);
layerId = "926D8932-2CBE-4DA1-A7EC-AA50FD678EE5";
paths = (
{
closed = 1;
nodes = (
"940 750 LINE",
"950 750 LINE",
"950 850 LINE",
"940 850 LINE"
);
},
{
closed = 1;
nodes = (
"890 850 LINE",
"890 750 LINE",
"940 750 LINE",
"940 850 LINE"
);
},
{
closed = 1;
nodes = (
"763 720 OFFCURVE",
"819 750 OFFCURVE",
"890 750 CURVE",
"890 850 LINE",
"780 850 OFFCURVE",
"695 806 OFFCURVE",
"640 720 CURVE",
"725 660 LINE"
);
},
{
closed = 1;
nodes = (
"50 850 LINE",
"400 335 LINE",
"400 -150 LINE",
"500 -150 LINE",
"500 335 LINE",
"725 660 LINE",
"640 720 LINE",
"450 440 LINE",
"170 850 LINE"
);
}
);
width = 1050;
},
{
anchors = (
{
name = bottom;
position = "{450, -150}";
}
);
layerId = "DCFDD359-D3A1-4A9B-975E-26381AFB2AA7";
paths = (
{
closed = 1;
nodes = (
"915 700 LINE",
"950 700 LINE",
"950 850 LINE",
"915 850 LINE"
);
},
{
closed = 1;
nodes = (
"840 850 LINE",
"840 700 LINE",
"915 700 LINE",
"915 850 LINE"
);
},
{
closed = 1;
nodes = (
"743 675 OFFCURVE",
"787 700 OFFCURVE",
"840 700 CURVE",
"840 850 LINE",
"730 850 OFFCURVE",
"643 798 OFFCURVE",
"580 695 CURVE",
"710 625 LINE"
);
},
{
closed = 1;
nodes = (
"50 850 LINE",
"375 330 LINE",
"375 -150 LINE",
"525 -150 LINE",
"525 330 LINE",
"710 625 LINE",
"580 695 LINE",
"450 495 LINE",
"230 850 LINE"
);
}
);
width = 1050;
}
);
unicode = 01B3;
},
{
color = 4;
export = 0;
glyphname = Yr;
lastChange = "2017-11-26 16:32:56 +0000";
layers = (
{
hints = (
{
horizontal = 1;
origin = "{3, 3}";
target = "{2, 2}";
},
{
horizontal = 1;
origin = "{1, 0}";
target = "{0, 3}";
},
{
origin = "{0, 0}";
target = "{0, 1}";
},
{
origin = "{3, 13}";
target = "{3, 6}";
}
);
layerId = "833FD172-3601-4257-8297-A103CE2A393F";
paths = (
{
closed = 1;
nodes = (
"100 -150 LINE",
"150 -150 LINE",
"150 1000 LINE",
"100 1000 LINE"
);
},
{
closed = 1;
nodes = (
"100 800 LINE",
"435 800 LINE",
"435 850 LINE",
"100 850 LINE"
);
},
{
closed = 1;
nodes = (
"100 325 LINE",
"435 325 LINE",
"435 375 LINE",
"100 375 LINE"
);
},
{
closed = 1;
nodes = (
"650 470 OFFCURVE",
"550 375 OFFCURVE",
"435 375 CURVE",
"435 325 LINE",
"580 325 OFFCURVE",
"700 445 OFFCURVE",
"700 590 CURVE SMOOTH",
"700 730 OFFCURVE",
"585 850 OFFCURVE",
"435 850 CURVE",
"435 800 LINE",
"555 800 OFFCURVE",
"650 705 OFFCURVE",
"650 590 CURVE SMOOTH"
);
},
{
closed = 1;
nodes = (
"835 -300 LINE",
"460 350 LINE",
"400 350 LINE",
"775 -300 LINE"
);
}
);
width = 850;
},
{
hints = (
{
horizontal = 1;
origin = "{2, 0}";
target = "{2, 3}";
},
{
horizontal = 1;
origin = "{1, 0}";
target = "{0, 3}";
},
{
origin = "{0, 0}";
target = "{0, 1}";
},
{
origin = "{3, 13}";
target = "{3, 6}";
}
);
layerId = "926D8932-2CBE-4DA1-A7EC-AA50FD678EE5";
paths = (
{
closed = 1;
nodes = (
"100 -150 LINE",
"200 -150 LINE",
"200 1000 LINE",
"100 1000 LINE"
);
},
{
closed = 1;
nodes = (
"100 750 LINE",
"430 750 LINE",
"430 850 LINE",
"100 850 LINE"
);
},
{
closed = 1;
nodes = (
"100 300 LINE",
"430 300 LINE",
"430 400 LINE",
"100 400 LINE"
);
},
{
closed = 1;
nodes = (
"600 480 OFFCURVE",
"520 400 OFFCURVE",
"430 400 CURVE",
"430 300 LINE",
"575 300 OFFCURVE",
"700 425 OFFCURVE",
"700 580 CURVE SMOOTH",
"700 725 OFFCURVE",
"575 850 OFFCURVE",
"430 850 CURVE",
"430 750 LINE",
"520 750 OFFCURVE",
"600 670 OFFCURVE",
"600 580 CURVE SMOOTH"
);
},
{
closed = 1;
nodes = (
"835 -300 LINE",
"430 400 LINE",
"310 400 LINE",
"715 -300 LINE"
);
}
);
width = 850;
},
{
hints = (
{
horizontal = 1;
place = "{270, 160}";
},
{
horizontal = 1;
place = "{700, 150}";
},
{
place = "{100, 150}";
},
{
place = "{545, 155}";
}
);
layerId = "DCFDD359-D3A1-4A9B-975E-26381AFB2AA7";
paths = (
{
closed = 1;
nodes = (
"100 -150 LINE",
"250 -150 LINE",
"250 1000 LINE",
"100 1000 LINE"
);
},
{
closed = 1;
nodes = (
"100 700 LINE",
"410 700 LINE",
"410 850 LINE",
"100 850 LINE"
);
},
{
closed = 1;
nodes = (
"100 270 LINE",
"410 270 LINE",
"410 430 LINE",
"100 430 LINE"
);
},
{
closed = 1;
nodes = (
"545 490 OFFCURVE",
"485 430 OFFCURVE",
"410 430 CURVE",
"410 270 LINE",
"570 270 OFFCURVE",
"700 400 OFFCURVE",
"700 560 CURVE SMOOTH",
"700 720 OFFCURVE",
"570 850 OFFCURVE",
"410 850 CURVE",
"410 700 LINE",
"485 700 OFFCURVE",
"545 640 OFFCURVE",
"545 565 CURVE SMOOTH"
);
},
{
closed = 1;
nodes = (
"885 -300 LINE",
"480 400 LINE",
"300 400 LINE",
"705 -300 LINE"
);
}
);
width = 850;
}
);
unicode = 01A6;
},
{
color = 4;
export = 0;
glyphname = Ystroke;
lastChange = "2017-11-26 16:32:56 +0000";
layers = (
{
components = (
{
name = Y;
}
);
layerId = "833FD172-3601-4257-8297-A103CE2A393F";
paths = (
{
closed = 1;
nodes = (
"50 325 LINE",
"850 325 LINE",
"850 375 LINE",
"50 375 LINE"
);
}
);
width = 900;
},
{
components = (
{
name = Y;
}
);
layerId = "926D8932-2CBE-4DA1-A7EC-AA50FD678EE5";
paths = (
{
closed = 1;
nodes = (
"50 300 LINE",
"850 300 LINE",
"850 400 LINE",
"50 400 LINE"
);
}
);
width = 900;
},
{
components = (
{
name = Y;
}
);
layerId = "DCFDD359-D3A1-4A9B-975E-26381AFB2AA7";
paths = (
{
closed = 1;
nodes = (
"50 275 LINE",
"850 275 LINE",
"850 425 LINE",
"50 425 LINE"
);
}
);
width = 900;
}
);
unicode = 024E;
},
{
color = 4;
export = 0;
glyphname = Zstroke;
lastChange = "2017-11-26 16:32:56 +0000";
layers = (
{
components = (
{
name = Z;
}
);
layerId = "833FD172-3601-4257-8297-A103CE2A393F";
paths = (
{
closed = 1;
nodes = (
"100 325 LINE",
"800 325 LINE",
"800 375 LINE",
"100 375 LINE"
);
}
);
width = 900;
},
{
components = (
{
name = Z;
}
);
layerId = "926D8932-2CBE-4DA1-A7EC-AA50FD678EE5";
paths = (
{
closed = 1;
nodes = (
"100 300 LINE",
"800 300 LINE",
"800 400 LINE",
"100 400 LINE"
);
}
);
width = 900;
},
{
components = (
{
name = Z;
}
);
layerId = "DCFDD359-D3A1-4A9B-975E-26381AFB2AA7";
paths = (
{
closed = 1;
nodes = (
"100 275 LINE",
"800 275 LINE",
"800 425 LINE",
"100 425 LINE"
);
}
);
width = 900;
}
);
unicode = 01B5;
},
{
color = 5;
glyphname = a;
lastChange = "2017-12-09 10:01:38 +0000";
layers = (
{
anchors = (
{
name = bottom;
position = "{425, 0}";
},
{
name = ogonek;
position = "{725, 0}";
},
{
name = top;
position = "{425, 700}";
}
);
hints = (
{
horizontal = 1;
origin = "{0, 17}";
target = "{0, 25}";
},
{
horizontal = 1;
origin = "{0, 27}";
target = "{0, 11}";
},
{
horizontal = 1;
origin = "{0, 3}";
target = "{0, 33}";
},
{
origin = "{0, 14}";
target = "{0, 36}";
},
{
origin = "{0, 7}";
target = "{0, 28}";
},
{
origin = "{0, 36}";
target = "{0, 17}";
}
);
layerId = "926D8932-2CBE-4DA1-A7EC-AA50FD678EE5";
paths = (
{
closed = 1;
nodes = (
"255 570 LINE",
"275 590 OFFCURVE",
"300 600 OFFCURVE",
"325 600 CURVE SMOOTH",
"475 600 LINE SMOOTH",
"530 600 OFFCURVE",
"575 555 OFFCURVE",
"575 500 CURVE SMOOTH",
"575 445 OFFCURVE",
"530 400 OFFCURVE",
"475 400 CURVE SMOOTH",
"275 400 LINE SMOOTH",
"165 400 OFFCURVE",
"75 310 OFFCURVE",
"75 200 CURVE SMOOTH",
"75 90 OFFCURVE",
"165 0 OFFCURVE",
"275 0 CURVE SMOOTH",
"475 0 LINE SMOOTH",
"530 0 OFFCURVE",
"585 25 OFFCURVE",
"620 65 CURVE",
"655 25 OFFCURVE",
"710 0 OFFCURVE",
"775 0 CURVE",
"775 100 LINE",
"715 100 OFFCURVE",
"675 140 OFFCURVE",
"675 200 CURVE SMOOTH",
"675 500 LINE SMOOTH",
"675 610 OFFCURVE",
"585 700 OFFCURVE",
"475 700 CURVE SMOOTH",
"325 700 LINE SMOOTH",
"270 700 OFFCURVE",
"220 675 OFFCURVE",
"185 640 CURVE"
);
},
{
closed = 1;
nodes = (
"175 255 OFFCURVE",
"220 300 OFFCURVE",
"275 300 CURVE SMOOTH",
"475 300 LINE SMOOTH",
"510 300 OFFCURVE",
"545 310 OFFCURVE",
"575 325 CURVE",
"575 200 LINE SMOOTH",
"575 145 OFFCURVE",
"530 100 OFFCURVE",
"475 100 CURVE SMOOTH",
"275 100 LINE SMOOTH",
"220 100 OFFCURVE",
"175 145 OFFCURVE",
"175 200 CURVE SMOOTH"
);
}
);
width = 800;
},
{
anchors = (
{
name = bottom;
position = "{425, 0}";
},
{
name = ogonek;
position = "{700, 0}";
},
{
name = top;
position = "{425, 700}";
}
);
layerId = "DCFDD359-D3A1-4A9B-975E-26381AFB2AA7";
paths = (
{
closed = 1;
nodes = (
"290 535 LINE",
"300 545 OFFCURVE",
"310 550 OFFCURVE",
"325 550 CURVE SMOOTH",
"460 550 LINE SMOOTH",
"495 550 OFFCURVE",
"525 525 OFFCURVE",
"525 490 CURVE SMOOTH",
"525 460 OFFCURVE",
"495 430 OFFCURVE",
"460 430 CURVE SMOOTH",
"290 430 LINE SMOOTH",
"170 430 OFFCURVE",
"75 335 OFFCURVE",
"75 215 CURVE SMOOTH",
"75 95 OFFCURVE",
"170 0 OFFCURVE",
"290 0 CURVE SMOOTH",
"475 0 LINE SMOOTH",
"525 0 OFFCURVE",
"575 20 OFFCURVE",
"610 50 CURVE",
"655 20 OFFCURVE",
"715 0 OFFCURVE",
"775 0 CURVE",
"775 100 LINE",
"715 100 OFFCURVE",
"675 140 OFFCURVE",
"675 200 CURVE SMOOTH",
"675 500 LINE",
"670 615 OFFCURVE",
"575 700 OFFCURVE",
"460 700 CURVE SMOOTH",
"325 700 LINE SMOOTH",
"270 700 OFFCURVE",
"220 680 OFFCURVE",
"185 640 CURVE"
);
},
{
closed = 1;
nodes = (
"225 245 OFFCURVE",
"255 275 OFFCURVE",
"290 275 CURVE SMOOTH",
"460 275 LINE SMOOTH",
"485 275 OFFCURVE",
"505 280 OFFCURVE",
"525 285 CURVE",
"525 200 LINE SMOOTH",
"525 170 OFFCURVE",
"505 150 OFFCURVE",
"475 150 CURVE SMOOTH",
"290 150 LINE SMOOTH",
"255 150 OFFCURVE",
"225 180 OFFCURVE",
"225 215 CURVE SMOOTH"
);
}
);
width = 800;
},
{
anchors = (
{
name = bottom;
position = "{425, 0}";
},
{
name = ogonek;
position = "{750, 0}";
},
{
name = top;
position = "{425, 700}";
}
);
layerId = "833FD172-3601-4257-8297-A103CE2A393F";
paths = (
{
closed = 1;
nodes = (
"220 605 LINE",
"245 625 OFFCURVE",
"275 650 OFFCURVE",
"315 650 CURVE SMOOTH",
"485 650 LINE SMOOTH",
"565 650 OFFCURVE",
"625 590 OFFCURVE",
"625 515 CURVE SMOOTH",
"625 435 OFFCURVE",
"565 375 OFFCURVE",
"485 375 CURVE SMOOTH",
"265 375 LINE SMOOTH",
"160 375 OFFCURVE",
"75 290 OFFCURVE",
"75 190 CURVE SMOOTH",
"75 85 OFFCURVE",
"160 0 OFFCURVE",
"265 0 CURVE SMOOTH",
"485 0 LINE SMOOTH",
"555 0 OFFCURVE",
"615 35 OFFCURVE",
"645 90 CURVE",
"670 35 OFFCURVE",
"715 0 OFFCURVE",
"775 0 CURVE",
"775 50 LINE",
"715 50 OFFCURVE",
"675 110 OFFCURVE",
"675 190 CURVE SMOOTH",
"675 515 LINE SMOOTH",
"675 615 OFFCURVE",
"590 700 OFFCURVE",
"485 700 CURVE SMOOTH",
"315 700 LINE SMOOTH",
"265 700 OFFCURVE",
"215 675 OFFCURVE",
"185 640 CURVE"
);
},
{
closed = 1;
nodes = (
"125 265 OFFCURVE",
"185 325 OFFCURVE",
"265 325 CURVE SMOOTH",
"485 325 LINE SMOOTH",
"540 325 OFFCURVE",
"590 350 OFFCURVE",
"625 385 CURVE",
"625 190 LINE SMOOTH",
"625 110 OFFCURVE",
"565 50 OFFCURVE",
"485 50 CURVE SMOOTH",
"265 50 LINE SMOOTH",
"185 50 OFFCURVE",
"125 110 OFFCURVE",
"125 190 CURVE SMOOTH"
);
}
);
width = 800;
}
);
leftKerningGroup = a;
rightKerningGroup = a;
unicode = 0061;
},
{
color = 5;
glyphname = c;
lastChange = "2017-12-08 11:20:13 +0000";
layers = (
{
anchors = (
{
name = bottom;
position = "{425, 0}";
},
{
name = top;
position = "{425, 700}";
}
);
layerId = "926D8932-2CBE-4DA1-A7EC-AA50FD678EE5";
paths = (
{
closed = 1;
nodes = (
"675 600 LINE",
"609 661 OFFCURVE",
"522 700 OFFCURVE",
"425 700 CURVE SMOOTH",
"232 700 OFFCURVE",
"75 543 OFFCURVE",
"75 350 CURVE SMOOTH",
"75 157 OFFCURVE",
"232 0 OFFCURVE",
"425 0 CURVE SMOOTH",
"522 0 OFFCURVE",
"609 39 OFFCURVE",
"675 100 CURVE",
"605 170 LINE",
"557 128 OFFCURVE",
"494 100 OFFCURVE",
"425 100 CURVE SMOOTH",
"287 100 OFFCURVE",
"175 212 OFFCURVE",
"175 350 CURVE SMOOTH",
"175 488 OFFCURVE",
"287 600 OFFCURVE",
"425 600 CURVE SMOOTH",
"494 600 OFFCURVE",
"557 572 OFFCURVE",
"605 530 CURVE"
);
}
);
width = 725;
},
{
anchors = (
{
name = bottom;
position = "{425, 0}";
},
{
name = top;
position = "{425, 700}";
}
);
layerId = "DCFDD359-D3A1-4A9B-975E-26381AFB2AA7";
paths = (
{
closed = 1;
nodes = (
"675 600 LINE",
"605 660 OFFCURVE",
"525 700 OFFCURVE",
"425 700 CURVE SMOOTH",
"235 700 OFFCURVE",
"75 540 OFFCURVE",
"75 350 CURVE SMOOTH",
"75 160 OFFCURVE",
"235 0 OFFCURVE",
"425 0 CURVE SMOOTH",
"525 0 OFFCURVE",
"605 40 OFFCURVE",
"675 100 CURVE",
"565 210 LINE",
"535 170 OFFCURVE",
"485 150 OFFCURVE",
"425 150 CURVE SMOOTH",
"315 150 OFFCURVE",
"225 240 OFFCURVE",
"225 350 CURVE SMOOTH",
"225 460 OFFCURVE",
"315 550 OFFCURVE",
"425 550 CURVE SMOOTH",
"485 550 OFFCURVE",
"535 530 OFFCURVE",
"565 490 CURVE"
);
}
);
width = 725;
},
{
anchors = (
{
name = bottom;
position = "{425, 0}";
},
{
name = top;
position = "{425, 700}";
}
);
layerId = "833FD172-3601-4257-8297-A103CE2A393F";
paths = (
{
closed = 1;
nodes = (
"675 600 LINE",
"615 665 OFFCURVE",
"520 700 OFFCURVE",
"425 700 CURVE SMOOTH",
"230 700 OFFCURVE",
"75 545 OFFCURVE",
"75 350 CURVE SMOOTH",
"75 155 OFFCURVE",
"230 0 OFFCURVE",
"425 0 CURVE SMOOTH",
"520 0 OFFCURVE",
"615 35 OFFCURVE",
"675 100 CURVE",
"640 135 LINE",
"590 80 OFFCURVE",
"510 50 OFFCURVE",
"425 50 CURVE SMOOTH",
"260 50 OFFCURVE",
"125 185 OFFCURVE",
"125 350 CURVE SMOOTH",
"125 515 OFFCURVE",
"260 650 OFFCURVE",
"425 650 CURVE SMOOTH",
"510 650 OFFCURVE",
"590 620 OFFCURVE",
"640 565 CURVE"
);
}
);
width = 725;
}
);
leftKerningGroup = o;
leftMetricsKey = o;
rightKerningGroup = c;
unicode = 0063;
},
{
color = 5;
glyphname = eth;
lastChange = "2017-12-08 11:24:22 +0000";
layers = (
{
components = (
{
name = partialdiff;
}
);
layerId = "926D8932-2CBE-4DA1-A7EC-AA50FD678EE5";
paths = (
{
closed = 1;
nodes = (
"370 840 LINE",
"850 970 LINE",
"830 1060 LINE",
"350 930 LINE"
);
}
);
width = 850;
},
{
components = (
{
name = partialdiff;
}
);
layerId = "DCFDD359-D3A1-4A9B-975E-26381AFB2AA7";
paths = (
{
closed = 1;
nodes = (
"380 815 LINE",
"860 940 LINE",
"820 1085 LINE",
"340 960 LINE"
);
}
);
width = 850;
},
{
components = (
{
name = partialdiff;
}
);
layerId = "833FD172-3601-4257-8297-A103CE2A393F";
paths = (
{
closed = 1;
nodes = (
"365 860 LINE",
"845 990 LINE",
"835 1035 LINE",
"355 905 LINE"
);
}
);
width = 850;
}
);
leftKerningGroup = o;
unicode = 00F0;
},
{
color = 5;
glyphname = f;
lastChange = "2017-12-09 10:44:40 +0000";
layers = (
{
anchors = (
{
name = top;
position = "{275, 1000}";
}
);
components = (
{
name = _quartercircle_300;
transform = "{1, 0, 0, 1, 75, 300}";
}
);
hints = (
{
horizontal = 1;
origin = "{0, 3}";
target = "{0, 2}";
},
{
origin = "{1, 3}";
target = "{1, 0}";
},
{
horizontal = 1;
place = "{900, 100}";
}
);
layerId = "926D8932-2CBE-4DA1-A7EC-AA50FD678EE5";
paths = (
{
closed = 1;
nodes = (
"425 600 LINE",
"425 700 LINE",
"25 700 LINE",
"25 600 LINE"
);
},
{
closed = 1;
nodes = (
"225 -200 LINE",
"225 700 LINE",
"125 700 LINE",
"125 -300 LINE"
);
}
);
width = 450;
},
{
anchors = (
{
name = top;
position = "{300, 1000}";
}
);
components = (
{
name = _quartercircle_300;
transform = "{1, 0, 0, 1, 75, 300}";
}
);
hints = (
{
horizontal = 1;
origin = "{0, 3}";
target = "{0, 2}";
},
{
horizontal = 1;
place = "{850, 150}";
},
{
origin = "{1, 3}";
target = "{1, 0}";
}
);
layerId = "DCFDD359-D3A1-4A9B-975E-26381AFB2AA7";
paths = (
{
closed = 1;
nodes = (
"425 550 LINE",
"425 700 LINE",
"25 700 LINE",
"25 550 LINE"
);
},
{
closed = 1;
nodes = (
"275 -150 LINE",
"275 700 LINE",
"125 700 LINE",
"125 -300 LINE"
);
}
);
width = 450;
},
{
anchors = (
{
name = top;
position = "{275, 1000}";
}
);
components = (
{
name = _quartercircle_300;
transform = "{1, 0, 0, 1, 75, 300}";
}
);
hints = (
{
horizontal = 1;
origin = "{0, 3}";
target = "{0, 2}";
},
{
origin = "{1, 3}";
target = "{1, 0}";
},
{
horizontal = 1;
place = "{950, 50}";
}
);
layerId = "833FD172-3601-4257-8297-A103CE2A393F";
paths = (
{
closed = 1;
nodes = (
"425 650 LINE",
"425 700 LINE",
"25 700 LINE",
"25 650 LINE"
);
},
{
closed = 1;
nodes = (
"175 -245 LINE",
"175 700 LINE",
"125 700 LINE",
"125 -300 LINE"
);
}
);
width = 450;
}
);
leftKerningGroup = f;
rightKerningGroup = f;
unicode = 0066;
},
{
color = 5;
glyphname = h;
lastChange = "2017-12-09 10:10:48 +0000";
layers = (
{
anchors = (
{
name = bottom;
position = "{425, 0}";
},
{
name = top;
position = "{175, 1000}";
}
);
components = (
{
name = n;
}
);
layerId = "926D8932-2CBE-4DA1-A7EC-AA50FD678EE5";
paths = (
{
closed = 1;
nodes = (
"125 400 LINE",
"225 400 LINE",
"225 1000 LINE",
"125 1000 LINE"
);
}
);
width = 850;
},
{
anchors = (
{
name = bottom;
position = "{425, 0}";
},
{
name = top;
position = "{200, 1000}";
}
);
components = (
{
name = n;
}
);
hints = (
{
origin = "{0, 0}";
target = "{0, 1}";
}
);
layerId = "DCFDD359-D3A1-4A9B-975E-26381AFB2AA7";
paths = (
{
closed = 1;
nodes = (
"125 400 LINE",
"275 400 LINE",
"275 1000 LINE",
"125 1000 LINE"
);
}
);
width = 850;
},
{
anchors = (
{
name = bottom;
position = "{425, 0}";
},
{
name = top;
position = "{150, 1000}";
}
);
components = (
{
name = n;
}
);
layerId = "833FD172-3601-4257-8297-A103CE2A393F";
paths = (
{
closed = 1;
nodes = (
"125 400 LINE",
"175 400 LINE",
"175 1000 LINE",
"125 1000 LINE"
);
}
);
width = 850;
}
);
leftKerningGroup = b;
leftMetricsKey = b;
rightKerningGroup = n;
rightMetricsKey = n;
unicode = 0068;
},
{
color = 5;
glyphname = k;
lastChange = "2017-12-08 12:01:32 +0000";
layers = (
{
anchors = (
{
name = bottom;
position = "{400, 0}";
},
{
name = top;
position = "{175, 1000}";
}
);
layerId = "926D8932-2CBE-4DA1-A7EC-AA50FD678EE5";
paths = (
{
closed = 1;
nodes = (
"125 0 LINE",
"225 0 LINE",
"225 1000 LINE",
"125 1000 LINE"
);
},
{
closed = 1;
nodes = (
"125 295 LINE",
"125 150 LINE",
"340 365 LINE",
"600 0 LINE",
"725 0 LINE",
"415 440 LINE",
"675 700 LINE",
"535 700 LINE"
);
}
);
width = 725;
},
{
anchors = (
{
name = bottom;
position = "{400, 0}";
},
{
name = top;
position = "{200, 1000}";
}
);
layerId = "DCFDD359-D3A1-4A9B-975E-26381AFB2AA7";
paths = (
{
closed = 1;
nodes = (
"125 0 LINE",
"275 0 LINE",
"275 1000 LINE",
"125 1000 LINE"
);
},
{
closed = 1;
nodes = (
"125 365 LINE",
"125 150 LINE",
"295 320 LINE",
"535 0 LINE",
"725 0 LINE",
"405 430 LINE",
"675 700 LINE",
"465 700 LINE"
);
}
);
width = 725;
},
{
anchors = (
{
name = bottom;
position = "{415, 0}";
},
{
name = top;
position = "{150, 1000}";
}
);
layerId = "833FD172-3601-4257-8297-A103CE2A393F";
paths = (
{
closed = 1;
nodes = (
"125 0 LINE",
"175 0 LINE",
"175 1000 LINE",
"125 1000 LINE"
);
},
{
closed = 1;
nodes = (
"125 225 LINE",
"125 155 LINE",
"350 375 LINE",
"660 0 LINE",
"725 0 LINE",
"385 410 LINE",
"675 700 LINE",
"600 700 LINE"
);
}
);
width = 725;
}
);
leftKerningGroup = b;
leftMetricsKey = b;
rightKerningGroup = k;
rightMetricsKey = v;
unicode = 006B;
},
{
color = 5;
glyphname = lslash;
lastChange = "2017-12-08 10:17:36 +0000";
layers = (
{
components = (
{
name = l;
}
);
layerId = "926D8932-2CBE-4DA1-A7EC-AA50FD678EE5";
paths = (
{
closed = 1;
nodes = (
"375 670 LINE",
"-25 445 LINE",
"-25 325 LINE",
"-25 325 LINE",
"375 550 LINE"
);
}
);
width = 450;
},
{
components = (
{
name = l;
}
);
layerId = "DCFDD359-D3A1-4A9B-975E-26381AFB2AA7";
paths = (
{
closed = 1;
nodes = (
"400 715 LINE",
"-50 460 LINE",
"-50 280 LINE",
"-50 280 LINE",
"400 535 LINE"
);
}
);
width = 450;
},
{
components = (
{
name = l;
}
);
layerId = "833FD172-3601-4257-8297-A103CE2A393F";
paths = (
{
closed = 1;
nodes = (
"350 625 LINE",
"0 430 LINE",
"0 370 LINE",
"0 370 LINE",
"350 565 LINE"
);
}
);
width = 450;
}
);
leftKerningGroup = l;
leftMetricsKey = l;
rightKerningGroup = l;
rightMetricsKey = l;
unicode = 0142;
},
{
color = 5;
glyphname = o;
lastChange = "2017-12-08 11:14:50 +0000";
layers = (
{
anchors = (
{
name = bottom;
position = "{425, 0}";
},
{
name = center;
position = "{425, 350}";
},
{
name = ogonek;
position = "{425, 0}";
},
{
name = top;
position = "{425, 700}";
},
{
name = topright;
position = "{775, 700}";
}
);
hints = (
{
horizontal = 1;
place = "{0, 0}";
},
{
horizontal = 1;
place = "{0, 0}";
},
{
place = "{0, 0}";
},
{
place = "{0, 0}";
}
);
layerId = "926D8932-2CBE-4DA1-A7EC-AA50FD678EE5";
paths = (
{
closed = 1;
nodes = (
"620 0 OFFCURVE",
"775 155 OFFCURVE",
"775 350 CURVE SMOOTH",
"775 545 OFFCURVE",
"620 700 OFFCURVE",
"425 700 CURVE SMOOTH",
"230 700 OFFCURVE",
"75 545 OFFCURVE",
"75 350 CURVE SMOOTH",
"75 155 OFFCURVE",
"230 0 OFFCURVE",
"425 0 CURVE SMOOTH"
);
},
{
closed = 1;
nodes = (
"285 100 OFFCURVE",
"175 210 OFFCURVE",
"175 350 CURVE SMOOTH",
"175 490 OFFCURVE",
"285 600 OFFCURVE",
"425 600 CURVE SMOOTH",
"565 600 OFFCURVE",
"675 490 OFFCURVE",
"675 350 CURVE SMOOTH",
"675 210 OFFCURVE",
"565 100 OFFCURVE",
"425 100 CURVE SMOOTH"
);
}
);
width = 850;
},
{
anchors = (
{
name = bottom;
position = "{425, 0}";
},
{
name = center;
position = "{425, 350}";
},
{
name = ogonek;
position = "{425, 0}";
},
{
name = top;
position = "{425, 700}";
},
{
name = topright;
position = "{775, 700}";
}
);
layerId = "DCFDD359-D3A1-4A9B-975E-26381AFB2AA7";
paths = (
{
closed = 1;
nodes = (
"620 0 OFFCURVE",
"775 155 OFFCURVE",
"775 350 CURVE SMOOTH",
"775 545 OFFCURVE",
"620 700 OFFCURVE",
"425 700 CURVE SMOOTH",
"230 700 OFFCURVE",
"75 545 OFFCURVE",
"75 350 CURVE SMOOTH",
"75 155 OFFCURVE",
"230 0 OFFCURVE",
"425 0 CURVE SMOOTH"
);
},
{
closed = 1;
nodes = (
"315 150 OFFCURVE",
"225 240 OFFCURVE",
"225 350 CURVE SMOOTH",
"225 460 OFFCURVE",
"315 550 OFFCURVE",
"425 550 CURVE SMOOTH",
"535 550 OFFCURVE",
"625 460 OFFCURVE",
"625 350 CURVE SMOOTH",
"625 240 OFFCURVE",
"535 150 OFFCURVE",
"425 150 CURVE SMOOTH"
);
}
);
width = 850;
},
{
anchors = (
{
name = bottom;
position = "{425, 0}";
},
{
name = center;
position = "{425, 350}";
},
{
name = ogonek;
position = "{425, 0}";
},
{
name = top;
position = "{425, 700}";
},
{
name = topright;
position = "{775, 700}";
}
);
layerId = "833FD172-3601-4257-8297-A103CE2A393F";
paths = (
{
closed = 1;
nodes = (
"618 0 OFFCURVE",
"775 157 OFFCURVE",
"775 350 CURVE SMOOTH",
"775 543 OFFCURVE",
"618 700 OFFCURVE",
"425 700 CURVE SMOOTH",
"232 700 OFFCURVE",
"75 543 OFFCURVE",
"75 350 CURVE SMOOTH",
"75 157 OFFCURVE",
"232 0 OFFCURVE",
"425 0 CURVE SMOOTH"
);
},
{
closed = 1;
nodes = (
"259 50 OFFCURVE",
"125 184 OFFCURVE",
"125 350 CURVE SMOOTH",
"125 516 OFFCURVE",
"259 650 OFFCURVE",
"425 650 CURVE SMOOTH",
"591 650 OFFCURVE",
"725 516 OFFCURVE",
"725 350 CURVE SMOOTH",
"725 184 OFFCURVE",
"591 50 OFFCURVE",
"425 50 CURVE SMOOTH"
);
}
);
width = 850;
}
);
leftKerningGroup = o;
rightKerningGroup = o;
unicode = 006F;
},
{
color = 5;
glyphname = oslash;
lastChange = "2017-12-08 10:21:07 +0000";
layers = (
{
components = (
{
name = o;
}
);
layerId = "926D8932-2CBE-4DA1-A7EC-AA50FD678EE5";
paths = (
{
closed = 1;
nodes = (
"60 30 LINE",
"120 -30 LINE",
"840 670 LINE",
"780 730 LINE"
);
}
);
width = 900;
},
{
components = (
{
name = o;
}
);
layerId = "DCFDD359-D3A1-4A9B-975E-26381AFB2AA7";
paths = (
{
closed = 1;
nodes = (
"60 30 LINE",
"120 -30 LINE",
"840 670 LINE",
"780 730 LINE"
);
}
);
width = 900;
},
{
components = (
{
name = o;
}
);
layerId = "833FD172-3601-4257-8297-A103CE2A393F";
paths = (
{
closed = 1;
nodes = (
"75 15 LINE",
"105 -15 LINE",
"825 685 LINE",
"795 715 LINE"
);
}
);
width = 900;
}
);
leftKerningGroup = o;
rightKerningGroup = o;
unicode = 00F8;
},
{
color = 5;
glyphname = thorn;
lastChange = "2017-12-08 11:20:20 +0000";
layers = (
{
components = (
{
name = b;
transform = "{1, 0, 0, -1, 0, 700}";
}
);
layerId = "926D8932-2CBE-4DA1-A7EC-AA50FD678EE5";
paths = (
{
closed = 1;
nodes = (
"125 450 LINE",
"225 450 LINE",
"225 1000 LINE",
"125 1000 LINE"
);
}
);
width = 900;
},
{
components = (
{
name = b;
transform = "{1, 0, 0, -1, 0, 700}";
}
);
layerId = "DCFDD359-D3A1-4A9B-975E-26381AFB2AA7";
paths = (
{
closed = 1;
nodes = (
"125 350 LINE",
"275 350 LINE",
"275 1000 LINE",
"125 1000 LINE"
);
}
);
width = 900;
},
{
components = (
{
name = b;
transform = "{1, 0, 0, -1, 0, 700}";
}
);
layerId = "833FD172-3601-4257-8297-A103CE2A393F";
paths = (
{
closed = 1;
nodes = (
"125 700 LINE",
"175 700 LINE",
"175 1000 LINE",
"125 1000 LINE"
);
}
);
width = 900;
}
);
leftKerningGroup = H;
leftMetricsKey = p;
rightKerningGroup = o;
rightMetricsKey = o;
unicode = 00FE;
},
{
color = 4;
glyphname = germandbls;
lastChange = "2017-12-08 11:46:13 +0000";
layers = (
{
layerId = "926D8932-2CBE-4DA1-A7EC-AA50FD678EE5";
paths = (
{
closed = 1;
nodes = (
"125 -150 LINE",
"225 -150 LINE",
"225 580 LINE",
"125 580 LINE"
);
},
{
closed = 1;
nodes = (
"495 -150 LINE",
"642 -150 OFFCURVE",
"765 -27 OFFCURVE",
"765 130 CURVE SMOOTH",
"765 277 OFFCURVE",
"642 400 OFFCURVE",
"495 400 CURVE",
"495 300 LINE",
"587 300 OFFCURVE",
"665 222 OFFCURVE",
"665 130 CURVE SMOOTH",
"665 28 OFFCURVE",
"587 -50 OFFCURVE",
"495 -50 CURVE"
);
},
{
closed = 1;
nodes = (
"385 300 LINE",
"495 300 LINE",
"495 400 LINE",
"385 400 LINE"
);
},
{
closed = 1;
nodes = (
"225 580 LINE",
"225 670 OFFCURVE",
"305 750 OFFCURVE",
"395 750 CURVE SMOOTH",
"485 750 OFFCURVE",
"565 670 OFFCURVE",
"565 580 CURVE SMOOTH",
"565 480 OFFCURVE",
"485 400 OFFCURVE",
"395 400 CURVE",
"395 300 LINE",
"540 300 OFFCURVE",
"665 425 OFFCURVE",
"665 580 CURVE SMOOTH",
"665 725 OFFCURVE",
"540 850 OFFCURVE",
"395 850 CURVE SMOOTH",
"250 850 OFFCURVE",
"125 725 OFFCURVE",
"125 580 CURVE"
);
},
{
closed = 1;
nodes = (
"375 -150 LINE",
"495 -150 LINE",
"495 -50 LINE",
"375 -50 LINE"
);
}
);
width = 840;
},
{
layerId = "DCFDD359-D3A1-4A9B-975E-26381AFB2AA7";
paths = (
{
closed = 1;
nodes = (
"125 -150 LINE",
"275 -150 LINE",
"275 575 LINE",
"125 575 LINE"
);
},
{
closed = 1;
nodes = (
"465 -150 LINE",
"630 -150 OFFCURVE",
"765 -15 OFFCURVE",
"765 150 CURVE SMOOTH",
"765 316 OFFCURVE",
"632 449 OFFCURVE",
"465 450 CURVE",
"465 300 LINE",
"550 300 OFFCURVE",
"615 235 OFFCURVE",
"615 150 CURVE SMOOTH",
"615 67 OFFCURVE",
"548 0 OFFCURVE",
"465 0 CURVE"
);
},
{
closed = 1;
nodes = (
"375 300 LINE",
"465 300 LINE",
"465 450 LINE",
"375 450 LINE"
);
},
{
closed = 1;
nodes = (
"275 575 LINE",
"275 645 OFFCURVE",
"330 700 OFFCURVE",
"400 700 CURVE SMOOTH",
"470 700 OFFCURVE",
"525 645 OFFCURVE",
"525 575 CURVE SMOOTH",
"525 505 OFFCURVE",
"470 450 OFFCURVE",
"400 450 CURVE",
"400 300 LINE",
"550 300 OFFCURVE",
"675 425 OFFCURVE",
"675 575 CURVE SMOOTH",
"675 725 OFFCURVE",
"550 850 OFFCURVE",
"400 850 CURVE SMOOTH",
"250 850 OFFCURVE",
"125 725 OFFCURVE",
"125 575 CURVE"
);
},
{
closed = 1;
nodes = (
"375 -150 LINE",
"465 -150 LINE",
"465 0 LINE",
"375 0 LINE"
);
}
);
width = 840;
},
{
layerId = "833FD172-3601-4257-8297-A103CE2A393F";
paths = (
{
closed = 1;
nodes = (
"145 -150 LINE",
"195 -150 LINE",
"195 600 LINE",
"145 600 LINE"
);
},
{
closed = 1;
nodes = (
"470 -150 LINE",
"620 -150 OFFCURVE",
"745 -25 OFFCURVE",
"745 125 CURVE SMOOTH",
"745 275 OFFCURVE",
"620 400 OFFCURVE",
"470 400 CURVE",
"470 350 LINE",
"595 350 OFFCURVE",
"695 250 OFFCURVE",
"695 125 CURVE SMOOTH",
"695 0 OFFCURVE",
"595 -100 OFFCURVE",
"470 -100 CURVE"
);
},
{
closed = 1;
nodes = (
"395 350 LINE",
"470 350 LINE",
"470 400 LINE",
"395 400 LINE"
);
},
{
closed = 1;
nodes = (
"195 600 LINE",
"195 710 OFFCURVE",
"285 800 OFFCURVE",
"395 800 CURVE SMOOTH",
"505 800 OFFCURVE",
"595 710 OFFCURVE",
"595 600 CURVE SMOOTH",
"595 490 OFFCURVE",
"505 400 OFFCURVE",
"395 400 CURVE",
"395 350 LINE",
"535 350 OFFCURVE",
"645 460 OFFCURVE",
"645 600 CURVE SMOOTH",
"645 740 OFFCURVE",
"535 850 OFFCURVE",
"395 850 CURVE SMOOTH",
"255 850 OFFCURVE",
"145 740 OFFCURVE",
"145 600 CURVE"
);
},
{
closed = 1;
nodes = (
"395 -150 LINE",
"470 -150 LINE",
"470 -100 LINE",
"395 -100 LINE"
);
}
);
width = 840;
}
);
leftKerningGroup = H;
rightKerningGroup = B;
unicode = 00DF;
},
{
color = 5;
glyphname = u;
lastChange = "2017-11-27 23:05:22 +0000";
layers = (
{
anchors = (
{
name = bottom;
position = "{425, 0}";
},
{
name = ogonek;
position = "{675, 100}";
},
{
name = top;
position = "{425, 700}";
}
);
layerId = "926D8932-2CBE-4DA1-A7EC-AA50FD678EE5";
paths = (
{
closed = 1;
nodes = (
"125 300 LINE",
"225 300 LINE",
"225 700 LINE",
"125 700 LINE"
);
},
{
closed = 1;
nodes = (
"725 700 LINE",
"725 300 LINE",
"625 300 LINE",
"625 700 LINE"
);
},
{
closed = 1;
nodes = (
"625 300 LINE SMOOTH",
"625 300 OFFCURVE",
"625 300 OFFCURVE",
"625 300 CURVE SMOOTH",
"625 190 OFFCURVE",
"535 100 OFFCURVE",
"425 100 CURVE SMOOTH",
"315 100 OFFCURVE",
"225 190 OFFCURVE",
"225 300 CURVE SMOOTH",
"225 300 OFFCURVE",
"225 300 OFFCURVE",
"225 300 CURVE SMOOTH",
"125 300 LINE SMOOTH",
"125 300 OFFCURVE",
"125 300 OFFCURVE",
"125 300 CURVE SMOOTH",
"125 135 OFFCURVE",
"260 0 OFFCURVE",
"425 0 CURVE SMOOTH",
"590 0 OFFCURVE",
"725 135 OFFCURVE",
"725 300 CURVE SMOOTH",
"725 300 OFFCURVE",
"725 300 OFFCURVE",
"725 300 CURVE SMOOTH"
);
}
);
width = 850;
},
{
anchors = (
{
name = bottom;
position = "{425, 0}";
},
{
name = ogonek;
position = "{650, 100}";
},
{
name = top;
position = "{425, 700}";
}
);
layerId = "DCFDD359-D3A1-4A9B-975E-26381AFB2AA7";
paths = (
{
closed = 1;
nodes = (
"125 300 LINE",
"275 300 LINE",
"275 700 LINE",
"125 700 LINE"
);
},
{
closed = 1;
nodes = (
"725 700 LINE",
"725 300 LINE",
"575 300 LINE",
"575 700 LINE"
);
},
{
closed = 1;
nodes = (
"575 300 LINE SMOOTH",
"575 300 OFFCURVE",
"575 300 OFFCURVE",
"575 300 CURVE SMOOTH",
"575 215 OFFCURVE",
"510 150 OFFCURVE",
"425 150 CURVE SMOOTH",
"340 150 OFFCURVE",
"275 215 OFFCURVE",
"275 300 CURVE SMOOTH",
"275 300 OFFCURVE",
"275 300 OFFCURVE",
"275 300 CURVE SMOOTH",
"125 300 LINE SMOOTH",
"125 300 OFFCURVE",
"125 300 OFFCURVE",
"125 300 CURVE SMOOTH",
"125 135 OFFCURVE",
"260 0 OFFCURVE",
"425 0 CURVE SMOOTH",
"590 0 OFFCURVE",
"725 135 OFFCURVE",
"725 300 CURVE SMOOTH",
"725 300 OFFCURVE",
"725 300 OFFCURVE",
"725 300 CURVE SMOOTH"
);
}
);
width = 850;
},
{
anchors = (
{
name = bottom;
position = "{425, 0}";
},
{
name = ogonek;
position = "{700, 100}";
},
{
name = top;
position = "{425, 700}";
}
);
layerId = "833FD172-3601-4257-8297-A103CE2A393F";
paths = (
{
closed = 1;
nodes = (
"125 300 LINE",
"175 300 LINE",
"175 700 LINE",
"125 700 LINE"
);
},
{
closed = 1;
nodes = (
"725 700 LINE",
"725 300 LINE",
"675 300 LINE",
"675 700 LINE"
);
},
{
closed = 1;
nodes = (
"675 300 LINE SMOOTH",
"675 300 OFFCURVE",
"675 300 OFFCURVE",
"675 300 CURVE SMOOTH",
"675 160 OFFCURVE",
"565 50 OFFCURVE",
"425 50 CURVE SMOOTH",
"285 50 OFFCURVE",
"175 160 OFFCURVE",
"175 300 CURVE SMOOTH",
"175 300 OFFCURVE",
"175 300 OFFCURVE",
"175 300 CURVE SMOOTH",
"125 300 LINE SMOOTH",
"125 300 OFFCURVE",
"125 300 OFFCURVE",
"125 300 CURVE SMOOTH",
"125 135 OFFCURVE",
"260 0 OFFCURVE",
"425 0 CURVE SMOOTH",
"590 0 OFFCURVE",
"725 135 OFFCURVE",
"725 300 CURVE SMOOTH",
"725 300 OFFCURVE",
"725 300 OFFCURVE",
"725 300 CURVE SMOOTH"
);
}
);
width = 850;
}
);
leftKerningGroup = u;
leftMetricsKey = n;
rightKerningGroup = u;
rightMetricsKey = n;
unicode = 0075;
},
{
color = 5;
glyphname = x;
lastChange = "2017-12-08 12:00:46 +0000";
layers = (
{
anchors = (
{
name = bottom;
position = "{350, 0}";
},
{
name = top;
position = "{350, 700}";
}
);
layerId = "926D8932-2CBE-4DA1-A7EC-AA50FD678EE5";
paths = (
{
closed = 1;
nodes = (
"130 0 LINE",
"350 270 LINE",
"570 0 LINE",
"700 0 LINE",
"415 350 LINE",
"700 700 LINE",
"570 700 LINE",
"350 430 LINE",
"130 700 LINE",
"0 700 LINE",
"285 350 LINE",
"0 0 LINE"
);
}
);
width = 700;
},
{
anchors = (
{
name = bottom;
position = "{350, 0}";
},
{
name = top;
position = "{350, 700}";
}
);
layerId = "DCFDD359-D3A1-4A9B-975E-26381AFB2AA7";
paths = (
{
closed = 1;
nodes = (
"195 0 LINE",
"350 230 LINE",
"505 0 LINE",
"700 0 LINE",
"445 350 LINE",
"700 700 LINE",
"505 700 LINE",
"350 470 LINE",
"195 700 LINE",
"0 700 LINE",
"255 350 LINE",
"0 0 LINE"
);
}
);
width = 700;
},
{
anchors = (
{
name = bottom;
position = "{350, 0}";
},
{
name = top;
position = "{350, 700}";
}
);
layerId = "833FD172-3601-4257-8297-A103CE2A393F";
paths = (
{
closed = 1;
nodes = (
"65 0 LINE",
"350 310 LINE",
"635 0 LINE",
"700 0 LINE",
"385 350 LINE",
"700 700 LINE",
"635 700 LINE",
"350 390 LINE",
"65 700 LINE",
"0 700 LINE",
"315 350 LINE",
"0 0 LINE"
);
}
);
width = 700;
}
);
leftKerningGroup = x;
leftMetricsKey = v;
rightKerningGroup = x;
rightMetricsKey = v;
unicode = 0078;
},
{
color = 5;
glyphname = y;
lastChange = "2017-12-08 12:03:16 +0000";
layers = (
{
anchors = (
{
name = bottom;
position = "{350, -300}";
},
{
name = top;
position = "{350, 700}";
}
);
components = (
{
name = v;
}
);
layerId = "926D8932-2CBE-4DA1-A7EC-AA50FD678EE5";
paths = (
{
closed = 1;
nodes = (
"235 -300 LINE",
"700 700 LINE",
"590 700 LINE",
"125 -300 LINE"
);
}
);
width = 700;
},
{
anchors = (
{
name = bottom;
position = "{350, -300}";
},
{
name = top;
position = "{350, 700}";
}
);
components = (
{
name = v;
}
);
layerId = "DCFDD359-D3A1-4A9B-975E-26381AFB2AA7";
paths = (
{
closed = 1;
nodes = (
"235 -300 LINE",
"700 700 LINE",
"535 700 LINE",
"70 -300 LINE"
);
}
);
width = 700;
},
{
anchors = (
{
name = bottom;
position = "{350, -300}";
},
{
name = top;
position = "{350, 700}";
}
);
components = (
{
name = v;
}
);
layerId = "833FD172-3601-4257-8297-A103CE2A393F";
paths = (
{
closed = 1;
nodes = (
"235 -300 LINE",
"700 700 LINE",
"645 700 LINE",
"170 -300 LINE"
);
}
);
width = 700;
}
);
leftKerningGroup = y;
leftMetricsKey = v;
rightKerningGroup = y;
rightMetricsKey = v;
unicode = 0079;
},
{
color = 5;
glyphname = z;
lastChange = "2017-11-27 22:37:24 +0000";
layers = (
{
anchors = (
{
name = bottom;
position = "{325, 0}";
},
{
name = top;
position = "{325, 700}";
}
);
layerId = "926D8932-2CBE-4DA1-A7EC-AA50FD678EE5";
paths = (
{
closed = 1;
nodes = (
"575 0 LINE",
"575 100 LINE",
"240 100 LINE",
"575 700 LINE",
"75 700 LINE",
"75 600 LINE",
"405 600 LINE",
"75 0 LINE"
);
}
);
width = 650;
},
{
anchors = (
{
name = bottom;
position = "{325, 0}";
},
{
name = top;
position = "{325, 700}";
}
);
layerId = "DCFDD359-D3A1-4A9B-975E-26381AFB2AA7";
paths = (
{
closed = 1;
nodes = (
"575 0 LINE",
"575 150 LINE",
"310 150 LINE",
"575 700 LINE",
"75 700 LINE",
"75 550 LINE",
"335 550 LINE",
"75 0 LINE"
);
}
);
width = 650;
},
{
anchors = (
{
name = bottom;
position = "{325, 0}";
},
{
name = top;
position = "{325, 700}";
}
);
layerId = "833FD172-3601-4257-8297-A103CE2A393F";
paths = (
{
closed = 1;
nodes = (
"575 0 LINE",
"575 50 LINE",
"165 50 LINE",
"575 700 LINE",
"75 700 LINE",
"75 650 LINE",
"485 650 LINE",
"75 0 LINE"
);
}
);
width = 650;
}
);
leftKerningGroup = z;
rightKerningGroup = z;
unicode = 007A;
},
{
color = 4;
export = 0;
glyphname = Bsmall;
lastChange = "2017-11-26 16:32:56 +0000";
layers = (
{
components = (
{
name = eopenreversed;
}
);
layerId = "833FD172-3601-4257-8297-A103CE2A393F";
paths = (
{
closed = 1;
nodes = (
"100 0 LINE",
"150 0 LINE",
"150 700 LINE",
"100 700 LINE"
);
},
{
closed = 1;
nodes = (
"100 325 LINE",
"200 325 LINE",
"200 375 LINE",
"100 375 LINE"
);
}
);
width = 700;
},
{
components = (
{
name = eopenreversed;
}
);
layerId = "926D8932-2CBE-4DA1-A7EC-AA50FD678EE5";
paths = (
{
closed = 1;
nodes = (
"100 0 LINE",
"200 0 LINE",
"200 700 LINE",
"100 700 LINE"
);
},
{
closed = 1;
nodes = (
"100 300 LINE",
"200 300 LINE",
"200 400 LINE",
"100 400 LINE"
);
}
);
width = 700;
},
{
components = (
{
name = eopenreversed;
}
);
layerId = "DCFDD359-D3A1-4A9B-975E-26381AFB2AA7";
paths = (
{
closed = 1;
nodes = (
"100 0 LINE",
"250 0 LINE",
"250 700 LINE",
"100 700 LINE"
);
},
{
closed = 1;
nodes = (
"100 275 LINE",
"200 275 LINE",
"200 425 LINE",
"100 425 LINE"
);
}
);
width = 700;
}
);
unicode = 0299;
},
{
color = 4;
export = 0;
glyphname = Gsmall;
lastChange = "2017-11-26 16:32:56 +0000";
layers = (
{
anchors = (
{
name = bottom;
position = "{450, 0}";
},
{
name = center;
position = "{450, 350}";
},
{
name = ogonek;
position = "{450, 0}";
},
{
name = top;
position = "{450, 700}";
},
{
name = topright;
position = "{800, 700}";
}
);
layerId = "833FD172-3601-4257-8297-A103CE2A393F";
paths = (
{
closed = 1;
nodes = (
"150 515 OFFCURVE",
"285 650 OFFCURVE",
"450 650 CURVE",
"450 700 LINE",
"255 700 OFFCURVE",
"100 545 OFFCURVE",
"100 350 CURVE SMOOTH",
"100 155 OFFCURVE",
"255 0 OFFCURVE",
"450 0 CURVE",
"450 50 LINE",
"285 50 OFFCURVE",
"150 185 OFFCURVE",
"150 350 CURVE SMOOTH"
);
},
{
closed = 1;
nodes = (
"700 50 LINE",
"450 50 LINE",
"450 0 LINE",
"700 0 LINE"
);
},
{
closed = 1;
nodes = (
"650 50 LINE",
"700 50 LINE",
"700 350 LINE",
"650 350 LINE"
);
},
{
closed = 1;
nodes = (
"700 600 LINE",
"635 660 OFFCURVE",
"545 700 OFFCURVE",
"450 700 CURVE",
"450 650 LINE",
"530 650 OFFCURVE",
"605 615 OFFCURVE",
"660 560 CURVE"
);
}
);
width = 800;
},
{
anchors = (
{
name = bottom;
position = "{450, 0}";
},
{
name = center;
position = "{450, 350}";
},
{
name = ogonek;
position = "{450, 0}";
},
{
name = top;
position = "{450, 700}";
},
{
name = topright;
position = "{700, 700}";
}
);
hints = (
{
horizontal = 1;
place = "{0, 0}";
},
{
horizontal = 1;
place = "{0, 0}";
},
{
place = "{0, 0}";
},
{
place = "{0, 0}";
}
);
layerId = "926D8932-2CBE-4DA1-A7EC-AA50FD678EE5";
paths = (
{
closed = 1;
nodes = (
"200 490 OFFCURVE",
"310 600 OFFCURVE",
"450 600 CURVE",
"450 700 LINE",
"255 700 OFFCURVE",
"100 545 OFFCURVE",
"100 350 CURVE SMOOTH",
"100 155 OFFCURVE",
"255 0 OFFCURVE",
"450 0 CURVE",
"450 100 LINE",
"310 100 OFFCURVE",
"200 210 OFFCURVE",
"200 350 CURVE SMOOTH"
);
},
{
closed = 1;
nodes = (
"700 100 LINE",
"450 100 LINE",
"450 0 LINE",
"700 0 LINE"
);
},
{
closed = 1;
nodes = (
"600 100 LINE",
"700 100 LINE",
"700 350 LINE",
"600 350 LINE"
);
},
{
closed = 1;
nodes = (
"700 600 LINE",
"635 660 OFFCURVE",
"545 700 OFFCURVE",
"450 700 CURVE",
"450 600 LINE",
"520 600 OFFCURVE",
"580 575 OFFCURVE",
"625 530 CURVE"
);
}
);
width = 800;
},
{
anchors = (
{
name = bottom;
position = "{450, 0}";
},
{
name = center;
position = "{450, 350}";
},
{
name = ogonek;
position = "{450, 0}";
},
{
name = top;
position = "{450, 700}";
},
{
name = topright;
position = "{800, 700}";
}
);
layerId = "DCFDD359-D3A1-4A9B-975E-26381AFB2AA7";
paths = (
{
closed = 1;
nodes = (
"250 460 OFFCURVE",
"340 550 OFFCURVE",
"450 550 CURVE",
"450 700 LINE",
"255 700 OFFCURVE",
"100 545 OFFCURVE",
"100 350 CURVE SMOOTH",
"100 155 OFFCURVE",
"255 0 OFFCURVE",
"450 0 CURVE",
"450 150 LINE",
"340 150 OFFCURVE",
"250 240 OFFCURVE",
"250 350 CURVE SMOOTH"
);
},
{
closed = 1;
nodes = (
"700 150 LINE",
"450 150 LINE",
"450 0 LINE",
"700 0 LINE"
);
},
{
closed = 1;
nodes = (
"550 150 LINE",
"700 150 LINE",
"700 350 LINE",
"550 350 LINE"
);
},
{
closed = 1;
nodes = (
"700 600 LINE",
"635 660 OFFCURVE",
"545 700 OFFCURVE",
"450 700 CURVE",
"450 550 LINE",
"505 550 OFFCURVE",
"555 530 OFFCURVE",
"590 490 CURVE"
);
}
);
width = 800;
}
);
unicode = 0262;
},
{
color = 4;
export = 0;
glyphname = Gsmallhook;
lastChange = "2017-11-26 16:32:56 +0000";
layers = (
{
components = (
{
name = Gsmall;
},
{
name = _quartercircle_300;
transform = "{1, 0, 0, 1, 600, 300}";
}
);
layerId = "833FD172-3601-4257-8297-A103CE2A393F";
paths = (
{
closed = 1;
nodes = (
"650 600 LINE",
"700 600 LINE",
"700 700 LINE",
"650 700 LINE"
);
}
);
width = 800;
},
{
components = (
{
name = Gsmall;
},
{
name = _quartercircle_300;
transform = "{1, 0, 0, 1, 550, 300}";
}
);
layerId = "926D8932-2CBE-4DA1-A7EC-AA50FD678EE5";
paths = (
{
closed = 1;
nodes = (
"600 600 LINE",
"700 600 LINE",
"700 700 LINE",
"600 700 LINE"
);
}
);
width = 800;
},
{
components = (
{
name = Gsmall;
},
{
name = _quartercircle_300;
transform = "{1, 0, 0, 1, 500, 300}";
}
);
layerId = "DCFDD359-D3A1-4A9B-975E-26381AFB2AA7";
paths = (
{
closed = 1;
nodes = (
"550 600 LINE",
"700 600 LINE",
"700 700 LINE",
"550 700 LINE"
);
}
);
width = 800;
}
);
unicode = 029B;
},
{
color = 4;
export = 0;
glyphname = Hsmall;
lastChange = "2017-11-26 16:32:56 +0000";
layers = (
{
layerId = "833FD172-3601-4257-8297-A103CE2A393F";
paths = (
{
closed = 1;
nodes = (
"100 0 LINE",
"150 0 LINE",
"150 700 LINE",
"100 700 LINE"
);
},
{
closed = 1;
nodes = (
"100 325 LINE",
"650 325 LINE",
"650 375 LINE",
"100 375 LINE"
);
},
{
closed = 1;
nodes = (
"600 0 LINE",
"650 0 LINE",
"650 700 LINE",
"600 700 LINE"
);
}
);
width = 750;
},
{
layerId = "926D8932-2CBE-4DA1-A7EC-AA50FD678EE5";
paths = (
{
closed = 1;
nodes = (
"100 0 LINE",
"200 0 LINE",
"200 700 LINE",
"100 700 LINE"
);
},
{
closed = 1;
nodes = (
"100 300 LINE",
"650 300 LINE",
"650 400 LINE",
"100 400 LINE"
);
},
{
closed = 1;
nodes = (
"550 0 LINE",
"650 0 LINE",
"650 700 LINE",
"550 700 LINE"
);
}
);
width = 750;
},
{
layerId = "DCFDD359-D3A1-4A9B-975E-26381AFB2AA7";
paths = (
{
closed = 1;
nodes = (
"100 0 LINE",
"250 0 LINE",
"250 700 LINE",
"100 700 LINE"
);
},
{
closed = 1;
nodes = (
"100 275 LINE",
"650 275 LINE",
"650 425 LINE",
"100 425 LINE"
);
},
{
closed = 1;
nodes = (
"500 0 LINE",
"650 0 LINE",
"650 700 LINE",
"500 700 LINE"
);
}
);
width = 750;
}
);
unicode = 029C;
},
{
color = 4;
export = 0;
glyphname = Ismall;
lastChange = "2017-11-26 16:32:56 +0000";
layers = (
{
layerId = "833FD172-3601-4257-8297-A103CE2A393F";
paths = (
{
closed = 1;
nodes = (
"225 0 LINE",
"275 0 LINE",
"275 700 LINE",
"225 700 LINE"
);
},
{
closed = 1;
nodes = (
"100 650 LINE",
"400 650 LINE",
"400 700 LINE",
"100 700 LINE"
);
},
{
closed = 1;
nodes = (
"100 0 LINE",
"400 0 LINE",
"400 50 LINE",
"100 50 LINE"
);
}
);
width = 500;
},
{
layerId = "926D8932-2CBE-4DA1-A7EC-AA50FD678EE5";
paths = (
{
closed = 1;
nodes = (
"200 0 LINE",
"300 0 LINE",
"300 700 LINE",
"200 700 LINE"
);
},
{
closed = 1;
nodes = (
"100 600 LINE",
"400 600 LINE",
"400 700 LINE",
"100 700 LINE"
);
},
{
closed = 1;
nodes = (
"100 0 LINE",
"400 0 LINE",
"400 100 LINE",
"100 100 LINE"
);
}
);
width = 500;
},
{
layerId = "DCFDD359-D3A1-4A9B-975E-26381AFB2AA7";
paths = (
{
closed = 1;
nodes = (
"175 0 LINE",
"325 0 LINE",
"325 700 LINE",
"175 700 LINE"
);
},
{
closed = 1;
nodes = (
"100 550 LINE",
"400 550 LINE",
"400 700 LINE",
"100 700 LINE"
);
},
{
closed = 1;
nodes = (
"100 0 LINE",
"400 0 LINE",
"400 150 LINE",
"100 150 LINE"
);
}
);
width = 500;
}
);
unicode = 026A;
},
{
color = 4;
export = 0;
glyphname = Lsmall;
lastChange = "2017-11-26 16:32:56 +0000";
layers = (
{
layerId = "833FD172-3601-4257-8297-A103CE2A393F";
paths = (
{
closed = 1;
nodes = (
"100 0 LINE",
"150 0 LINE",
"150 700 LINE",
"100 700 LINE"
);
},
{
closed = 1;
nodes = (
"100 0 LINE",
"550 0 LINE",
"550 50 LINE",
"100 50 LINE"
);
}
);
width = 650;
},
{
layerId = "926D8932-2CBE-4DA1-A7EC-AA50FD678EE5";
paths = (
{
closed = 1;
nodes = (
"100 0 LINE",
"200 0 LINE",
"200 700 LINE",
"100 700 LINE"
);
},
{
closed = 1;
nodes = (
"100 0 LINE",
"550 0 LINE",
"550 100 LINE",
"100 100 LINE"
);
}
);
width = 650;
},
{
layerId = "DCFDD359-D3A1-4A9B-975E-26381AFB2AA7";
paths = (
{
closed = 1;
nodes = (
"100 0 LINE",
"250 0 LINE",
"250 700 LINE",
"100 700 LINE"
);
},
{
closed = 1;
nodes = (
"100 0 LINE",
"550 0 LINE",
"550 150 LINE",
"100 150 LINE"
);
}
);
width = 650;
}
);
unicode = 029F;
},
{
color = 4;
export = 0;
glyphname = OEsmall;
lastChange = "2017-11-26 16:32:56 +0000";
layers = (
{
components = (
{
name = o;
}
);
layerId = "833FD172-3601-4257-8297-A103CE2A393F";
paths = (
{
closed = 1;
nodes = (
"750 325 LINE",
"1200 325 LINE",
"1200 375 LINE",
"750 375 LINE"
);
},
{
closed = 1;
nodes = (
"450 650 LINE",
"1200 650 LINE",
"1200 700 LINE",
"450 700 LINE"
);
},
{
closed = 1;
nodes = (
"450 0 LINE",
"1200 0 LINE",
"1200 50 LINE",
"450 50 LINE"
);
}
);
width = 1300;
},
{
components = (
{
name = o;
}
);
layerId = "926D8932-2CBE-4DA1-A7EC-AA50FD678EE5";
paths = (
{
closed = 1;
nodes = (
"750 300 LINE",
"1200 300 LINE",
"1200 400 LINE",
"750 400 LINE"
);
},
{
closed = 1;
nodes = (
"450 600 LINE",
"1200 600 LINE",
"1200 700 LINE",
"450 700 LINE"
);
},
{
closed = 1;
nodes = (
"450 0 LINE",
"1200 0 LINE",
"1200 100 LINE",
"450 100 LINE"
);
}
);
width = 1300;
},
{
components = (
{
name = o;
}
);
layerId = "DCFDD359-D3A1-4A9B-975E-26381AFB2AA7";
paths = (
{
closed = 1;
nodes = (
"750 275 LINE",
"1200 275 LINE",
"1200 425 LINE",
"750 425 LINE"
);
},
{
closed = 1;
nodes = (
"450 550 LINE",
"1200 550 LINE",
"1200 700 LINE",
"450 700 LINE"
);
},
{
closed = 1;
nodes = (
"450 0 LINE",
"1200 0 LINE",
"1200 150 LINE",
"450 150 LINE"
);
}
);
width = 1300;
}
);
unicode = 0276;
},
{
color = 4;
export = 0;
glyphname = Ysmall;
lastChange = "2017-11-26 16:32:56 +0000";
layers = (
{
layerId = "833FD172-3601-4257-8297-A103CE2A393F";
paths = (
{
closed = 1;
nodes = (
"325 0 LINE",
"375 0 LINE",
"375 350 LINE",
"325 350 LINE"
);
},
{
closed = 1;
nodes = (
"550 700 LINE",
"350 350 LINE",
"150 700 LINE",
"90 700 LINE",
"350 245 LINE",
"610 700 LINE"
);
}
);
width = 700;
},
{
layerId = "926D8932-2CBE-4DA1-A7EC-AA50FD678EE5";
paths = (
{
closed = 1;
nodes = (
"300 0 LINE",
"400 0 LINE",
"400 350 LINE",
"300 350 LINE"
);
},
{
closed = 1;
nodes = (
"490 700 LINE",
"350 455 LINE",
"210 700 LINE",
"90 700 LINE",
"350 245 LINE",
"610 700 LINE"
);
}
);
width = 700;
},
{
layerId = "DCFDD359-D3A1-4A9B-975E-26381AFB2AA7";
paths = (
{
closed = 1;
nodes = (
"275 0 LINE",
"425 0 LINE",
"425 400 LINE",
"275 400 LINE"
);
},
{
closed = 1;
nodes = (
"430 700 LINE",
"350 560 LINE",
"270 700 LINE",
"90 700 LINE",
"350 245 LINE",
"610 700 LINE"
);
}
);
width = 700;
}
);
unicode = 028F;
},
{
color = 6;
export = 0;
glyphname = a.001;
lastChange = "2017-11-26 16:32:56 +0000";
layers = (
{
anchors = (
{
name = bottom;
position = "{450, 0}";
},
{
name = ogonek;
position = "{750, 0}";
},
{
name = top;
position = "{450, 700}";
}
);
hints = (
{
horizontal = 1;
origin = "{0, 17}";
target = "{0, 25}";
},
{
horizontal = 1;
origin = "{0, 27}";
target = "{0, 11}";
},
{
horizontal = 1;
origin = "{0, 3}";
target = "{0, 33}";
},
{
origin = "{0, 14}";
target = "{0, 36}";
},
{
origin = "{0, 7}";
target = "{0, 28}";
},
{
origin = "{0, 36}";
target = "{0, 17}";
}
);
layerId = "926D8932-2CBE-4DA1-A7EC-AA50FD678EE5";
paths = (
{
closed = 1;
nodes = (
"280 570 LINE",
"300 590 OFFCURVE",
"325 600 OFFCURVE",
"350 600 CURVE SMOOTH",
"500 600 LINE SMOOTH",
"555 600 OFFCURVE",
"600 555 OFFCURVE",
"600 500 CURVE SMOOTH",
"600 445 OFFCURVE",
"555 400 OFFCURVE",
"500 400 CURVE SMOOTH",
"300 400 LINE SMOOTH",
"190 400 OFFCURVE",
"100 310 OFFCURVE",
"100 200 CURVE SMOOTH",
"100 90 OFFCURVE",
"190 0 OFFCURVE",
"300 0 CURVE SMOOTH",
"500 0 LINE SMOOTH",
"555 0 OFFCURVE",
"610 25 OFFCURVE",
"645 65 CURVE",
"680 25 OFFCURVE",
"735 0 OFFCURVE",
"800 0 CURVE",
"800 100 LINE",
"740 100 OFFCURVE",
"700 140 OFFCURVE",
"700 200 CURVE SMOOTH",
"700 500 LINE SMOOTH",
"700 610 OFFCURVE",
"610 700 OFFCURVE",
"500 700 CURVE SMOOTH",
"350 700 LINE SMOOTH",
"295 700 OFFCURVE",
"245 675 OFFCURVE",
"210 640 CURVE"
);
},
{
closed = 1;
nodes = (
"200 255 OFFCURVE",
"245 300 OFFCURVE",
"300 300 CURVE SMOOTH",
"500 300 LINE SMOOTH",
"535 300 OFFCURVE",
"570 310 OFFCURVE",
"600 325 CURVE",
"600 200 LINE SMOOTH",
"600 145 OFFCURVE",
"555 100 OFFCURVE",
"500 100 CURVE SMOOTH",
"300 100 LINE SMOOTH",
"245 100 OFFCURVE",
"200 145 OFFCURVE",
"200 200 CURVE SMOOTH"
);
}
);
width = 850;
},
{
anchors = (
{
name = bottom;
position = "{450, 0}";
},
{
name = ogonek;
position = "{725, 0}";
},
{
name = top;
position = "{450, 700}";
}
);
layerId = "DCFDD359-D3A1-4A9B-975E-26381AFB2AA7";
paths = (
{
closed = 1;
nodes = (
"315 535 LINE",
"325 545 OFFCURVE",
"335 550 OFFCURVE",
"350 550 CURVE SMOOTH",
"485 550 LINE SMOOTH",
"520 550 OFFCURVE",
"550 525 OFFCURVE",
"550 490 CURVE SMOOTH",
"550 460 OFFCURVE",
"520 430 OFFCURVE",
"485 430 CURVE SMOOTH",
"315 430 LINE SMOOTH",
"195 430 OFFCURVE",
"100 335 OFFCURVE",
"100 215 CURVE SMOOTH",
"100 95 OFFCURVE",
"195 0 OFFCURVE",
"315 0 CURVE SMOOTH",
"500 0 LINE SMOOTH",
"550 0 OFFCURVE",
"600 20 OFFCURVE",
"635 50 CURVE",
"680 20 OFFCURVE",
"740 0 OFFCURVE",
"800 0 CURVE",
"800 100 LINE",
"740 100 OFFCURVE",
"700 140 OFFCURVE",
"700 200 CURVE SMOOTH",
"700 500 LINE",
"695 615 OFFCURVE",
"600 700 OFFCURVE",
"485 700 CURVE SMOOTH",
"350 700 LINE SMOOTH",
"295 700 OFFCURVE",
"245 680 OFFCURVE",
"210 640 CURVE"
);
},
{
closed = 1;
nodes = (
"250 245 OFFCURVE",
"280 275 OFFCURVE",
"315 275 CURVE SMOOTH",
"485 275 LINE SMOOTH",
"510 275 OFFCURVE",
"530 280 OFFCURVE",
"550 285 CURVE",
"550 200 LINE SMOOTH",
"550 170 OFFCURVE",
"530 150 OFFCURVE",
"500 150 CURVE SMOOTH",
"315 150 LINE SMOOTH",
"280 150 OFFCURVE",
"250 180 OFFCURVE",
"250 215 CURVE SMOOTH"
);
}
);
width = 850;
},
{
anchors = (
{
name = bottom;
position = "{450, 0}";
},
{
name = ogonek;
position = "{775, 0}";
},
{
name = top;
position = "{450, 700}";
}
);
layerId = "833FD172-3601-4257-8297-A103CE2A393F";
paths = (
{
closed = 1;
nodes = (
"245 605 LINE",
"270 625 OFFCURVE",
"300 650 OFFCURVE",
"340 650 CURVE SMOOTH",
"510 650 LINE SMOOTH",
"590 650 OFFCURVE",
"650 590 OFFCURVE",
"650 515 CURVE SMOOTH",
"650 435 OFFCURVE",
"590 375 OFFCURVE",
"510 375 CURVE SMOOTH",
"290 375 LINE SMOOTH",
"185 375 OFFCURVE",
"100 290 OFFCURVE",
"100 190 CURVE SMOOTH",
"100 85 OFFCURVE",
"185 0 OFFCURVE",
"290 0 CURVE SMOOTH",
"510 0 LINE SMOOTH",
"580 0 OFFCURVE",
"640 35 OFFCURVE",
"670 90 CURVE",
"695 35 OFFCURVE",
"740 0 OFFCURVE",
"800 0 CURVE",
"800 50 LINE",
"740 50 OFFCURVE",
"700 110 OFFCURVE",
"700 190 CURVE SMOOTH",
"700 515 LINE SMOOTH",
"700 615 OFFCURVE",
"615 700 OFFCURVE",
"510 700 CURVE SMOOTH",
"340 700 LINE SMOOTH",
"290 700 OFFCURVE",
"240 675 OFFCURVE",
"210 640 CURVE"
);
},
{
closed = 1;
nodes = (
"150 265 OFFCURVE",
"210 325 OFFCURVE",
"290 325 CURVE SMOOTH",
"510 325 LINE SMOOTH",
"565 325 OFFCURVE",
"615 350 OFFCURVE",
"650 385 CURVE",
"650 190 LINE SMOOTH",
"650 110 OFFCURVE",
"590 50 OFFCURVE",
"510 50 CURVE SMOOTH",
"290 50 LINE SMOOTH",
"210 50 OFFCURVE",
"150 110 OFFCURVE",
"150 190 CURVE SMOOTH"
);
}
);
width = 850;
}
);
},
{
color = 6;
export = 0;
glyphname = a.002;
lastChange = "2017-11-26 16:32:56 +0000";
layers = (
{
anchors = (
{
name = bottom;
position = "{400, 0}";
},
{
name = ogonek;
position = "{650, 0}";
},
{
name = top;
position = "{425, 700}";
}
);
components = (
{
name = _halfcircle_400;
transform = "{-1, 0, 0, -1, 600, 400}";
},
{
name = _quartercircle_300;
transform = "{-1, 0, 0, -1, 750, 700}";
},
{
name = _quartercircle_250;
transform = "{0, 1, -1, 0, 650, 500}";
}
);
hints = (
{
horizontal = 1;
origin = "{0, 0}";
},
{
horizontal = 1;
origin = "{0, 0}";
target = "{0, 3}";
},
{
horizontal = 1;
place = "{600, 100}";
},
{
place = "{200, 0}";
},
{
origin = "{0, 3}";
target = "{0, 1}";
},
{
place = "{200, 100}";
}
);
layerId = "926D8932-2CBE-4DA1-A7EC-AA50FD678EE5";
paths = (
{
closed = 1;
nodes = (
"600 0 LINE",
"700 0 LINE",
"700 450 LINE",
"600 450 LINE"
);
},
{
closed = 1;
nodes = (
"300 300 LINE",
"600 300 LINE",
"600 400 LINE",
"300 400 LINE"
);
},
{
closed = 1;
nodes = (
"300 0 LINE",
"400 0 LINE",
"400 100 LINE",
"300 100 LINE"
);
},
{
closed = 1;
nodes = (
"400 600 LINE",
"450 600 LINE",
"450 700 LINE",
"400 700 LINE"
);
},
{
closed = 1;
nodes = (
"260 540 LINE",
"295 580 OFFCURVE",
"345 600 OFFCURVE",
"400 600 CURVE",
"400 700 LINE",
"320 700 OFFCURVE",
"245 665 OFFCURVE",
"190 610 CURVE"
);
}
);
width = 800;
},
{
anchors = (
{
name = bottom;
position = "{400, 0}";
},
{
name = ogonek;
position = "{625, 0}";
},
{
name = top;
position = "{425, 700}";
}
);
components = (
{
name = _halfcircle_400;
transform = "{-1, 0, 0, -1, 600, 400}";
},
{
name = _quartercircle_300;
transform = "{-1, 0, 0, -1, 750, 700}";
},
{
name = _quartercircle_250;
transform = "{0, 1, -1, 0, 650, 500}";
}
);
layerId = "DCFDD359-D3A1-4A9B-975E-26381AFB2AA7";
paths = (
{
closed = 1;
nodes = (
"550 0 LINE",
"700 0 LINE",
"700 450 LINE",
"550 450 LINE"
);
},
{
closed = 1;
nodes = (
"300 250 LINE",
"600 250 LINE",
"600 400 LINE",
"300 400 LINE"
);
},
{
closed = 1;
nodes = (
"300 0 LINE",
"400 0 LINE",
"400 150 LINE",
"300 150 LINE"
);
},
{
closed = 1;
nodes = (
"400 550 LINE",
"450 550 LINE",
"450 700 LINE",
"400 700 LINE"
);
},
{
closed = 1;
nodes = (
"295 505 LINE",
"321 535 OFFCURVE",
"357 550 OFFCURVE",
"400 550 CURVE",
"400 700 LINE",
"320 700 OFFCURVE",
"245 665 OFFCURVE",
"190 610 CURVE"
);
}
);
width = 800;
},
{
anchors = (
{
name = bottom;
position = "{400, 0}";
},
{
name = ogonek;
position = "{650, 0}";
},
{
name = top;
position = "{425, 700}";
}
);
components = (
{
name = _halfcircle_400;
transform = "{-1, 0, 0, -1, 600, 400}";
},
{
name = _quartercircle_300;
transform = "{-1, 0, 0, -1, 750, 700}";
},
{
name = _quartercircle_250;
transform = "{0, 1, -1, 0, 650, 500}";
}
);
layerId = "833FD172-3601-4257-8297-A103CE2A393F";
paths = (
{
closed = 1;
nodes = (
"650 0 LINE",
"700 0 LINE",
"700 450 LINE",
"650 450 LINE"
);
},
{
closed = 1;
nodes = (
"300 350 LINE",
"650 350 LINE",
"650 400 LINE",
"300 400 LINE"
);
},
{
closed = 1;
nodes = (
"300 0 LINE",
"400 0 LINE",
"400 50 LINE",
"300 50 LINE"
);
},
{
closed = 1;
nodes = (
"400 650 LINE",
"450 650 LINE",
"450 700 LINE",
"400 700 LINE"
);
},
{
closed = 1;
nodes = (
"225 575 LINE",
"268 624 OFFCURVE",
"328 650 OFFCURVE",
"400 650 CURVE",
"400 700 LINE",
"320 700 OFFCURVE",
"245 665 OFFCURVE",
"190 610 CURVE"
);
}
);
width = 800;
}
);
},
{
color = 6;
export = 0;
glyphname = a.004;
lastChange = "2017-11-26 16:32:56 +0000";
layers = (
{
anchors = (
{
name = bottom;
position = "{400, 0}";
},
{
name = ogonek;
position = "{650, 0}";
},
{
name = top;
position = "{425, 700}";
}
);
components = (
{
name = _halfcircle_400;
transform = "{-1, 0, 0, -1, 600, 400}";
},
{
name = _quartercircle_250;
transform = "{0, 1, -1, 0, 650, 500}";
}
);
hints = (
{
horizontal = 1;
origin = "{0, 1}";
},
{
horizontal = 1;
origin = "{0, 1}";
target = "{0, 4}";
},
{
horizontal = 1;
place = "{600, 100}";
},
{
place = "{200, 0}";
},
{
origin = "{0, 4}";
target = "{0, 2}";
},
{
place = "{200, 100}";
}
);
layerId = "926D8932-2CBE-4DA1-A7EC-AA50FD678EE5";
paths = (
{
closed = 1;
nodes = (
"600 300 LINE",
"625 0 LINE",
"700 0 LINE",
"700 450 LINE",
"600 450 LINE"
);
},
{
closed = 1;
nodes = (
"300 300 LINE",
"600 300 LINE",
"600 400 LINE",
"300 400 LINE"
);
},
{
closed = 1;
nodes = (
"300 0 LINE",
"400 0 LINE",
"400 100 LINE",
"300 100 LINE"
);
},
{
closed = 1;
nodes = (
"400 600 LINE",
"450 600 LINE",
"450 700 LINE",
"400 700 LINE"
);
},
{
closed = 1;
nodes = (
"260 540 LINE",
"295 580 OFFCURVE",
"345 600 OFFCURVE",
"400 600 CURVE",
"400 700 LINE",
"320 700 OFFCURVE",
"245 665 OFFCURVE",
"190 610 CURVE"
);
},
{
closed = 1;
nodes = (
"600 300 LINE",
"600 190 OFFCURVE",
"510 100 OFFCURVE",
"400 100 CURVE",
"400 0 LINE",
"565 0 OFFCURVE",
"650 135 OFFCURVE",
"650 300 CURVE"
);
}
);
width = 800;
},
{
anchors = (
{
name = bottom;
position = "{400, 0}";
},
{
name = ogonek;
position = "{625, 0}";
},
{
name = top;
position = "{425, 700}";
}
);
components = (
{
name = _halfcircle_400;
transform = "{-1, 0, 0, -1, 600, 400}";
},
{
name = _quartercircle_250;
transform = "{0, 1, -1, 0, 650, 500}";
}
);
layerId = "DCFDD359-D3A1-4A9B-975E-26381AFB2AA7";
paths = (
{
closed = 1;
nodes = (
"550 300 LINE",
"600 0 LINE",
"700 0 LINE",
"700 450 LINE",
"550 450 LINE"
);
},
{
closed = 1;
nodes = (
"300 250 LINE",
"600 250 LINE",
"600 400 LINE",
"300 400 LINE"
);
},
{
closed = 1;
nodes = (
"300 0 LINE",
"400 0 LINE",
"400 150 LINE",
"300 150 LINE"
);
},
{
closed = 1;
nodes = (
"400 550 LINE",
"450 550 LINE",
"450 700 LINE",
"400 700 LINE"
);
},
{
closed = 1;
nodes = (
"295 505 LINE",
"321 535 OFFCURVE",
"357 550 OFFCURVE",
"400 550 CURVE",
"400 700 LINE",
"320 700 OFFCURVE",
"245 665 OFFCURVE",
"190 610 CURVE"
);
},
{
closed = 1;
nodes = (
"550 300 LINE",
"550 215 OFFCURVE",
"485 150 OFFCURVE",
"400 150 CURVE",
"400 0 LINE",
"565 0 OFFCURVE",
"625 135 OFFCURVE",
"625 300 CURVE"
);
}
);
width = 800;
},
{
anchors = (
{
name = bottom;
position = "{400, 0}";
},
{
name = ogonek;
position = "{650, 0}";
},
{
name = top;
position = "{425, 700}";
}
);
components = (
{
name = _halfcircle_400;
transform = "{-1, 0, 0, -1, 600, 400}";
},
{
name = _quartercircle_250;
transform = "{0, 1, -1, 0, 650, 500}";
}
);
layerId = "833FD172-3601-4257-8297-A103CE2A393F";
paths = (
{
closed = 1;
nodes = (
"650 300 LINE",
"650 0 LINE",
"700 0 LINE",
"700 450 LINE",
"650 450 LINE"
);
},
{
closed = 1;
nodes = (
"300 350 LINE",
"650 350 LINE",
"650 400 LINE",
"300 400 LINE"
);
},
{
closed = 1;
nodes = (
"300 0 LINE",
"400 0 LINE",
"400 50 LINE",
"300 50 LINE"
);
},
{
closed = 1;
nodes = (
"400 650 LINE",
"450 650 LINE",
"450 700 LINE",
"400 700 LINE"
);
},
{
closed = 1;
nodes = (
"225 575 LINE",
"268 624 OFFCURVE",
"328 650 OFFCURVE",
"400 650 CURVE",
"400 700 LINE",
"320 700 OFFCURVE",
"245 665 OFFCURVE",
"190 610 CURVE"
);
},
{
closed = 1;
nodes = (
"650 300 LINE",
"650 160 OFFCURVE",
"540 50 OFFCURVE",
"400 50 CURVE",
"400 0 LINE",
"565 0 OFFCURVE",
"675 135 OFFCURVE",
"675 300 CURVE"
);
}
);
width = 800;
}
);
},
{
color = 4;
export = 0;
glyphname = "alpha-latin";
lastChange = "2017-11-26 16:32:56 +0000";
layers = (
{
components = (
{
name = o;
}
);
layerId = "833FD172-3601-4257-8297-A103CE2A393F";
paths = (
{
closed = 1;
nodes = (
"750 0 LINE",
"800 0 LINE",
"800 700 LINE",
"750 700 LINE"
);
}
);
width = 900;
},
{
components = (
{
name = o;
}
);
layerId = "926D8932-2CBE-4DA1-A7EC-AA50FD678EE5";
paths = (
{
closed = 1;
nodes = (
"700 0 LINE",
"800 0 LINE",
"800 700 LINE",
"700 700 LINE"
);
}
);
width = 900;
},
{
components = (
{
name = o;
}
);
layerId = "DCFDD359-D3A1-4A9B-975E-26381AFB2AA7";
paths = (
{
closed = 1;
nodes = (
"650 0 LINE",
"800 0 LINE",
"800 700 LINE",
"650 700 LINE"
);
}
);
width = 900;
}
);
unicode = 0251;
},
{
color = 3;
export = 0;
glyphname = aogonek;
lastChange = "2017-12-08 11:39:41 +0000";
layers = (
{
anchors = (
{
name = bottom;
position = "{425, 0}";
},
{
name = ogonek;
position = "{625, 50}";
},
{
name = top;
position = "{425, 700}";
}
);
components = (
{
name = ogonekcomb;
transform = "{1, 0, 0, 1, 425, 100}";
}
);
hints = (
{
horizontal = 1;
origin = "{0, 17}";
target = "{1, 10}";
},
{
horizontal = 1;
origin = "{1, 10}";
target = "{0, 11}";
},
{
horizontal = 1;
origin = "{0, 3}";
target = "{0, 27}";
},
{
origin = "{0, 14}";
target = "{0, 30}";
},
{
origin = "{0, 7}";
target = "{0, 22}";
},
{
origin = "{0, 30}";
target = "{0, 17}";
}
);
layerId = "926D8932-2CBE-4DA1-A7EC-AA50FD678EE5";
paths = (
{
closed = 1;
nodes = (
"255 570 LINE",
"275 590 OFFCURVE",
"300 600 OFFCURVE",
"325 600 CURVE SMOOTH",
"475 600 LINE SMOOTH",
"530 600 OFFCURVE",
"575 555 OFFCURVE",
"575 500 CURVE SMOOTH",
"575 445 OFFCURVE",
"530 400 OFFCURVE",
"475 400 CURVE SMOOTH",
"275 400 LINE SMOOTH",
"165 400 OFFCURVE",
"75 310 OFFCURVE",
"75 200 CURVE SMOOTH",
"75 90 OFFCURVE",
"165 0 OFFCURVE",
"275 0 CURVE SMOOTH",
"475 0 LINE SMOOTH",
"530 0 OFFCURVE",
"585 25 OFFCURVE",
"620 65 CURVE",
"675 200 LINE",
"675 500 LINE SMOOTH",
"675 610 OFFCURVE",
"585 700 OFFCURVE",
"475 700 CURVE SMOOTH",
"325 700 LINE SMOOTH",
"270 700 OFFCURVE",
"220 675 OFFCURVE",
"185 640 CURVE"
);
},
{
closed = 1;
nodes = (
"175 255 OFFCURVE",
"220 300 OFFCURVE",
"275 300 CURVE SMOOTH",
"475 300 LINE SMOOTH",
"510 300 OFFCURVE",
"545 310 OFFCURVE",
"575 325 CURVE",
"575 200 LINE SMOOTH",
"575 145 OFFCURVE",
"530 100 OFFCURVE",
"475 100 CURVE SMOOTH",
"275 100 LINE SMOOTH",
"220 100 OFFCURVE",
"175 145 OFFCURVE",
"175 200 CURVE SMOOTH"
);
},
{
closed = 1;
nodes = (
"575 50 LINE",
"675 50 LINE",
"675 200 LINE",
"575 200 LINE"
);
}
);
width = 775;
},
{
anchors = (
{
name = bottom;
position = "{425, 0}";
},
{
name = ogonek;
position = "{625, 50}";
},
{
name = top;
position = "{425, 700}";
}
);
components = (
{
name = ogonekcomb;
transform = "{1, 0, 0, 1, 400, 100}";
}
);
layerId = "DCFDD359-D3A1-4A9B-975E-26381AFB2AA7";
paths = (
{
closed = 1;
nodes = (
"290 535 LINE",
"300 545 OFFCURVE",
"310 550 OFFCURVE",
"325 550 CURVE SMOOTH",
"460 550 LINE SMOOTH",
"495 550 OFFCURVE",
"525 525 OFFCURVE",
"525 490 CURVE SMOOTH",
"525 460 OFFCURVE",
"495 430 OFFCURVE",
"460 430 CURVE SMOOTH",
"290 430 LINE SMOOTH",
"170 430 OFFCURVE",
"75 335 OFFCURVE",
"75 215 CURVE SMOOTH",
"75 95 OFFCURVE",
"170 0 OFFCURVE",
"290 0 CURVE SMOOTH",
"475 0 LINE SMOOTH",
"525 0 OFFCURVE",
"575 20 OFFCURVE",
"610 50 CURVE",
"675 200 LINE",
"675 500 LINE",
"670 615 OFFCURVE",
"575 700 OFFCURVE",
"460 700 CURVE SMOOTH",
"325 700 LINE SMOOTH",
"270 700 OFFCURVE",
"220 680 OFFCURVE",
"185 640 CURVE"
);
},
{
closed = 1;
nodes = (
"225 245 OFFCURVE",
"255 275 OFFCURVE",
"290 275 CURVE SMOOTH",
"460 275 LINE SMOOTH",
"485 275 OFFCURVE",
"505 280 OFFCURVE",
"525 285 CURVE",
"525 200 LINE SMOOTH",
"525 170 OFFCURVE",
"505 150 OFFCURVE",
"475 150 CURVE SMOOTH",
"290 150 LINE SMOOTH",
"255 150 OFFCURVE",
"225 180 OFFCURVE",
"225 215 CURVE SMOOTH"
);
},
{
closed = 1;
nodes = (
"575 50 LINE",
"675 50 LINE",
"675 200 LINE",
"575 200 LINE"
);
}
);
width = 775;
},
{
anchors = (
{
name = bottom;
position = "{425, 0}";
},
{
name = ogonek;
position = "{650, 50}";
},
{
name = top;
position = "{425, 700}";
}
);
components = (
{
name = ogonekcomb;
transform = "{1, 0, 0, 1, 475, 100}";
}
);
layerId = "833FD172-3601-4257-8297-A103CE2A393F";
paths = (
{
closed = 1;
nodes = (
"220 605 LINE",
"245 625 OFFCURVE",
"275 650 OFFCURVE",
"315 650 CURVE SMOOTH",
"485 650 LINE SMOOTH",
"565 650 OFFCURVE",
"625 590 OFFCURVE",
"625 515 CURVE SMOOTH",
"625 435 OFFCURVE",
"565 375 OFFCURVE",
"485 375 CURVE SMOOTH",
"265 375 LINE SMOOTH",
"160 375 OFFCURVE",
"75 290 OFFCURVE",
"75 190 CURVE SMOOTH",
"75 85 OFFCURVE",
"160 0 OFFCURVE",
"265 0 CURVE SMOOTH",
"485 0 LINE SMOOTH",
"555 0 OFFCURVE",
"615 35 OFFCURVE",
"645 90 CURVE",
"675 190 LINE",
"675 515 LINE SMOOTH",
"675 615 OFFCURVE",
"590 700 OFFCURVE",
"485 700 CURVE SMOOTH",
"315 700 LINE SMOOTH",
"265 700 OFFCURVE",
"215 675 OFFCURVE",
"185 640 CURVE"
);
},
{
closed = 1;
nodes = (
"125 265 OFFCURVE",
"185 325 OFFCURVE",
"265 325 CURVE SMOOTH",
"485 325 LINE SMOOTH",
"540 325 OFFCURVE",
"590 350 OFFCURVE",
"625 385 CURVE",
"625 190 LINE SMOOTH",
"625 110 OFFCURVE",
"565 50 OFFCURVE",
"485 50 CURVE SMOOTH",
"265 50 LINE SMOOTH",
"185 50 OFFCURVE",
"125 110 OFFCURVE",
"125 190 CURVE SMOOTH"
);
},
{
closed = 1;
nodes = (
"625 50 LINE",
"675 50 LINE",
"675 200 LINE",
"625 200 LINE"
);
}
);
width = 775;
}
);
leftMetricsKey = a;
unicode = 0105;
},
{
color = 6;
export = 0;
glyphname = ae.001;
lastChange = "2017-12-09 10:18:42 +0000";
layers = (
{
anchors = (
{
name = bottom;
position = "{975, 0}";
},
{
name = top;
position = "{975, 700}";
}
);
components = (
{
name = e;
transform = "{1, 0, 0, 1, 525, 0}";
}
);
layerId = "926D8932-2CBE-4DA1-A7EC-AA50FD678EE5";
paths = (
{
closed = 1;
nodes = (
"195 530 LINE",
"245 570 OFFCURVE",
"305 600 OFFCURVE",
"375 600 CURVE SMOOTH",
"495 600 OFFCURVE",
"595 515 OFFCURVE",
"615 400 CURVE",
"275 400 LINE",
"275 300 LINE",
"615 300 LINE",
"595 190 OFFCURVE",
"495 100 OFFCURVE",
"375 100 CURVE",
"275 100 LINE",
"275 0 LINE",
"375 0 LINE",
"570 0 OFFCURVE",
"725 155 OFFCURVE",
"725 350 CURVE SMOOTH",
"725 545 OFFCURVE",
"570 700 OFFCURVE",
"375 700 CURVE SMOOTH",
"280 700 OFFCURVE",
"190 660 OFFCURVE",
"125 600 CURVE"
);
},
{
closed = 1;
nodes = (
"75 90 OFFCURVE",
"165 0 OFFCURVE",
"275 0 CURVE",
"275 100 LINE",
"220 100 OFFCURVE",
"175 145 OFFCURVE",
"175 200 CURVE SMOOTH",
"175 255 OFFCURVE",
"220 300 OFFCURVE",
"275 300 CURVE",
"275 400 LINE",
"165 400 OFFCURVE",
"75 310 OFFCURVE",
"75 200 CURVE SMOOTH"
);
}
);
width = 1375;
},
{
anchors = (
{
name = bottom;
position = "{975, 0}";
},
{
name = top;
position = "{975, 700}";
}
);
components = (
{
name = e;
transform = "{1, 0, 0, 1, 525, 0}";
}
);
layerId = "DCFDD359-D3A1-4A9B-975E-26381AFB2AA7";
paths = (
{
closed = 1;
nodes = (
"285 490 LINE",
"320 525 OFFCURVE",
"370 550 OFFCURVE",
"425 550 CURVE SMOOTH",
"510 550 OFFCURVE",
"580 500 OFFCURVE",
"610 425 CURVE",
"290 425 LINE",
"290 275 LINE",
"610 275 LINE",
"580 200 OFFCURVE",
"510 150 OFFCURVE",
"425 150 CURVE SMOOTH",
"290 150 LINE",
"290 0 LINE",
"425 0 LINE SMOOTH",
"620 0 OFFCURVE",
"775 155 OFFCURVE",
"775 350 CURVE SMOOTH",
"775 545 OFFCURVE",
"620 700 OFFCURVE",
"425 700 CURVE SMOOTH",
"325 700 OFFCURVE",
"240 660 OFFCURVE",
"175 600 CURVE"
);
},
{
closed = 1;
nodes = (
"75 95 OFFCURVE",
"170 0 OFFCURVE",
"290 0 CURVE",
"290 150 LINE",
"255 150 OFFCURVE",
"225 180 OFFCURVE",
"225 215 CURVE SMOOTH",
"225 245 OFFCURVE",
"255 275 OFFCURVE",
"290 275 CURVE",
"290 425 LINE",
"170 425 OFFCURVE",
"75 335 OFFCURVE",
"75 215 CURVE SMOOTH"
);
}
);
width = 1375;
},
{
anchors = (
{
name = bottom;
position = "{975, 0}";
},
{
name = top;
position = "{975, 700}";
}
);
components = (
{
name = e;
transform = "{1, 0, 0, 1, 525, 0}";
}
);
layerId = "833FD172-3601-4257-8297-A103CE2A393F";
paths = (
{
closed = 1;
nodes = (
"165 560 LINE",
"215 615 OFFCURVE",
"290 650 OFFCURVE",
"375 650 CURVE SMOOTH",
"498 650 OFFCURVE",
"611 526 OFFCURVE",
"625 375 CURVE",
"265 375 LINE",
"265 325 LINE",
"625 325 LINE",
"610 170 OFFCURVE",
"480 50 OFFCURVE",
"325 50 CURVE SMOOTH",
"265 50 LINE",
"265 0 LINE",
"325 0 LINE SMOOTH",
"520 0 OFFCURVE",
"675 155 OFFCURVE",
"675 350 CURVE SMOOTH",
"675 543 OFFCURVE",
"540 700 OFFCURVE",
"375 700 CURVE SMOOTH",
"280 700 OFFCURVE",
"190 660 OFFCURVE",
"130 595 CURVE"
);
},
{
closed = 1;
nodes = (
"75 85 OFFCURVE",
"160 0 OFFCURVE",
"265 0 CURVE",
"265 50 LINE",
"185 50 OFFCURVE",
"125 110 OFFCURVE",
"125 190 CURVE SMOOTH",
"125 265 OFFCURVE",
"185 325 OFFCURVE",
"265 325 CURVE",
"265 375 LINE",
"160 375 OFFCURVE",
"75 290 OFFCURVE",
"75 190 CURVE SMOOTH"
);
}
);
width = 1375;
}
);
leftKerningGroup = a;
leftMetricsKey = a;
rightKerningGroup = o;
rightMetricsKey = e;
},
{
color = 6;
export = 0;
glyphname = b.001;
lastChange = "2017-12-08 11:39:41 +0000";
layers = (
{
components = (
{
name = o;
}
);
hints = (
{
horizontal = 1;
place = "{0, 100}";
},
{
horizontal = 1;
place = "{600, 100}";
},
{
place = "{50, 100}";
},
{
place = "{450, 100}";
}
);
layerId = "926D8932-2CBE-4DA1-A7EC-AA50FD678EE5";
paths = (
{
closed = 1;
nodes = (
"100 0 LINE",
"200 0 LINE",
"200 1000 LINE",
"100 1000 LINE"
);
}
);
width = 850;
},
{
components = (
{
name = o;
}
);
layerId = "DCFDD359-D3A1-4A9B-975E-26381AFB2AA7";
paths = (
{
closed = 1;
nodes = (
"100 0 LINE",
"250 0 LINE",
"250 1000 LINE",
"100 1000 LINE"
);
}
);
width = 850;
},
{
components = (
{
name = o;
}
);
layerId = "833FD172-3601-4257-8297-A103CE2A393F";
paths = (
{
closed = 1;
nodes = (
"100 0 LINE",
"150 0 LINE",
"150 1000 LINE",
"100 1000 LINE"
);
}
);
width = 850;
}
);
rightMetricsKey = o;
},
{
color = 6;
export = 0;
glyphname = b.002;
lastChange = "2017-12-08 11:39:41 +0000";
layers = (
{
components = (
{
name = o.002;
}
);
hints = (
{
horizontal = 1;
place = "{0, 100}";
},
{
horizontal = 1;
place = "{600, 100}";
},
{
place = "{50, 100}";
},
{
place = "{450, 100}";
}
);
layerId = "926D8932-2CBE-4DA1-A7EC-AA50FD678EE5";
paths = (
{
closed = 1;
nodes = (
"100 0 LINE",
"200 0 LINE",
"200 1000 LINE",
"100 1000 LINE"
);
}
);
width = 775;
},
{
components = (
{
name = o.002;
}
);
layerId = "DCFDD359-D3A1-4A9B-975E-26381AFB2AA7";
paths = (
{
closed = 1;
nodes = (
"100 0 LINE",
"250 0 LINE",
"250 1000 LINE",
"100 1000 LINE"
);
}
);
width = 775;
},
{
components = (
{
name = o.002;
}
);
layerId = "833FD172-3601-4257-8297-A103CE2A393F";
paths = (
{
closed = 1;
nodes = (
"100 0 LINE",
"150 0 LINE",
"150 1000 LINE",
"100 1000 LINE"
);
}
);
width = 775;
}
);
rightMetricsKey = o;
},
{
color = 6;
export = 0;
glyphname = b.003;
lastChange = "2017-12-08 11:39:23 +0000";
layers = (
{
anchors = (
{
name = bottom;
position = "{500, 0}";
},
{
name = center;
position = "{475, 350}";
},
{
name = ogonek;
position = "{500, 0}";
},
{
name = top;
position = "{500, 700}";
},
{
name = topright;
position = "{825, 700}";
}
);
hints = (
{
horizontal = 1;
place = "{0, 100}";
},
{
horizontal = 1;
place = "{600, 100}";
},
{
place = "{50, 100}";
},
{
place = "{450, 100}";
},
{
horizontal = 1;
place = "{0, 0}";
},
{
horizontal = 1;
place = "{0, 0}";
},
{
place = "{0, 0}";
},
{
place = "{0, 0}";
}
);
layerId = "926D8932-2CBE-4DA1-A7EC-AA50FD678EE5";
paths = (
{
closed = 1;
nodes = (
"125 0 LINE",
"200 0 LINE",
"225 350 LINE",
"225 1000 LINE",
"125 1000 LINE"
);
},
{
closed = 1;
nodes = (
"695 0 OFFCURVE",
"825 155 OFFCURVE",
"825 350 CURVE SMOOTH",
"825 545 OFFCURVE",
"695 700 OFFCURVE",
"500 700 CURVE SMOOTH",
"305 700 OFFCURVE",
"175 545 OFFCURVE",
"175 350 CURVE SMOOTH",
"175 155 OFFCURVE",
"305 0 OFFCURVE",
"500 0 CURVE SMOOTH"
);
},
{
closed = 1;
nodes = (
"335 100 OFFCURVE",
"225 210 OFFCURVE",
"225 350 CURVE SMOOTH",
"225 490 OFFCURVE",
"335 600 OFFCURVE",
"475 600 CURVE SMOOTH",
"615 600 OFFCURVE",
"725 490 OFFCURVE",
"725 350 CURVE SMOOTH",
"725 210 OFFCURVE",
"615 100 OFFCURVE",
"475 100 CURVE SMOOTH"
);
}
);
width = 900;
},
{
anchors = (
{
name = bottom;
position = "{510, 0}";
},
{
name = center;
position = "{475, 350}";
},
{
name = ogonek;
position = "{510, 0}";
},
{
name = top;
position = "{510, 700}";
},
{
name = topright;
position = "{825, 700}";
}
);
layerId = "DCFDD359-D3A1-4A9B-975E-26381AFB2AA7";
paths = (
{
closed = 1;
nodes = (
"125 0 LINE",
"225 0 LINE",
"275 350 LINE",
"275 1000 LINE",
"125 1000 LINE"
);
},
{
closed = 1;
nodes = (
"705 0 OFFCURVE",
"825 155 OFFCURVE",
"825 350 CURVE SMOOTH",
"825 545 OFFCURVE",
"705 700 OFFCURVE",
"510 700 CURVE SMOOTH",
"315 700 OFFCURVE",
"200 545 OFFCURVE",
"200 350 CURVE SMOOTH",
"200 155 OFFCURVE",
"315 0 OFFCURVE",
"510 0 CURVE SMOOTH"
);
},
{
closed = 1;
nodes = (
"365 150 OFFCURVE",
"275 240 OFFCURVE",
"275 350 CURVE SMOOTH",
"275 460 OFFCURVE",
"365 550 OFFCURVE",
"475 550 CURVE SMOOTH",
"585 550 OFFCURVE",
"675 460 OFFCURVE",
"675 350 CURVE SMOOTH",
"675 240 OFFCURVE",
"585 150 OFFCURVE",
"475 150 CURVE SMOOTH"
);
}
);
width = 900;
},
{
anchors = (
{
name = bottom;
position = "{485, 0}";
},
{
name = center;
position = "{475, 350}";
},
{
name = ogonek;
position = "{485, 0}";
},
{
name = top;
position = "{485, 700}";
},
{
name = topright;
position = "{825, 700}";
}
);
layerId = "833FD172-3601-4257-8297-A103CE2A393F";
paths = (
{
closed = 1;
nodes = (
"125 0 LINE",
"175 0 LINE",
"175 350 LINE",
"175 1000 LINE",
"125 1000 LINE"
);
},
{
closed = 1;
nodes = (
"680 0 OFFCURVE",
"825 155 OFFCURVE",
"825 350 CURVE SMOOTH",
"825 545 OFFCURVE",
"680 700 OFFCURVE",
"485 700 CURVE SMOOTH",
"290 700 OFFCURVE",
"150 545 OFFCURVE",
"150 350 CURVE SMOOTH",
"150 155 OFFCURVE",
"290 0 OFFCURVE",
"485 0 CURVE SMOOTH"
);
},
{
closed = 1;
nodes = (
"310 50 OFFCURVE",
"175 185 OFFCURVE",
"175 350 CURVE SMOOTH",
"175 515 OFFCURVE",
"310 650 OFFCURVE",
"475 650 CURVE SMOOTH",
"640 650 OFFCURVE",
"775 515 OFFCURVE",
"775 350 CURVE SMOOTH",
"775 185 OFFCURVE",
"640 50 OFFCURVE",
"475 50 CURVE SMOOTH"
);
}
);
width = 900;
}
);
rightMetricsKey = o;
},
{
color = 4;
export = 0;
glyphname = bhook;
lastChange = "2017-12-08 11:39:41 +0000";
layers = (
{
components = (
{
name = o;
transform = "{1, 0, 0, 1, 50, 0}";
},
{
name = _quartercircle_300;
transform = "{1, 0, 0, 1, 100, 300}";
}
);
layerId = "833FD172-3601-4257-8297-A103CE2A393F";
paths = (
{
closed = 1;
nodes = (
"450 950 LINE",
"500 950 LINE",
"500 1000 LINE",
"450 1000 LINE"
);
},
{
closed = 1;
nodes = (
"150 0 LINE",
"200 0 LINE",
"200 700 LINE",
"150 700 LINE"
);
}
);
width = 900;
},
{
components = (
{
name = o;
transform = "{1, 0, 0, 1, 50, 0}";
},
{
name = _quartercircle_300;
transform = "{1, 0, 0, 1, 100, 300}";
}
);
hints = (
{
horizontal = 1;
place = "{0, 100}";
},
{
horizontal = 1;
place = "{600, 100}";
},
{
place = "{50, 100}";
},
{
place = "{450, 100}";
}
);
layerId = "926D8932-2CBE-4DA1-A7EC-AA50FD678EE5";
paths = (
{
closed = 1;
nodes = (
"450 900 LINE",
"500 900 LINE",
"500 1000 LINE",
"450 1000 LINE"
);
},
{
closed = 1;
nodes = (
"150 0 LINE",
"250 0 LINE",
"250 700 LINE",
"150 700 LINE"
);
}
);
width = 900;
},
{
components = (
{
name = o;
transform = "{1, 0, 0, 1, 50, 0}";
},
{
name = _quartercircle_300;
transform = "{1, 0, 0, 1, 100, 300}";
}
);
layerId = "DCFDD359-D3A1-4A9B-975E-26381AFB2AA7";
paths = (
{
closed = 1;
nodes = (
"450 850 LINE",
"500 850 LINE",
"500 1000 LINE",
"450 1000 LINE"
);
},
{
closed = 1;
nodes = (
"150 0 LINE",
"300 0 LINE",
"300 700 LINE",
"150 700 LINE"
);
}
);
width = 900;
}
);
leftMetricsKey = b;
rightMetricsKey = b;
unicode = 0253;
},
{
color = 3;
export = 0;
glyphname = bidentalpercussive;
lastChange = "2017-11-26 16:32:56 +0000";
layers = (
{
layerId = "926D8932-2CBE-4DA1-A7EC-AA50FD678EE5";
paths = (
{
closed = 1;
nodes = (
"100 0 LINE",
"200 0 LINE",
"200 300 LINE",
"100 300 LINE"
);
},
{
closed = 1;
nodes = (
"600 0 LINE",
"700 0 LINE",
"700 300 LINE",
"600 300 LINE"
);
},
{
closed = 1;
nodes = (
"100 200 LINE",
"700 200 LINE",
"700 300 LINE",
"100 300 LINE"
);
},
{
closed = 1;
nodes = (
"100 400 LINE",
"200 400 LINE",
"200 700 LINE",
"100 700 LINE"
);
},
{
closed = 1;
nodes = (
"600 400 LINE",
"700 400 LINE",
"700 700 LINE",
"600 700 LINE"
);
},
{
closed = 1;
nodes = (
"100 600 LINE",
"700 600 LINE",
"700 700 LINE",
"100 700 LINE"
);
}
);
width = 800;
},
{
layerId = "833FD172-3601-4257-8297-A103CE2A393F";
paths = (
{
closed = 1;
nodes = (
"100 0 LINE",
"150 0 LINE",
"150 300 LINE",
"100 300 LINE"
);
},
{
closed = 1;
nodes = (
"650 0 LINE",
"700 0 LINE",
"700 300 LINE",
"650 300 LINE"
);
},
{
closed = 1;
nodes = (
"100 250 LINE",
"700 250 LINE",
"700 300 LINE",
"100 300 LINE"
);
},
{
closed = 1;
nodes = (
"100 400 LINE",
"150 400 LINE",
"150 700 LINE",
"100 700 LINE"
);
},
{
closed = 1;
nodes = (
"650 400 LINE",
"700 400 LINE",
"700 700 LINE",
"650 700 LINE"
);
},
{
closed = 1;
nodes = (
"100 650 LINE",
"700 650 LINE",
"700 700 LINE",
"100 700 LINE"
);
}
);
width = 800;
},
{
layerId = "DCFDD359-D3A1-4A9B-975E-26381AFB2AA7";
paths = (
{
closed = 1;
nodes = (
"100 0 LINE",
"250 0 LINE",
"250 300 LINE",
"100 300 LINE"
);
},
{
closed = 1;
nodes = (
"550 0 LINE",
"700 0 LINE",
"700 300 LINE",
"550 300 LINE"
);
},
{
closed = 1;
nodes = (
"100 150 LINE",
"700 150 LINE",
"700 300 LINE",
"100 300 LINE"
);
},
{
closed = 1;
nodes = (
"100 400 LINE",
"250 400 LINE",
"250 700 LINE",
"100 700 LINE"
);
},
{
closed = 1;
nodes = (
"550 400 LINE",
"700 400 LINE",
"700 700 LINE",
"550 700 LINE"
);
},
{
closed = 1;
nodes = (
"100 550 LINE",
"700 550 LINE",
"700 700 LINE",
"100 700 LINE"
);
}
);
width = 800;
}
);
unicode = 02AD;
},
{
color = 4;
export = 0;
glyphname = bilabialclick;
lastChange = "2017-11-26 16:32:56 +0000";
layers = (
{
components = (
{
name = _circle_10;
}
);
layerId = "833FD172-3601-4257-8297-A103CE2A393F";
paths = (
{
closed = 1;
nodes = (
"688 200 OFFCURVE",
"755 268 OFFCURVE",
"755 350 CURVE SMOOTH",
"755 433 OFFCURVE",
"688 500 OFFCURVE",
"605 500 CURVE SMOOTH",
"523 500 OFFCURVE",
"455 433 OFFCURVE",
"455 350 CURVE SMOOTH",
"455 268 OFFCURVE",
"523 200 OFFCURVE",
"605 200 CURVE SMOOTH"
);
}
);
width = 1200;
},
{
components = (
{
name = _circle_10;
}
);
layerId = "926D8932-2CBE-4DA1-A7EC-AA50FD678EE5";
paths = (
{
closed = 1;
nodes = (
"688 200 OFFCURVE",
"755 268 OFFCURVE",
"755 350 CURVE SMOOTH",
"755 433 OFFCURVE",
"688 500 OFFCURVE",
"605 500 CURVE SMOOTH",
"523 500 OFFCURVE",
"455 433 OFFCURVE",
"455 350 CURVE SMOOTH",
"455 268 OFFCURVE",
"523 200 OFFCURVE",
"605 200 CURVE SMOOTH"
);
}
);
width = 1200;
},
{
components = (
{
name = _circle_10;
}
);
layerId = "DCFDD359-D3A1-4A9B-975E-26381AFB2AA7";
paths = (
{
closed = 1;
nodes = (
"688 200 OFFCURVE",
"755 268 OFFCURVE",
"755 350 CURVE SMOOTH",
"755 433 OFFCURVE",
"688 500 OFFCURVE",
"605 500 CURVE SMOOTH",
"523 500 OFFCURVE",
"455 433 OFFCURVE",
"455 350 CURVE SMOOTH",
"455 268 OFFCURVE",
"523 200 OFFCURVE",
"605 200 CURVE SMOOTH"
);
}
);
width = 1200;
}
);
unicode = 0298;
},
{
color = 4;
export = 0;
glyphname = bilabialpercussive;
lastChange = "2017-11-26 16:32:56 +0000";
layers = (
{
layerId = "926D8932-2CBE-4DA1-A7EC-AA50FD678EE5";
paths = (
{
closed = 1;
nodes = (
"505 300 LINE",
"395 300 LINE",
"245 0 LINE",
"355 0 LINE"
);
},
{
closed = 1;
nodes = (
"355 0 LINE",
"200 300 LINE",
"90 300 LINE",
"245 0 LINE"
);
},
{
closed = 1;
nodes = (
"810 300 LINE",
"700 300 LINE",
"545 0 LINE",
"655 0 LINE"
);
},
{
closed = 1;
nodes = (
"655 0 LINE",
"505 300 LINE",
"395 300 LINE",
"545 0 LINE"
);
},
{
closed = 1;
nodes = (
"505 700 LINE",
"395 700 LINE",
"245 400 LINE",
"355 400 LINE"
);
},
{
closed = 1;
nodes = (
"355 400 LINE",
"200 700 LINE",
"90 700 LINE",
"245 400 LINE"
);
},
{
closed = 1;
nodes = (
"810 700 LINE",
"700 700 LINE",
"545 400 LINE",
"655 400 LINE"
);
},
{
closed = 1;
nodes = (
"655 400 LINE",
"505 700 LINE",
"395 700 LINE",
"545 400 LINE"
);
}
);
width = 900;
},
{
layerId = "833FD172-3601-4257-8297-A103CE2A393F";
paths = (
{
closed = 1;
nodes = (
"480 300 LINE",
"420 300 LINE",
"270 0 LINE",
"330 0 LINE"
);
},
{
closed = 1;
nodes = (
"330 0 LINE",
"150 300 LINE",
"90 300 LINE",
"270 0 LINE"
);
},
{
closed = 1;
nodes = (
"810 300 LINE",
"750 300 LINE",
"570 0 LINE",
"630 0 LINE"
);
},
{
closed = 1;
nodes = (
"630 0 LINE",
"480 300 LINE",
"420 300 LINE",
"570 0 LINE"
);
},
{
closed = 1;
nodes = (
"480 700 LINE",
"420 700 LINE",
"270 400 LINE",
"330 400 LINE"
);
},
{
closed = 1;
nodes = (
"330 400 LINE",
"150 700 LINE",
"90 700 LINE",
"270 400 LINE"
);
},
{
closed = 1;
nodes = (
"810 700 LINE",
"750 700 LINE",
"570 400 LINE",
"630 400 LINE"
);
},
{
closed = 1;
nodes = (
"630 400 LINE",
"480 700 LINE",
"420 700 LINE",
"570 400 LINE"
);
}
);
width = 900;
},
{
layerId = "DCFDD359-D3A1-4A9B-975E-26381AFB2AA7";
paths = (
{
closed = 1;
nodes = (
"530 300 LINE",
"370 300 LINE",
"220 0 LINE",
"380 0 LINE"
);
},
{
closed = 1;
nodes = (
"380 0 LINE",
"250 300 LINE",
"90 300 LINE",
"220 0 LINE"
);
},
{
closed = 1;
nodes = (
"810 300 LINE",
"650 300 LINE",
"520 0 LINE",
"680 0 LINE"
);
},
{
closed = 1;
nodes = (
"680 0 LINE",
"530 300 LINE",
"370 300 LINE",
"520 0 LINE"
);
},
{
closed = 1;
nodes = (
"530 700 LINE",
"370 700 LINE",
"220 400 LINE",
"380 400 LINE"
);
},
{
closed = 1;
nodes = (
"380 400 LINE",
"250 700 LINE",
"90 700 LINE",
"220 400 LINE"
);
},
{
closed = 1;
nodes = (
"810 700 LINE",
"650 700 LINE",
"520 400 LINE",
"680 400 LINE"
);
},
{
closed = 1;
nodes = (
"680 400 LINE",
"530 700 LINE",
"370 700 LINE",
"520 400 LINE"
);
}
);
width = 900;
}
);
unicode = 02AC;
},
{
color = 4;
export = 0;
glyphname = bstroke;
lastChange = "2017-12-08 11:39:41 +0000";
layers = (
{
components = (
{
name = b;
transform = "{1, 0, 0, 1, 225, 0}";
}
);
layerId = "833FD172-3601-4257-8297-A103CE2A393F";
paths = (
{
closed = 1;
nodes = (
"125 875 LINE",
"575 875 LINE",
"575 925 LINE",
"125 925 LINE"
);
},
{
closed = 1;
nodes = (
"325 1000 LINE",
"375 1000 LINE",
"375 1100 LINE",
"325 1100 LINE"
);
}
);
width = 1125;
},
{
components = (
{
name = b;
transform = "{1, 0, 0, 1, 225, 0}";
}
);
layerId = "926D8932-2CBE-4DA1-A7EC-AA50FD678EE5";
paths = (
{
closed = 1;
nodes = (
"125 850 LINE",
"625 850 LINE",
"625 950 LINE",
"125 950 LINE"
);
},
{
closed = 1;
nodes = (
"325 1000 LINE",
"425 1000 LINE",
"425 1100 LINE",
"325 1100 LINE"
);
}
);
width = 1125;
},
{
components = (
{
name = b;
transform = "{1, 0, 0, 1, 225, 0}";
}
);
layerId = "DCFDD359-D3A1-4A9B-975E-26381AFB2AA7";
paths = (
{
closed = 1;
nodes = (
"125 825 LINE",
"675 825 LINE",
"675 975 LINE",
"125 975 LINE"
);
},
{
closed = 1;
nodes = (
"325 1000 LINE",
"475 1000 LINE",
"475 1100 LINE",
"325 1100 LINE"
);
}
);
width = 1125;
}
);
leftMetricsKey = b;
rightMetricsKey = b;
unicode = 0180;
},
{
color = 4;
export = 0;
glyphname = btopbar;
lastChange = "2017-11-26 16:32:56 +0000";
layers = (
{
components = (
{
name = b;
}
);
layerId = "833FD172-3601-4257-8297-A103CE2A393F";
paths = (
{
closed = 1;
nodes = (
"150 950 LINE",
"700 950 LINE",
"700 1000 LINE",
"150 1000 LINE"
);
}
);
width = 900;
},
{
components = (
{
name = b;
}
);
layerId = "926D8932-2CBE-4DA1-A7EC-AA50FD678EE5";
paths = (
{
closed = 1;
nodes = (
"200 900 LINE",
"700 900 LINE",
"700 1000 LINE",
"200 1000 LINE"
);
}
);
width = 900;
},
{
components = (
{
name = b;
}
);
layerId = "DCFDD359-D3A1-4A9B-975E-26381AFB2AA7";
paths = (
{
closed = 1;
nodes = (
"250 850 LINE",
"700 850 LINE",
"700 1000 LINE",
"250 1000 LINE"
);
}
);
width = 900;
}
);
leftMetricsKey = b;
rightMetricsKey = b;
unicode = 0183;
},
